0
SECTION
2
HEADER
9
$ACADVER
1
AC1012
9
$DWGCODEPAGE
3
ANSI_1252
9
$INSBASE
10
0.0
20
0.0
30
0.0
9
$EXTMIN
10
-500.000000
20
-500.000000
30
0.000000
9
$EXTMAX
10
500.000000
20
500.000000
30
0.000000
9
$LIMMIN
10
-500.000000
20
-500.000000
9
$LIMMAX
10
500.000000
20
500.000000
9
$LTSCALE
40
50.000000
9
$ORTHOMODE
70
0
9
$REGENMODE
70
1
9
$FILLMODE
70
1
9
$QTEXTMODE
70
0
9
$MIRRTEXT
70
1
9
$DRAGMODE
70
2
9
$OSMODE
70
37
9
$ATTMODE
70
1
9
$TEXTSIZE
40
2.5
9
$TRACEWID
40
1.0
9
$TEXTSTYLE
7
Arial
9
$CLAYER
8
0
9
$CELTYPE
6
BYLAYER
9
$CECOLOR
62
256
9
$CELTSCALE
40
1.0
9
$DELOBJ
70
1
9
$DISPSILH
70
0
9
$DIMSCALE
40
1.0
9
$DIMASZ
40
2.5
9
$DIMEXO
40
0.625
9
$DIMDLI
40
3.75
9
$DIMRND
40
0.0
9
$DIMDLE
40
0.0
9
$DIMEXE
40
1.25
9
$DIMTP
40
0.0
9
$DIMTM
40
0.0
9
$DIMTXT
40
2.5
9
$DIMCEN
40
2.5
9
$DIMTSZ
40
0.0
9
$DIMTOL
70
0
9
$DIMLIM
70
0
9
$DIMTIH
70
0
9
$DIMTOH
70
0
9
$DIMSE1
70
0
9
$DIMSE2
70
0
9
$DIMTAD
70
1
9
$DIMZIN
70
8
9
$DIMBLK
1

9
$DIMASO
70
1
9
$DIMSHO
70
1
9
$DIMPOST
1

9
$DIMAPOST
1

9
$DIMALT
70
0
9
$DIMALTD
70
3
9
$DIMALTF
40
0.03937007874016
9
$DIMLFAC
40
1.0
9
$DIMTOFL
70
1
9
$DIMTVP
40
0.0
9
$DIMTIX
70
0
9
$DIMSOXD
70
0
9
$DIMSAH
70
0
9
$DIMBLK1
1

9
$DIMBLK2
1

9
$DIMSTYLE
2
ISO-25
9
$DIMCLRD
70
0
9
$DIMCLRE
70
0
9
$DIMCLRT
70
0
9
$DIMTFAC
40
1.0
9
$DIMGAP
40
0.625
9
$DIMJUST
70
0
9
$DIMSD1
70
0
9
$DIMSD2
70
0
9
$DIMTOLJ
70
0
9
$DIMTZIN
70
8
9
$DIMALTZ
70
0
9
$DIMALTTZ
70
0
9
$DIMFIT
70
3
9
$DIMUPT
70
0
9
$DIMUNIT
70
2
9
$DIMDEC
70
2
9
$DIMTDEC
70
2
9
$DIMALTU
70
2
9
$DIMALTTD
70
3
9
$DIMTXSTY
7
STANDARD
9
$DIMAUNIT
70
0
9
$LUNITS
70
2
9
$LUPREC
70
4
9
$SKETCHINC
40
1.0
9
$FILLETRAD
40
10.0
9
$AUNITS
70
0
9
$AUPREC
70
0
9
$MENU
1
.
9
$ELEVATION
40
0.0
9
$PELEVATION
40
0.0
9
$THICKNESS
40
0.0
9
$LIMCHECK
70
0
9
$BLIPMODE
70
0
9
$CHAMFERA
40
10.0
9
$CHAMFERB
40
10.0
9
$CHAMFERC
40
20.0
9
$CHAMFERD
40
0.0
9
$SKPOLY
70
0
9
$TDCREATE
40
2451403.552662453
9
$TDUPDATE
40
2451403.552837477
9
$TDINDWG
40
0.0001756019
9
$TDUSRTIMER
40
0.0001754861
9
$USRTIMER
70
1
9
$ANGBASE
50
0.0
9
$ANGDIR
70
0
9
$PDMODE
70
0
9
$PDSIZE
40
0.0
9
$PLINEWID
40
0.0
9
$COORDS
70
2
9
$SPLFRAME
70
0
9
$SPLINETYPE
70
6
9
$SPLINESEGS
70
8
9
$ATTDIA
70
0
9
$ATTREQ
70
1
9
$HANDLING
70
4097
9
$HANDSEED
5
  12d2
9
$SURFTAB1
70
6
9
$SURFTAB2
70
6
9
$SURFTYPE
70
6
9
$SURFU
70
6
9
$SURFV
70
6
9
$UCSNAME
2

9
$UCSORG
10
0.0
20
0.0
30
0.0
9
$UCSXDIR
10
1.0
20
0.0
30
0.0
9
$UCSYDIR
10
0.0
20
1.0
30
0.0
9
$PUCSNAME
2

9
$PUCSORG
10
0.0
20
0.0
30
0.0
9
$PUCSXDIR
10
1.0
20
0.0
30
0.0
9
$PUCSYDIR
10
0.0
20
1.0
30
0.0
9
$USERI1
70
0
9
$USERI2
70
0
9
$USERI3
70
0
9
$USERI4
70
0
9
$USERI5
70
0
9
$USERR1
40
0.0
9
$USERR2
40
0.0
9
$USERR3
40
0.0
9
$USERR4
40
0.0
9
$USERR5
40
0.0
9
$WORLDVIEW
70
1
9
$SHADEDGE
70
3
9
$SHADEDIF
70
70
9
$TILEMODE
70
1
9
$MAXACTVP
70
64
9
$PINSBASE
10
0.0
20
0.0
30
0.0
9
$PLIMCHECK
70
0
9
$PEXTMIN
10
1.000000000000000E+20
20
1.000000000000000E+20
30
1.000000000000000E+20
9
$PEXTMAX
10
-1.000000000000000E+20
20
-1.000000000000000E+20
30
-1.000000000000000E+20
9
$PLIMMIN
10
0.0
20
0.0
9
$PLIMMAX
10
420.0
20
297.0
9
$UNITMODE
70
0
9
$VISRETAIN
70
1
9
$PLINEGEN
70
0
9
$PSLTSCALE
70
1
9
$TREEDEPTH
70
3020
9
$PICKSTYLE
70
1
9
$CMLSTYLE
2
STANDARD
9
$CMLJUST
70
0
9
$CMLSCALE
40
20.0
9
$SAVEIMAGES
70
1
0
ENDSEC
0
SECTION
2
CLASSES
0
CLASS
1
ACDBDICTIONARYWDFLT
2
AcDbDictionaryWithDefault
3
AutoCAD 2000
90
32768
280
0
281
0
0
CLASS
1
ACDBPLACEHOLDER
2
AcDbPlaceHolder
3
AutoCAD 2000
90
32768
280
0
281
0
0
CLASS
1
LAYOUT
2
AcDbLayout
3
AutoCAD 2000
90
32768
280
0
281
0
0
CLASS
1
LONG_TRANSACTION
2
AcDbLongTransaction
3
AutoCAD 2000
90
32768
280
0
281
0
0
CLASS
1
LWPOLYLINE
2
AcDbPolyline
3
AutoCAD 2000
90
32768
280
0
281
1
0
CLASS
1
HATCH
2
AcDbHatch
3
AutoCAD 2000
90
32768
280
0
281
1
0
CLASS
1
XRECORD
2
AcDbXrecord
3
AutoCAD 2000
90
32768
280
0
281
0
0
ENDSEC
0
SECTION
2
TABLES
0
TABLE
2
VPORT
5
8
330
0
100
AcDbSymbolTable
70
2
0
VPORT
5
40
330
8
100
AcDbSymbolTableRecord
100
AcDbViewportTableRecord
2
*ACTIVE
70
0
10
0.0
20
0.0
11
1.0
21
1.0
12
372.5731632106144
22
227.8572449501157
13
0.0
23
0.0
14
10.0
24
10.0
15
10.0
25
10.0
16
0.0
26
0.0
36
1.0
17
0.0
27
0.0
37
0.0
40
455.7144899002314
41
1.635116598079561
42
50.0
43
0.0
44
0.0
50
0.0
51
0.0
71
0
72
100
73
1
74
3
75
0
76
0
77
0
78
0
0
ENDTAB
0
TABLE
2
LTYPE
5
5
330
0
100
AcDbSymbolTable
70
1
0
LTYPE
5
14
330
5
100
AcDbSymbolTableRecord
100
AcDbLinetypeTableRecord
2
BYBLOCK
70
0
3

72
65
73
0
40
0.0
0
LTYPE
5
15
330
5
100
AcDbSymbolTableRecord
100
AcDbLinetypeTableRecord
2
BYLAYER
70
0
3

72
65
73
0
40
0.0
0
LTYPE
5
16
330
5
100
AcDbSymbolTableRecord
100
AcDbLinetypeTableRecord
2
CONTINUOUS
70
0
3
Solid line
72
65
73
0
40
0.0
0
ENDTAB
0
TABLE
2
LAYER
5
2
330
0
100
AcDbSymbolTable
70
1
0
LAYER
5
1002
330
2
100
AcDbSymbolTableRecord
100
AcDbLayerTableRecord
2
0
70
0
62
7
6
CONTINUOUS
0
LAYER
5
1003
330
2
100
AcDbSymbolTableRecord
100
AcDbLayerTableRecord
2
S_NOVA_R_301
70
0
62
7
6
CONTINUOUS
0
ENDTAB
0
TABLE
2
STYLE
5
3
330
0
100
AcDbSymbolTable
70
2
0
STYLE
5
11
330
3
100
AcDbSymbolTableRecord
100
AcDbTextStyleTableRecord
2
STANDARD
70
0
40
0.0
41
1.0
50
0.0
71
0
42
2.5
3
txt
4

0
STYLE
5
1001
330
3
100
AcDbSymbolTableRecord
100
AcDbTextStyleTableRecord
2
Arial
70
0
40
0.0
41
1.0
50
0.0
71
0
42
2.5
3
Arial.ttf
4

0
ENDTAB
0
TABLE
2
VIEW
5
6
330
0
100
AcDbSymbolTable
70
0
0
ENDTAB
0
TABLE
2
UCS
5
7
330
0
100
AcDbSymbolTable
70
0
0
ENDTAB
0
TABLE
2
APPID
5
9
330
0
100
AcDbSymbolTable
70
1
0
APPID
5
12
330
9
100
AcDbSymbolTableRecord
100
AcDbRegAppTableRecord
2
ACAD
70
0
0
ENDTAB
0
TABLE
2
DIMSTYLE
5
A
330
0
100
AcDbSymbolTable
70
1
0
DIMSTYLE
105
27
330
A
100
AcDbSymbolTableRecord
100
AcDbDimStyleTableRecord
2
ISO-25
70
0
3

4

5

6

7

40
1.0
41
2.5
42
0.625
43
3.75
44
1.25
45
0.0
46
0.0
47
0.0
48
0.0
140
2.5
141
2.5
142
0.0
143
0.03937007874016
144
1.0
145
0.0
146
1.0
147
0.625
71
0
72
0
73
0
74
0
75
0
76
0
77
1
78
8
170
0
171
3
172
1
173
0
174
0
175
0
176
0
177
0
178
0
270
2
271
2
272
2
273
2
274
3
340
11
275
0
280
0
281
0
282
0
283
0
284
8
285
0
286
0
287
3
288
0
0
ENDTAB
0
TABLE
2
BLOCK_RECORD
5
1
330
0
100
AcDbSymbolTable
70
2
0
BLOCK_RECORD
5
1F
102
{ACAD_XDICTIONARY
360
43
102
}
330
1
100
AcDbSymbolTableRecord
100
AcDbBlockTableRecord
2
*MODEL_SPACE
0
BLOCK_RECORD
5
1B
102
{ACAD_XDICTIONARY
360
41
102
}
330
1
100
AcDbSymbolTableRecord
100
AcDbBlockTableRecord
2
*PAPER_SPACE
0
BLOCK_RECORD
5
1004
330
1
100
AcDbSymbolTableRecord
100
AcDbBlockTableRecord
2
QMODEL_ad87eaaa_6916_47e8_bd01_28f392ae0049
0
ENDTAB
0
ENDSEC
0
SECTION
2
BLOCKS
0
BLOCK
5
20
330
1F
100
AcDbEntity
8
0
100
AcDbBlockBegin
2
*MODEL_SPACE
70
0
10
0.0
20
0.0
30
0.0
3
*MODEL_SPACE
1

0
ENDBLK
5
21
330
1F
100
AcDbEntity
8
0
100
AcDbBlockEnd
0
BLOCK
5
1C
330
1B
100
AcDbEntity
67
1
8
0
100
AcDbBlockBegin
2
*PAPER_SPACE
70
0
10
0.0
20
0.0
30
0.0
3
*PAPER_SPACE
1

0
ENDBLK
5
1D
330
1B
100
AcDbEntity
67
1
8
0
100
AcDbBlockEnd
0
BLOCK
5
1005
330
1004
100
AcDbEntity
8
S_NOVA_R_301
100
AcDbBlockBegin
2
QMODEL_ad87eaaa_6916_47e8_bd01_28f392ae0049
70
0
10
0.000000
20
0.000000
30
0.000000
3
QMODEL_ad87eaaa_6916_47e8_bd01_28f392ae0049
1

0
3DFACE
5
1006
330
1004
100
AcDbEntity
8
0
62
254
100
AcDbFace
10
17.750000
20
-502.500000
30
-248.000000
11
17.750000
21
501.500000
31
-248.000000
12
17.750000
22
501.500000
32
-252.500000
13
17.750000
23
-502.500000
33
-252.500000
70
1
0
3DFACE
5
1007
330
1004
100
AcDbEntity
8
0
62
254
100
AcDbFace
10
1.250000
20
-502.500000
30
-232.500000
11
1.250000
21
501.500000
31
-232.500000
12
17.750000
22
501.500000
32
-248.000000
13
17.750000
23
-502.500000
33
-248.000000
70
1
0
3DFACE
5
1008
330
1004
100
AcDbEntity
8
0
62
254
100
AcDbFace
10
-10.750000
20
-502.500000
30
-232.500000
11
-10.750000
21
501.500000
31
-232.500000
12
1.250000
22
501.500000
32
-232.500000
13
1.250000
23
-502.500000
33
-232.500000
70
1
0
3DFACE
5
1009
330
1004
100
AcDbEntity
8
0
62
254
100
AcDbFace
10
-10.750000
20
-502.500000
30
-233.500000
11
-10.750000
21
501.500000
31
-233.500000
12
-10.750000
22
501.500000
32
-232.500000
13
-10.750000
23
-502.500000
33
-232.500000
70
1
0
3DFACE
5
100a
330
1004
100
AcDbEntity
8
0
62
254
100
AcDbFace
10
1.250000
20
-502.500000
30
-233.500000
11
1.250000
21
501.500000
31
-233.500000
12
-10.750000
22
501.500000
32
-233.500000
13
-10.750000
23
-502.500000
33
-233.500000
70
1
0
3DFACE
5
100b
330
1004
100
AcDbEntity
8
0
62
254
100
AcDbFace
10
16.750000
20
-502.500000
30
-248.000000
11
16.750000
21
501.500000
31
-248.000000
12
1.250000
22
501.500000
32
-233.500000
13
1.250000
23
-502.500000
33
-233.500000
70
1
0
3DFACE
5
100c
330
1004
100
AcDbEntity
8
0
62
254
100
AcDbFace
10
16.750000
20
-502.500000
30
-252.500000
11
16.750000
21
501.500000
31
-252.500000
12
16.750000
22
501.500000
32
-248.000000
13
16.750000
23
-502.500000
33
-248.000000
70
1
0
3DFACE
5
100d
330
1004
100
AcDbEntity
8
0
62
254
100
AcDbFace
10
17.750000
20
-502.500000
30
-252.500000
11
17.750000
21
501.500000
31
-252.500000
12
16.750000
22
501.500000
32
-252.500000
13
16.750000
23
-502.500000
33
-252.500000
70
1
0
3DFACE
5
100e
330
1004
100
AcDbEntity
8
0
62
254
100
AcDbFace
10
16.750000
20
-502.500000
30
-252.500000
11
16.750000
21
-502.500000
31
-248.000000
12
17.750000
22
-502.500000
32
-248.000000
13
17.750000
23
-502.500000
33
-252.500000
70
15
0
3DFACE
5
100f
330
1004
100
AcDbEntity
8
0
62
254
100
AcDbFace
10
16.750000
20
-502.500000
30
-248.000000
11
1.250000
21
-502.500000
31
-233.500000
12
1.250000
22
-502.500000
32
-232.500000
13
17.750000
23
-502.500000
33
-248.000000
70
15
0
3DFACE
5
1010
330
1004
100
AcDbEntity
8
0
62
254
100
AcDbFace
10
1.250000
20
-502.500000
30
-233.500000
11
-10.750000
21
-502.500000
31
-233.500000
12
-10.750000
22
-502.500000
32
-232.500000
13
1.250000
23
-502.500000
33
-232.500000
70
15
0
3DFACE
5
1011
330
1004
100
AcDbEntity
8
0
62
254
100
AcDbFace
10
16.750000
20
501.500000
30
-252.500000
11
16.750000
21
501.500000
31
-248.000000
12
17.750000
22
501.500000
32
-248.000000
13
17.750000
23
501.500000
33
-252.500000
70
15
0
3DFACE
5
1012
330
1004
100
AcDbEntity
8
0
62
254
100
AcDbFace
10
16.750000
20
501.500000
30
-248.000000
11
1.250000
21
501.500000
31
-233.500000
12
1.250000
22
501.500000
32
-232.500000
13
17.750000
23
501.500000
33
-248.000000
70
15
0
3DFACE
5
1013
330
1004
100
AcDbEntity
8
0
62
254
100
AcDbFace
10
1.250000
20
501.500000
30
-233.500000
11
-10.750000
21
501.500000
31
-233.500000
12
-10.750000
22
501.500000
32
-232.500000
13
1.250000
23
501.500000
33
-232.500000
70
15
0
3DFACE
5
1014
330
1004
100
AcDbEntity
8
0
62
254
100
AcDbFace
10
17.750000
20
-502.500000
30
-227.791667
11
17.750000
21
501.500000
31
-227.791667
12
17.750000
22
501.500000
32
-232.291667
13
17.750000
23
-502.500000
33
-232.291667
70
1
0
3DFACE
5
1015
330
1004
100
AcDbEntity
8
0
62
254
100
AcDbFace
10
1.250000
20
-502.500000
30
-212.291667
11
1.250000
21
501.500000
31
-212.291667
12
17.750000
22
501.500000
32
-227.791667
13
17.750000
23
-502.500000
33
-227.791667
70
1
0
3DFACE
5
1016
330
1004
100
AcDbEntity
8
0
62
254
100
AcDbFace
10
-10.750000
20
-502.500000
30
-212.291667
11
-10.750000
21
501.500000
31
-212.291667
12
1.250000
22
501.500000
32
-212.291667
13
1.250000
23
-502.500000
33
-212.291667
70
1
0
3DFACE
5
1017
330
1004
100
AcDbEntity
8
0
62
254
100
AcDbFace
10
-10.750000
20
-502.500000
30
-213.291667
11
-10.750000
21
501.500000
31
-213.291667
12
-10.750000
22
501.500000
32
-212.291667
13
-10.750000
23
-502.500000
33
-212.291667
70
1
0
3DFACE
5
1018
330
1004
100
AcDbEntity
8
0
62
254
100
AcDbFace
10
1.250000
20
-502.500000
30
-213.291667
11
1.250000
21
501.500000
31
-213.291667
12
-10.750000
22
501.500000
32
-213.291667
13
-10.750000
23
-502.500000
33
-213.291667
70
1
0
3DFACE
5
1019
330
1004
100
AcDbEntity
8
0
62
254
100
AcDbFace
10
16.750000
20
-502.500000
30
-227.791667
11
16.750000
21
501.500000
31
-227.791667
12
1.250000
22
501.500000
32
-213.291667
13
1.250000
23
-502.500000
33
-213.291667
70
1
0
3DFACE
5
101a
330
1004
100
AcDbEntity
8
0
62
254
100
AcDbFace
10
16.750000
20
-502.500000
30
-232.291667
11
16.750000
21
501.500000
31
-232.291667
12
16.750000
22
501.500000
32
-227.791667
13
16.750000
23
-502.500000
33
-227.791667
70
1
0
3DFACE
5
101b
330
1004
100
AcDbEntity
8
0
62
254
100
AcDbFace
10
17.750000
20
-502.500000
30
-232.291667
11
17.750000
21
501.500000
31
-232.291667
12
16.750000
22
501.500000
32
-232.291667
13
16.750000
23
-502.500000
33
-232.291667
70
1
0
3DFACE
5
101c
330
1004
100
AcDbEntity
8
0
62
254
100
AcDbFace
10
16.750000
20
-502.500000
30
-232.291667
11
16.750000
21
-502.500000
31
-227.791667
12
17.750000
22
-502.500000
32
-227.791667
13
17.750000
23
-502.500000
33
-232.291667
70
15
0
3DFACE
5
101d
330
1004
100
AcDbEntity
8
0
62
254
100
AcDbFace
10
16.750000
20
-502.500000
30
-227.791667
11
1.250000
21
-502.500000
31
-213.291667
12
1.250000
22
-502.500000
32
-212.291667
13
17.750000
23
-502.500000
33
-227.791667
70
15
0
3DFACE
5
101e
330
1004
100
AcDbEntity
8
0
62
254
100
AcDbFace
10
1.250000
20
-502.500000
30
-213.291667
11
-10.750000
21
-502.500000
31
-213.291667
12
-10.750000
22
-502.500000
32
-212.291667
13
1.250000
23
-502.500000
33
-212.291667
70
15
0
3DFACE
5
101f
330
1004
100
AcDbEntity
8
0
62
254
100
AcDbFace
10
16.750000
20
501.500000
30
-232.291667
11
16.750000
21
501.500000
31
-227.791667
12
17.750000
22
501.500000
32
-227.791667
13
17.750000
23
501.500000
33
-232.291667
70
15
0
3DFACE
5
1020
330
1004
100
AcDbEntity
8
0
62
254
100
AcDbFace
10
16.750000
20
501.500000
30
-227.791667
11
1.250000
21
501.500000
31
-213.291667
12
1.250000
22
501.500000
32
-212.291667
13
17.750000
23
501.500000
33
-227.791667
70
15
0
3DFACE
5
1021
330
1004
100
AcDbEntity
8
0
62
254
100
AcDbFace
10
1.250000
20
501.500000
30
-213.291667
11
-10.750000
21
501.500000
31
-213.291667
12
-10.750000
22
501.500000
32
-212.291667
13
1.250000
23
501.500000
33
-212.291667
70
15
0
3DFACE
5
1022
330
1004
100
AcDbEntity
8
0
62
254
100
AcDbFace
10
17.750000
20
-502.500000
30
-207.583333
11
17.750000
21
501.500000
31
-207.583333
12
17.750000
22
501.500000
32
-212.083333
13
17.750000
23
-502.500000
33
-212.083333
70
1
0
3DFACE
5
1023
330
1004
100
AcDbEntity
8
0
62
254
100
AcDbFace
10
1.250000
20
-502.500000
30
-192.083333
11
1.250000
21
501.500000
31
-192.083333
12
17.750000
22
501.500000
32
-207.583333
13
17.750000
23
-502.500000
33
-207.583333
70
1
0
3DFACE
5
1024
330
1004
100
AcDbEntity
8
0
62
254
100
AcDbFace
10
-10.750000
20
-502.500000
30
-192.083333
11
-10.750000
21
501.500000
31
-192.083333
12
1.250000
22
501.500000
32
-192.083333
13
1.250000
23
-502.500000
33
-192.083333
70
1
0
3DFACE
5
1025
330
1004
100
AcDbEntity
8
0
62
254
100
AcDbFace
10
-10.750000
20
-502.500000
30
-193.083333
11
-10.750000
21
501.500000
31
-193.083333
12
-10.750000
22
501.500000
32
-192.083333
13
-10.750000
23
-502.500000
33
-192.083333
70
1
0
3DFACE
5
1026
330
1004
100
AcDbEntity
8
0
62
254
100
AcDbFace
10
1.250000
20
-502.500000
30
-193.083333
11
1.250000
21
501.500000
31
-193.083333
12
-10.750000
22
501.500000
32
-193.083333
13
-10.750000
23
-502.500000
33
-193.083333
70
1
0
3DFACE
5
1027
330
1004
100
AcDbEntity
8
0
62
254
100
AcDbFace
10
16.750000
20
-502.500000
30
-207.583333
11
16.750000
21
501.500000
31
-207.583333
12
1.250000
22
501.500000
32
-193.083333
13
1.250000
23
-502.500000
33
-193.083333
70
1
0
3DFACE
5
1028
330
1004
100
AcDbEntity
8
0
62
254
100
AcDbFace
10
16.750000
20
-502.500000
30
-212.083333
11
16.750000
21
501.500000
31
-212.083333
12
16.750000
22
501.500000
32
-207.583333
13
16.750000
23
-502.500000
33
-207.583333
70
1
0
3DFACE
5
1029
330
1004
100
AcDbEntity
8
0
62
254
100
AcDbFace
10
17.750000
20
-502.500000
30
-212.083333
11
17.750000
21
501.500000
31
-212.083333
12
16.750000
22
501.500000
32
-212.083333
13
16.750000
23
-502.500000
33
-212.083333
70
1
0
3DFACE
5
102a
330
1004
100
AcDbEntity
8
0
62
254
100
AcDbFace
10
16.750000
20
-502.500000
30
-212.083333
11
16.750000
21
-502.500000
31
-207.583333
12
17.750000
22
-502.500000
32
-207.583333
13
17.750000
23
-502.500000
33
-212.083333
70
15
0
3DFACE
5
102b
330
1004
100
AcDbEntity
8
0
62
254
100
AcDbFace
10
16.750000
20
-502.500000
30
-207.583333
11
1.250000
21
-502.500000
31
-193.083333
12
1.250000
22
-502.500000
32
-192.083333
13
17.750000
23
-502.500000
33
-207.583333
70
15
0
3DFACE
5
102c
330
1004
100
AcDbEntity
8
0
62
254
100
AcDbFace
10
1.250000
20
-502.500000
30
-193.083333
11
-10.750000
21
-502.500000
31
-193.083333
12
-10.750000
22
-502.500000
32
-192.083333
13
1.250000
23
-502.500000
33
-192.083333
70
15
0
3DFACE
5
102d
330
1004
100
AcDbEntity
8
0
62
254
100
AcDbFace
10
16.750000
20
501.500000
30
-212.083333
11
16.750000
21
501.500000
31
-207.583333
12
17.750000
22
501.500000
32
-207.583333
13
17.750000
23
501.500000
33
-212.083333
70
15
0
3DFACE
5
102e
330
1004
100
AcDbEntity
8
0
62
254
100
AcDbFace
10
16.750000
20
501.500000
30
-207.583333
11
1.250000
21
501.500000
31
-193.083333
12
1.250000
22
501.500000
32
-192.083333
13
17.750000
23
501.500000
33
-207.583333
70
15
0
3DFACE
5
102f
330
1004
100
AcDbEntity
8
0
62
254
100
AcDbFace
10
1.250000
20
501.500000
30
-193.083333
11
-10.750000
21
501.500000
31
-193.083333
12
-10.750000
22
501.500000
32
-192.083333
13
1.250000
23
501.500000
33
-192.083333
70
15
0
3DFACE
5
1030
330
1004
100
AcDbEntity
8
0
62
254
100
AcDbFace
10
17.750000
20
-502.500000
30
-187.375000
11
17.750000
21
501.500000
31
-187.375000
12
17.750000
22
501.500000
32
-191.875000
13
17.750000
23
-502.500000
33
-191.875000
70
1
0
3DFACE
5
1031
330
1004
100
AcDbEntity
8
0
62
254
100
AcDbFace
10
1.250000
20
-502.500000
30
-171.875000
11
1.250000
21
501.500000
31
-171.875000
12
17.750000
22
501.500000
32
-187.375000
13
17.750000
23
-502.500000
33
-187.375000
70
1
0
3DFACE
5
1032
330
1004
100
AcDbEntity
8
0
62
254
100
AcDbFace
10
-10.750000
20
-502.500000
30
-171.875000
11
-10.750000
21
501.500000
31
-171.875000
12
1.250000
22
501.500000
32
-171.875000
13
1.250000
23
-502.500000
33
-171.875000
70
1
0
3DFACE
5
1033
330
1004
100
AcDbEntity
8
0
62
254
100
AcDbFace
10
-10.750000
20
-502.500000
30
-172.875000
11
-10.750000
21
501.500000
31
-172.875000
12
-10.750000
22
501.500000
32
-171.875000
13
-10.750000
23
-502.500000
33
-171.875000
70
1
0
3DFACE
5
1034
330
1004
100
AcDbEntity
8
0
62
254
100
AcDbFace
10
1.250000
20
-502.500000
30
-172.875000
11
1.250000
21
501.500000
31
-172.875000
12
-10.750000
22
501.500000
32
-172.875000
13
-10.750000
23
-502.500000
33
-172.875000
70
1
0
3DFACE
5
1035
330
1004
100
AcDbEntity
8
0
62
254
100
AcDbFace
10
16.750000
20
-502.500000
30
-187.375000
11
16.750000
21
501.500000
31
-187.375000
12
1.250000
22
501.500000
32
-172.875000
13
1.250000
23
-502.500000
33
-172.875000
70
1
0
3DFACE
5
1036
330
1004
100
AcDbEntity
8
0
62
254
100
AcDbFace
10
16.750000
20
-502.500000
30
-191.875000
11
16.750000
21
501.500000
31
-191.875000
12
16.750000
22
501.500000
32
-187.375000
13
16.750000
23
-502.500000
33
-187.375000
70
1
0
3DFACE
5
1037
330
1004
100
AcDbEntity
8
0
62
254
100
AcDbFace
10
17.750000
20
-502.500000
30
-191.875000
11
17.750000
21
501.500000
31
-191.875000
12
16.750000
22
501.500000
32
-191.875000
13
16.750000
23
-502.500000
33
-191.875000
70
1
0
3DFACE
5
1038
330
1004
100
AcDbEntity
8
0
62
254
100
AcDbFace
10
16.750000
20
-502.500000
30
-191.875000
11
16.750000
21
-502.500000
31
-187.375000
12
17.750000
22
-502.500000
32
-187.375000
13
17.750000
23
-502.500000
33
-191.875000
70
15
0
3DFACE
5
1039
330
1004
100
AcDbEntity
8
0
62
254
100
AcDbFace
10
16.750000
20
-502.500000
30
-187.375000
11
1.250000
21
-502.500000
31
-172.875000
12
1.250000
22
-502.500000
32
-171.875000
13
17.750000
23
-502.500000
33
-187.375000
70
15
0
3DFACE
5
103a
330
1004
100
AcDbEntity
8
0
62
254
100
AcDbFace
10
1.250000
20
-502.500000
30
-172.875000
11
-10.750000
21
-502.500000
31
-172.875000
12
-10.750000
22
-502.500000
32
-171.875000
13
1.250000
23
-502.500000
33
-171.875000
70
15
0
3DFACE
5
103b
330
1004
100
AcDbEntity
8
0
62
254
100
AcDbFace
10
16.750000
20
501.500000
30
-191.875000
11
16.750000
21
501.500000
31
-187.375000
12
17.750000
22
501.500000
32
-187.375000
13
17.750000
23
501.500000
33
-191.875000
70
15
0
3DFACE
5
103c
330
1004
100
AcDbEntity
8
0
62
254
100
AcDbFace
10
16.750000
20
501.500000
30
-187.375000
11
1.250000
21
501.500000
31
-172.875000
12
1.250000
22
501.500000
32
-171.875000
13
17.750000
23
501.500000
33
-187.375000
70
15
0
3DFACE
5
103d
330
1004
100
AcDbEntity
8
0
62
254
100
AcDbFace
10
1.250000
20
501.500000
30
-172.875000
11
-10.750000
21
501.500000
31
-172.875000
12
-10.750000
22
501.500000
32
-171.875000
13
1.250000
23
501.500000
33
-171.875000
70
15
0
3DFACE
5
103e
330
1004
100
AcDbEntity
8
0
62
254
100
AcDbFace
10
17.750000
20
-502.500000
30
-167.166667
11
17.750000
21
501.500000
31
-167.166667
12
17.750000
22
501.500000
32
-171.666667
13
17.750000
23
-502.500000
33
-171.666667
70
1
0
3DFACE
5
103f
330
1004
100
AcDbEntity
8
0
62
254
100
AcDbFace
10
1.250000
20
-502.500000
30
-151.666667
11
1.250000
21
501.500000
31
-151.666667
12
17.750000
22
501.500000
32
-167.166667
13
17.750000
23
-502.500000
33
-167.166667
70
1
0
3DFACE
5
1040
330
1004
100
AcDbEntity
8
0
62
254
100
AcDbFace
10
-10.750000
20
-502.500000
30
-151.666667
11
-10.750000
21
501.500000
31
-151.666667
12
1.250000
22
501.500000
32
-151.666667
13
1.250000
23
-502.500000
33
-151.666667
70
1
0
3DFACE
5
1041
330
1004
100
AcDbEntity
8
0
62
254
100
AcDbFace
10
-10.750000
20
-502.500000
30
-152.666667
11
-10.750000
21
501.500000
31
-152.666667
12
-10.750000
22
501.500000
32
-151.666667
13
-10.750000
23
-502.500000
33
-151.666667
70
1
0
3DFACE
5
1042
330
1004
100
AcDbEntity
8
0
62
254
100
AcDbFace
10
1.250000
20
-502.500000
30
-152.666667
11
1.250000
21
501.500000
31
-152.666667
12
-10.750000
22
501.500000
32
-152.666667
13
-10.750000
23
-502.500000
33
-152.666667
70
1
0
3DFACE
5
1043
330
1004
100
AcDbEntity
8
0
62
254
100
AcDbFace
10
16.750000
20
-502.500000
30
-167.166667
11
16.750000
21
501.500000
31
-167.166667
12
1.250000
22
501.500000
32
-152.666667
13
1.250000
23
-502.500000
33
-152.666667
70
1
0
3DFACE
5
1044
330
1004
100
AcDbEntity
8
0
62
254
100
AcDbFace
10
16.750000
20
-502.500000
30
-171.666667
11
16.750000
21
501.500000
31
-171.666667
12
16.750000
22
501.500000
32
-167.166667
13
16.750000
23
-502.500000
33
-167.166667
70
1
0
3DFACE
5
1045
330
1004
100
AcDbEntity
8
0
62
254
100
AcDbFace
10
17.750000
20
-502.500000
30
-171.666667
11
17.750000
21
501.500000
31
-171.666667
12
16.750000
22
501.500000
32
-171.666667
13
16.750000
23
-502.500000
33
-171.666667
70
1
0
3DFACE
5
1046
330
1004
100
AcDbEntity
8
0
62
254
100
AcDbFace
10
16.750000
20
-502.500000
30
-171.666667
11
16.750000
21
-502.500000
31
-167.166667
12
17.750000
22
-502.500000
32
-167.166667
13
17.750000
23
-502.500000
33
-171.666667
70
15
0
3DFACE
5
1047
330
1004
100
AcDbEntity
8
0
62
254
100
AcDbFace
10
16.750000
20
-502.500000
30
-167.166667
11
1.250000
21
-502.500000
31
-152.666667
12
1.250000
22
-502.500000
32
-151.666667
13
17.750000
23
-502.500000
33
-167.166667
70
15
0
3DFACE
5
1048
330
1004
100
AcDbEntity
8
0
62
254
100
AcDbFace
10
1.250000
20
-502.500000
30
-152.666667
11
-10.750000
21
-502.500000
31
-152.666667
12
-10.750000
22
-502.500000
32
-151.666667
13
1.250000
23
-502.500000
33
-151.666667
70
15
0
3DFACE
5
1049
330
1004
100
AcDbEntity
8
0
62
254
100
AcDbFace
10
16.750000
20
501.500000
30
-171.666667
11
16.750000
21
501.500000
31
-167.166667
12
17.750000
22
501.500000
32
-167.166667
13
17.750000
23
501.500000
33
-171.666667
70
15
0
3DFACE
5
104a
330
1004
100
AcDbEntity
8
0
62
254
100
AcDbFace
10
16.750000
20
501.500000
30
-167.166667
11
1.250000
21
501.500000
31
-152.666667
12
1.250000
22
501.500000
32
-151.666667
13
17.750000
23
501.500000
33
-167.166667
70
15
0
3DFACE
5
104b
330
1004
100
AcDbEntity
8
0
62
254
100
AcDbFace
10
1.250000
20
501.500000
30
-152.666667
11
-10.750000
21
501.500000
31
-152.666667
12
-10.750000
22
501.500000
32
-151.666667
13
1.250000
23
501.500000
33
-151.666667
70
15
0
3DFACE
5
104c
330
1004
100
AcDbEntity
8
0
62
254
100
AcDbFace
10
17.750000
20
-502.500000
30
-146.958333
11
17.750000
21
501.500000
31
-146.958333
12
17.750000
22
501.500000
32
-151.458333
13
17.750000
23
-502.500000
33
-151.458333
70
1
0
3DFACE
5
104d
330
1004
100
AcDbEntity
8
0
62
254
100
AcDbFace
10
1.250000
20
-502.500000
30
-131.458333
11
1.250000
21
501.500000
31
-131.458333
12
17.750000
22
501.500000
32
-146.958333
13
17.750000
23
-502.500000
33
-146.958333
70
1
0
3DFACE
5
104e
330
1004
100
AcDbEntity
8
0
62
254
100
AcDbFace
10
-10.750000
20
-502.500000
30
-131.458333
11
-10.750000
21
501.500000
31
-131.458333
12
1.250000
22
501.500000
32
-131.458333
13
1.250000
23
-502.500000
33
-131.458333
70
1
0
3DFACE
5
104f
330
1004
100
AcDbEntity
8
0
62
254
100
AcDbFace
10
-10.750000
20
-502.500000
30
-132.458333
11
-10.750000
21
501.500000
31
-132.458333
12
-10.750000
22
501.500000
32
-131.458333
13
-10.750000
23
-502.500000
33
-131.458333
70
1
0
3DFACE
5
1050
330
1004
100
AcDbEntity
8
0
62
254
100
AcDbFace
10
1.250000
20
-502.500000
30
-132.458333
11
1.250000
21
501.500000
31
-132.458333
12
-10.750000
22
501.500000
32
-132.458333
13
-10.750000
23
-502.500000
33
-132.458333
70
1
0
3DFACE
5
1051
330
1004
100
AcDbEntity
8
0
62
254
100
AcDbFace
10
16.750000
20
-502.500000
30
-146.958333
11
16.750000
21
501.500000
31
-146.958333
12
1.250000
22
501.500000
32
-132.458333
13
1.250000
23
-502.500000
33
-132.458333
70
1
0
3DFACE
5
1052
330
1004
100
AcDbEntity
8
0
62
254
100
AcDbFace
10
16.750000
20
-502.500000
30
-151.458333
11
16.750000
21
501.500000
31
-151.458333
12
16.750000
22
501.500000
32
-146.958333
13
16.750000
23
-502.500000
33
-146.958333
70
1
0
3DFACE
5
1053
330
1004
100
AcDbEntity
8
0
62
254
100
AcDbFace
10
17.750000
20
-502.500000
30
-151.458333
11
17.750000
21
501.500000
31
-151.458333
12
16.750000
22
501.500000
32
-151.458333
13
16.750000
23
-502.500000
33
-151.458333
70
1
0
3DFACE
5
1054
330
1004
100
AcDbEntity
8
0
62
254
100
AcDbFace
10
16.750000
20
-502.500000
30
-151.458333
11
16.750000
21
-502.500000
31
-146.958333
12
17.750000
22
-502.500000
32
-146.958333
13
17.750000
23
-502.500000
33
-151.458333
70
15
0
3DFACE
5
1055
330
1004
100
AcDbEntity
8
0
62
254
100
AcDbFace
10
16.750000
20
-502.500000
30
-146.958333
11
1.250000
21
-502.500000
31
-132.458333
12
1.250000
22
-502.500000
32
-131.458333
13
17.750000
23
-502.500000
33
-146.958333
70
15
0
3DFACE
5
1056
330
1004
100
AcDbEntity
8
0
62
254
100
AcDbFace
10
1.250000
20
-502.500000
30
-132.458333
11
-10.750000
21
-502.500000
31
-132.458333
12
-10.750000
22
-502.500000
32
-131.458333
13
1.250000
23
-502.500000
33
-131.458333
70
15
0
3DFACE
5
1057
330
1004
100
AcDbEntity
8
0
62
254
100
AcDbFace
10
16.750000
20
501.500000
30
-151.458333
11
16.750000
21
501.500000
31
-146.958333
12
17.750000
22
501.500000
32
-146.958333
13
17.750000
23
501.500000
33
-151.458333
70
15
0
3DFACE
5
1058
330
1004
100
AcDbEntity
8
0
62
254
100
AcDbFace
10
16.750000
20
501.500000
30
-146.958333
11
1.250000
21
501.500000
31
-132.458333
12
1.250000
22
501.500000
32
-131.458333
13
17.750000
23
501.500000
33
-146.958333
70
15
0
3DFACE
5
1059
330
1004
100
AcDbEntity
8
0
62
254
100
AcDbFace
10
1.250000
20
501.500000
30
-132.458333
11
-10.750000
21
501.500000
31
-132.458333
12
-10.750000
22
501.500000
32
-131.458333
13
1.250000
23
501.500000
33
-131.458333
70
15
0
3DFACE
5
105a
330
1004
100
AcDbEntity
8
0
62
254
100
AcDbFace
10
17.750000
20
-502.500000
30
-126.750000
11
17.750000
21
501.500000
31
-126.750000
12
17.750000
22
501.500000
32
-131.250000
13
17.750000
23
-502.500000
33
-131.250000
70
1
0
3DFACE
5
105b
330
1004
100
AcDbEntity
8
0
62
254
100
AcDbFace
10
1.250000
20
-502.500000
30
-111.250000
11
1.250000
21
501.500000
31
-111.250000
12
17.750000
22
501.500000
32
-126.750000
13
17.750000
23
-502.500000
33
-126.750000
70
1
0
3DFACE
5
105c
330
1004
100
AcDbEntity
8
0
62
254
100
AcDbFace
10
-10.750000
20
-502.500000
30
-111.250000
11
-10.750000
21
501.500000
31
-111.250000
12
1.250000
22
501.500000
32
-111.250000
13
1.250000
23
-502.500000
33
-111.250000
70
1
0
3DFACE
5
105d
330
1004
100
AcDbEntity
8
0
62
254
100
AcDbFace
10
-10.750000
20
-502.500000
30
-112.250000
11
-10.750000
21
501.500000
31
-112.250000
12
-10.750000
22
501.500000
32
-111.250000
13
-10.750000
23
-502.500000
33
-111.250000
70
1
0
3DFACE
5
105e
330
1004
100
AcDbEntity
8
0
62
254
100
AcDbFace
10
1.250000
20
-502.500000
30
-112.250000
11
1.250000
21
501.500000
31
-112.250000
12
-10.750000
22
501.500000
32
-112.250000
13
-10.750000
23
-502.500000
33
-112.250000
70
1
0
3DFACE
5
105f
330
1004
100
AcDbEntity
8
0
62
254
100
AcDbFace
10
16.750000
20
-502.500000
30
-126.750000
11
16.750000
21
501.500000
31
-126.750000
12
1.250000
22
501.500000
32
-112.250000
13
1.250000
23
-502.500000
33
-112.250000
70
1
0
3DFACE
5
1060
330
1004
100
AcDbEntity
8
0
62
254
100
AcDbFace
10
16.750000
20
-502.500000
30
-131.250000
11
16.750000
21
501.500000
31
-131.250000
12
16.750000
22
501.500000
32
-126.750000
13
16.750000
23
-502.500000
33
-126.750000
70
1
0
3DFACE
5
1061
330
1004
100
AcDbEntity
8
0
62
254
100
AcDbFace
10
17.750000
20
-502.500000
30
-131.250000
11
17.750000
21
501.500000
31
-131.250000
12
16.750000
22
501.500000
32
-131.250000
13
16.750000
23
-502.500000
33
-131.250000
70
1
0
3DFACE
5
1062
330
1004
100
AcDbEntity
8
0
62
254
100
AcDbFace
10
16.750000
20
-502.500000
30
-131.250000
11
16.750000
21
-502.500000
31
-126.750000
12
17.750000
22
-502.500000
32
-126.750000
13
17.750000
23
-502.500000
33
-131.250000
70
15
0
3DFACE
5
1063
330
1004
100
AcDbEntity
8
0
62
254
100
AcDbFace
10
16.750000
20
-502.500000
30
-126.750000
11
1.250000
21
-502.500000
31
-112.250000
12
1.250000
22
-502.500000
32
-111.250000
13
17.750000
23
-502.500000
33
-126.750000
70
15
0
3DFACE
5
1064
330
1004
100
AcDbEntity
8
0
62
254
100
AcDbFace
10
1.250000
20
-502.500000
30
-112.250000
11
-10.750000
21
-502.500000
31
-112.250000
12
-10.750000
22
-502.500000
32
-111.250000
13
1.250000
23
-502.500000
33
-111.250000
70
15
0
3DFACE
5
1065
330
1004
100
AcDbEntity
8
0
62
254
100
AcDbFace
10
16.750000
20
501.500000
30
-131.250000
11
16.750000
21
501.500000
31
-126.750000
12
17.750000
22
501.500000
32
-126.750000
13
17.750000
23
501.500000
33
-131.250000
70
15
0
3DFACE
5
1066
330
1004
100
AcDbEntity
8
0
62
254
100
AcDbFace
10
16.750000
20
501.500000
30
-126.750000
11
1.250000
21
501.500000
31
-112.250000
12
1.250000
22
501.500000
32
-111.250000
13
17.750000
23
501.500000
33
-126.750000
70
15
0
3DFACE
5
1067
330
1004
100
AcDbEntity
8
0
62
254
100
AcDbFace
10
1.250000
20
501.500000
30
-112.250000
11
-10.750000
21
501.500000
31
-112.250000
12
-10.750000
22
501.500000
32
-111.250000
13
1.250000
23
501.500000
33
-111.250000
70
15
0
3DFACE
5
1068
330
1004
100
AcDbEntity
8
0
62
254
100
AcDbFace
10
17.750000
20
-502.500000
30
-106.541667
11
17.750000
21
501.500000
31
-106.541667
12
17.750000
22
501.500000
32
-111.041667
13
17.750000
23
-502.500000
33
-111.041667
70
1
0
3DFACE
5
1069
330
1004
100
AcDbEntity
8
0
62
254
100
AcDbFace
10
1.250000
20
-502.500000
30
-91.041667
11
1.250000
21
501.500000
31
-91.041667
12
17.750000
22
501.500000
32
-106.541667
13
17.750000
23
-502.500000
33
-106.541667
70
1
0
3DFACE
5
106a
330
1004
100
AcDbEntity
8
0
62
254
100
AcDbFace
10
-10.750000
20
-502.500000
30
-91.041667
11
-10.750000
21
501.500000
31
-91.041667
12
1.250000
22
501.500000
32
-91.041667
13
1.250000
23
-502.500000
33
-91.041667
70
1
0
3DFACE
5
106b
330
1004
100
AcDbEntity
8
0
62
254
100
AcDbFace
10
-10.750000
20
-502.500000
30
-92.041667
11
-10.750000
21
501.500000
31
-92.041667
12
-10.750000
22
501.500000
32
-91.041667
13
-10.750000
23
-502.500000
33
-91.041667
70
1
0
3DFACE
5
106c
330
1004
100
AcDbEntity
8
0
62
254
100
AcDbFace
10
1.250000
20
-502.500000
30
-92.041667
11
1.250000
21
501.500000
31
-92.041667
12
-10.750000
22
501.500000
32
-92.041667
13
-10.750000
23
-502.500000
33
-92.041667
70
1
0
3DFACE
5
106d
330
1004
100
AcDbEntity
8
0
62
254
100
AcDbFace
10
16.750000
20
-502.500000
30
-106.541667
11
16.750000
21
501.500000
31
-106.541667
12
1.250000
22
501.500000
32
-92.041667
13
1.250000
23
-502.500000
33
-92.041667
70
1
0
3DFACE
5
106e
330
1004
100
AcDbEntity
8
0
62
254
100
AcDbFace
10
16.750000
20
-502.500000
30
-111.041667
11
16.750000
21
501.500000
31
-111.041667
12
16.750000
22
501.500000
32
-106.541667
13
16.750000
23
-502.500000
33
-106.541667
70
1
0
3DFACE
5
106f
330
1004
100
AcDbEntity
8
0
62
254
100
AcDbFace
10
17.750000
20
-502.500000
30
-111.041667
11
17.750000
21
501.500000
31
-111.041667
12
16.750000
22
501.500000
32
-111.041667
13
16.750000
23
-502.500000
33
-111.041667
70
1
0
3DFACE
5
1070
330
1004
100
AcDbEntity
8
0
62
254
100
AcDbFace
10
16.750000
20
-502.500000
30
-111.041667
11
16.750000
21
-502.500000
31
-106.541667
12
17.750000
22
-502.500000
32
-106.541667
13
17.750000
23
-502.500000
33
-111.041667
70
15
0
3DFACE
5
1071
330
1004
100
AcDbEntity
8
0
62
254
100
AcDbFace
10
16.750000
20
-502.500000
30
-106.541667
11
1.250000
21
-502.500000
31
-92.041667
12
1.250000
22
-502.500000
32
-91.041667
13
17.750000
23
-502.500000
33
-106.541667
70
15
0
3DFACE
5
1072
330
1004
100
AcDbEntity
8
0
62
254
100
AcDbFace
10
1.250000
20
-502.500000
30
-92.041667
11
-10.750000
21
-502.500000
31
-92.041667
12
-10.750000
22
-502.500000
32
-91.041667
13
1.250000
23
-502.500000
33
-91.041667
70
15
0
3DFACE
5
1073
330
1004
100
AcDbEntity
8
0
62
254
100
AcDbFace
10
16.750000
20
501.500000
30
-111.041667
11
16.750000
21
501.500000
31
-106.541667
12
17.750000
22
501.500000
32
-106.541667
13
17.750000
23
501.500000
33
-111.041667
70
15
0
3DFACE
5
1074
330
1004
100
AcDbEntity
8
0
62
254
100
AcDbFace
10
16.750000
20
501.500000
30
-106.541667
11
1.250000
21
501.500000
31
-92.041667
12
1.250000
22
501.500000
32
-91.041667
13
17.750000
23
501.500000
33
-106.541667
70
15
0
3DFACE
5
1075
330
1004
100
AcDbEntity
8
0
62
254
100
AcDbFace
10
1.250000
20
501.500000
30
-92.041667
11
-10.750000
21
501.500000
31
-92.041667
12
-10.750000
22
501.500000
32
-91.041667
13
1.250000
23
501.500000
33
-91.041667
70
15
0
3DFACE
5
1076
330
1004
100
AcDbEntity
8
0
62
254
100
AcDbFace
10
17.750000
20
-502.500000
30
-86.333333
11
17.750000
21
501.500000
31
-86.333333
12
17.750000
22
501.500000
32
-90.833333
13
17.750000
23
-502.500000
33
-90.833333
70
1
0
3DFACE
5
1077
330
1004
100
AcDbEntity
8
0
62
254
100
AcDbFace
10
1.250000
20
-502.500000
30
-70.833333
11
1.250000
21
501.500000
31
-70.833333
12
17.750000
22
501.500000
32
-86.333333
13
17.750000
23
-502.500000
33
-86.333333
70
1
0
3DFACE
5
1078
330
1004
100
AcDbEntity
8
0
62
254
100
AcDbFace
10
-10.750000
20
-502.500000
30
-70.833333
11
-10.750000
21
501.500000
31
-70.833333
12
1.250000
22
501.500000
32
-70.833333
13
1.250000
23
-502.500000
33
-70.833333
70
1
0
3DFACE
5
1079
330
1004
100
AcDbEntity
8
0
62
254
100
AcDbFace
10
-10.750000
20
-502.500000
30
-71.833333
11
-10.750000
21
501.500000
31
-71.833333
12
-10.750000
22
501.500000
32
-70.833333
13
-10.750000
23
-502.500000
33
-70.833333
70
1
0
3DFACE
5
107a
330
1004
100
AcDbEntity
8
0
62
254
100
AcDbFace
10
1.250000
20
-502.500000
30
-71.833333
11
1.250000
21
501.500000
31
-71.833333
12
-10.750000
22
501.500000
32
-71.833333
13
-10.750000
23
-502.500000
33
-71.833333
70
1
0
3DFACE
5
107b
330
1004
100
AcDbEntity
8
0
62
254
100
AcDbFace
10
16.750000
20
-502.500000
30
-86.333333
11
16.750000
21
501.500000
31
-86.333333
12
1.250000
22
501.500000
32
-71.833333
13
1.250000
23
-502.500000
33
-71.833333
70
1
0
3DFACE
5
107c
330
1004
100
AcDbEntity
8
0
62
254
100
AcDbFace
10
16.750000
20
-502.500000
30
-90.833333
11
16.750000
21
501.500000
31
-90.833333
12
16.750000
22
501.500000
32
-86.333333
13
16.750000
23
-502.500000
33
-86.333333
70
1
0
3DFACE
5
107d
330
1004
100
AcDbEntity
8
0
62
254
100
AcDbFace
10
17.750000
20
-502.500000
30
-90.833333
11
17.750000
21
501.500000
31
-90.833333
12
16.750000
22
501.500000
32
-90.833333
13
16.750000
23
-502.500000
33
-90.833333
70
1
0
3DFACE
5
107e
330
1004
100
AcDbEntity
8
0
62
254
100
AcDbFace
10
16.750000
20
-502.500000
30
-90.833333
11
16.750000
21
-502.500000
31
-86.333333
12
17.750000
22
-502.500000
32
-86.333333
13
17.750000
23
-502.500000
33
-90.833333
70
15
0
3DFACE
5
107f
330
1004
100
AcDbEntity
8
0
62
254
100
AcDbFace
10
16.750000
20
-502.500000
30
-86.333333
11
1.250000
21
-502.500000
31
-71.833333
12
1.250000
22
-502.500000
32
-70.833333
13
17.750000
23
-502.500000
33
-86.333333
70
15
0
3DFACE
5
1080
330
1004
100
AcDbEntity
8
0
62
254
100
AcDbFace
10
1.250000
20
-502.500000
30
-71.833333
11
-10.750000
21
-502.500000
31
-71.833333
12
-10.750000
22
-502.500000
32
-70.833333
13
1.250000
23
-502.500000
33
-70.833333
70
15
0
3DFACE
5
1081
330
1004
100
AcDbEntity
8
0
62
254
100
AcDbFace
10
16.750000
20
501.500000
30
-90.833333
11
16.750000
21
501.500000
31
-86.333333
12
17.750000
22
501.500000
32
-86.333333
13
17.750000
23
501.500000
33
-90.833333
70
15
0
3DFACE
5
1082
330
1004
100
AcDbEntity
8
0
62
254
100
AcDbFace
10
16.750000
20
501.500000
30
-86.333333
11
1.250000
21
501.500000
31
-71.833333
12
1.250000
22
501.500000
32
-70.833333
13
17.750000
23
501.500000
33
-86.333333
70
15
0
3DFACE
5
1083
330
1004
100
AcDbEntity
8
0
62
254
100
AcDbFace
10
1.250000
20
501.500000
30
-71.833333
11
-10.750000
21
501.500000
31
-71.833333
12
-10.750000
22
501.500000
32
-70.833333
13
1.250000
23
501.500000
33
-70.833333
70
15
0
3DFACE
5
1084
330
1004
100
AcDbEntity
8
0
62
254
100
AcDbFace
10
17.750000
20
-502.500000
30
-66.125000
11
17.750000
21
501.500000
31
-66.125000
12
17.750000
22
501.500000
32
-70.625000
13
17.750000
23
-502.500000
33
-70.625000
70
1
0
3DFACE
5
1085
330
1004
100
AcDbEntity
8
0
62
254
100
AcDbFace
10
1.250000
20
-502.500000
30
-50.625000
11
1.250000
21
501.500000
31
-50.625000
12
17.750000
22
501.500000
32
-66.125000
13
17.750000
23
-502.500000
33
-66.125000
70
1
0
3DFACE
5
1086
330
1004
100
AcDbEntity
8
0
62
254
100
AcDbFace
10
-10.750000
20
-502.500000
30
-50.625000
11
-10.750000
21
501.500000
31
-50.625000
12
1.250000
22
501.500000
32
-50.625000
13
1.250000
23
-502.500000
33
-50.625000
70
1
0
3DFACE
5
1087
330
1004
100
AcDbEntity
8
0
62
254
100
AcDbFace
10
-10.750000
20
-502.500000
30
-51.625000
11
-10.750000
21
501.500000
31
-51.625000
12
-10.750000
22
501.500000
32
-50.625000
13
-10.750000
23
-502.500000
33
-50.625000
70
1
0
3DFACE
5
1088
330
1004
100
AcDbEntity
8
0
62
254
100
AcDbFace
10
1.250000
20
-502.500000
30
-51.625000
11
1.250000
21
501.500000
31
-51.625000
12
-10.750000
22
501.500000
32
-51.625000
13
-10.750000
23
-502.500000
33
-51.625000
70
1
0
3DFACE
5
1089
330
1004
100
AcDbEntity
8
0
62
254
100
AcDbFace
10
16.750000
20
-502.500000
30
-66.125000
11
16.750000
21
501.500000
31
-66.125000
12
1.250000
22
501.500000
32
-51.625000
13
1.250000
23
-502.500000
33
-51.625000
70
1
0
3DFACE
5
108a
330
1004
100
AcDbEntity
8
0
62
254
100
AcDbFace
10
16.750000
20
-502.500000
30
-70.625000
11
16.750000
21
501.500000
31
-70.625000
12
16.750000
22
501.500000
32
-66.125000
13
16.750000
23
-502.500000
33
-66.125000
70
1
0
3DFACE
5
108b
330
1004
100
AcDbEntity
8
0
62
254
100
AcDbFace
10
17.750000
20
-502.500000
30
-70.625000
11
17.750000
21
501.500000
31
-70.625000
12
16.750000
22
501.500000
32
-70.625000
13
16.750000
23
-502.500000
33
-70.625000
70
1
0
3DFACE
5
108c
330
1004
100
AcDbEntity
8
0
62
254
100
AcDbFace
10
16.750000
20
-502.500000
30
-70.625000
11
16.750000
21
-502.500000
31
-66.125000
12
17.750000
22
-502.500000
32
-66.125000
13
17.750000
23
-502.500000
33
-70.625000
70
15
0
3DFACE
5
108d
330
1004
100
AcDbEntity
8
0
62
254
100
AcDbFace
10
16.750000
20
-502.500000
30
-66.125000
11
1.250000
21
-502.500000
31
-51.625000
12
1.250000
22
-502.500000
32
-50.625000
13
17.750000
23
-502.500000
33
-66.125000
70
15
0
3DFACE
5
108e
330
1004
100
AcDbEntity
8
0
62
254
100
AcDbFace
10
1.250000
20
-502.500000
30
-51.625000
11
-10.750000
21
-502.500000
31
-51.625000
12
-10.750000
22
-502.500000
32
-50.625000
13
1.250000
23
-502.500000
33
-50.625000
70
15
0
3DFACE
5
108f
330
1004
100
AcDbEntity
8
0
62
254
100
AcDbFace
10
16.750000
20
501.500000
30
-70.625000
11
16.750000
21
501.500000
31
-66.125000
12
17.750000
22
501.500000
32
-66.125000
13
17.750000
23
501.500000
33
-70.625000
70
15
0
3DFACE
5
1090
330
1004
100
AcDbEntity
8
0
62
254
100
AcDbFace
10
16.750000
20
501.500000
30
-66.125000
11
1.250000
21
501.500000
31
-51.625000
12
1.250000
22
501.500000
32
-50.625000
13
17.750000
23
501.500000
33
-66.125000
70
15
0
3DFACE
5
1091
330
1004
100
AcDbEntity
8
0
62
254
100
AcDbFace
10
1.250000
20
501.500000
30
-51.625000
11
-10.750000
21
501.500000
31
-51.625000
12
-10.750000
22
501.500000
32
-50.625000
13
1.250000
23
501.500000
33
-50.625000
70
15
0
3DFACE
5
1092
330
1004
100
AcDbEntity
8
0
62
254
100
AcDbFace
10
17.750000
20
-502.500000
30
-45.916667
11
17.750000
21
501.500000
31
-45.916667
12
17.750000
22
501.500000
32
-50.416667
13
17.750000
23
-502.500000
33
-50.416667
70
1
0
3DFACE
5
1093
330
1004
100
AcDbEntity
8
0
62
254
100
AcDbFace
10
1.250000
20
-502.500000
30
-30.416667
11
1.250000
21
501.500000
31
-30.416667
12
17.750000
22
501.500000
32
-45.916667
13
17.750000
23
-502.500000
33
-45.916667
70
1
0
3DFACE
5
1094
330
1004
100
AcDbEntity
8
0
62
254
100
AcDbFace
10
-10.750000
20
-502.500000
30
-30.416667
11
-10.750000
21
501.500000
31
-30.416667
12
1.250000
22
501.500000
32
-30.416667
13
1.250000
23
-502.500000
33
-30.416667
70
1
0
3DFACE
5
1095
330
1004
100
AcDbEntity
8
0
62
254
100
AcDbFace
10
-10.750000
20
-502.500000
30
-31.416667
11
-10.750000
21
501.500000
31
-31.416667
12
-10.750000
22
501.500000
32
-30.416667
13
-10.750000
23
-502.500000
33
-30.416667
70
1
0
3DFACE
5
1096
330
1004
100
AcDbEntity
8
0
62
254
100
AcDbFace
10
1.250000
20
-502.500000
30
-31.416667
11
1.250000
21
501.500000
31
-31.416667
12
-10.750000
22
501.500000
32
-31.416667
13
-10.750000
23
-502.500000
33
-31.416667
70
1
0
3DFACE
5
1097
330
1004
100
AcDbEntity
8
0
62
254
100
AcDbFace
10
16.750000
20
-502.500000
30
-45.916667
11
16.750000
21
501.500000
31
-45.916667
12
1.250000
22
501.500000
32
-31.416667
13
1.250000
23
-502.500000
33
-31.416667
70
1
0
3DFACE
5
1098
330
1004
100
AcDbEntity
8
0
62
254
100
AcDbFace
10
16.750000
20
-502.500000
30
-50.416667
11
16.750000
21
501.500000
31
-50.416667
12
16.750000
22
501.500000
32
-45.916667
13
16.750000
23
-502.500000
33
-45.916667
70
1
0
3DFACE
5
1099
330
1004
100
AcDbEntity
8
0
62
254
100
AcDbFace
10
17.750000
20
-502.500000
30
-50.416667
11
17.750000
21
501.500000
31
-50.416667
12
16.750000
22
501.500000
32
-50.416667
13
16.750000
23
-502.500000
33
-50.416667
70
1
0
3DFACE
5
109a
330
1004
100
AcDbEntity
8
0
62
254
100
AcDbFace
10
16.750000
20
-502.500000
30
-50.416667
11
16.750000
21
-502.500000
31
-45.916667
12
17.750000
22
-502.500000
32
-45.916667
13
17.750000
23
-502.500000
33
-50.416667
70
15
0
3DFACE
5
109b
330
1004
100
AcDbEntity
8
0
62
254
100
AcDbFace
10
16.750000
20
-502.500000
30
-45.916667
11
1.250000
21
-502.500000
31
-31.416667
12
1.250000
22
-502.500000
32
-30.416667
13
17.750000
23
-502.500000
33
-45.916667
70
15
0
3DFACE
5
109c
330
1004
100
AcDbEntity
8
0
62
254
100
AcDbFace
10
1.250000
20
-502.500000
30
-31.416667
11
-10.750000
21
-502.500000
31
-31.416667
12
-10.750000
22
-502.500000
32
-30.416667
13
1.250000
23
-502.500000
33
-30.416667
70
15
0
3DFACE
5
109d
330
1004
100
AcDbEntity
8
0
62
254
100
AcDbFace
10
16.750000
20
501.500000
30
-50.416667
11
16.750000
21
501.500000
31
-45.916667
12
17.750000
22
501.500000
32
-45.916667
13
17.750000
23
501.500000
33
-50.416667
70
15
0
3DFACE
5
109e
330
1004
100
AcDbEntity
8
0
62
254
100
AcDbFace
10
16.750000
20
501.500000
30
-45.916667
11
1.250000
21
501.500000
31
-31.416667
12
1.250000
22
501.500000
32
-30.416667
13
17.750000
23
501.500000
33
-45.916667
70
15
0
3DFACE
5
109f
330
1004
100
AcDbEntity
8
0
62
254
100
AcDbFace
10
1.250000
20
501.500000
30
-31.416667
11
-10.750000
21
501.500000
31
-31.416667
12
-10.750000
22
501.500000
32
-30.416667
13
1.250000
23
501.500000
33
-30.416667
70
15
0
3DFACE
5
10a0
330
1004
100
AcDbEntity
8
0
62
254
100
AcDbFace
10
17.750000
20
-502.500000
30
-25.708333
11
17.750000
21
501.500000
31
-25.708333
12
17.750000
22
501.500000
32
-30.208333
13
17.750000
23
-502.500000
33
-30.208333
70
1
0
3DFACE
5
10a1
330
1004
100
AcDbEntity
8
0
62
254
100
AcDbFace
10
1.250000
20
-502.500000
30
-10.208333
11
1.250000
21
501.500000
31
-10.208333
12
17.750000
22
501.500000
32
-25.708333
13
17.750000
23
-502.500000
33
-25.708333
70
1
0
3DFACE
5
10a2
330
1004
100
AcDbEntity
8
0
62
254
100
AcDbFace
10
-10.750000
20
-502.500000
30
-10.208333
11
-10.750000
21
501.500000
31
-10.208333
12
1.250000
22
501.500000
32
-10.208333
13
1.250000
23
-502.500000
33
-10.208333
70
1
0
3DFACE
5
10a3
330
1004
100
AcDbEntity
8
0
62
254
100
AcDbFace
10
-10.750000
20
-502.500000
30
-11.208333
11
-10.750000
21
501.500000
31
-11.208333
12
-10.750000
22
501.500000
32
-10.208333
13
-10.750000
23
-502.500000
33
-10.208333
70
1
0
3DFACE
5
10a4
330
1004
100
AcDbEntity
8
0
62
254
100
AcDbFace
10
1.250000
20
-502.500000
30
-11.208333
11
1.250000
21
501.500000
31
-11.208333
12
-10.750000
22
501.500000
32
-11.208333
13
-10.750000
23
-502.500000
33
-11.208333
70
1
0
3DFACE
5
10a5
330
1004
100
AcDbEntity
8
0
62
254
100
AcDbFace
10
16.750000
20
-502.500000
30
-25.708333
11
16.750000
21
501.500000
31
-25.708333
12
1.250000
22
501.500000
32
-11.208333
13
1.250000
23
-502.500000
33
-11.208333
70
1
0
3DFACE
5
10a6
330
1004
100
AcDbEntity
8
0
62
254
100
AcDbFace
10
16.750000
20
-502.500000
30
-30.208333
11
16.750000
21
501.500000
31
-30.208333
12
16.750000
22
501.500000
32
-25.708333
13
16.750000
23
-502.500000
33
-25.708333
70
1
0
3DFACE
5
10a7
330
1004
100
AcDbEntity
8
0
62
254
100
AcDbFace
10
17.750000
20
-502.500000
30
-30.208333
11
17.750000
21
501.500000
31
-30.208333
12
16.750000
22
501.500000
32
-30.208333
13
16.750000
23
-502.500000
33
-30.208333
70
1
0
3DFACE
5
10a8
330
1004
100
AcDbEntity
8
0
62
254
100
AcDbFace
10
16.750000
20
-502.500000
30
-30.208333
11
16.750000
21
-502.500000
31
-25.708333
12
17.750000
22
-502.500000
32
-25.708333
13
17.750000
23
-502.500000
33
-30.208333
70
15
0
3DFACE
5
10a9
330
1004
100
AcDbEntity
8
0
62
254
100
AcDbFace
10
16.750000
20
-502.500000
30
-25.708333
11
1.250000
21
-502.500000
31
-11.208333
12
1.250000
22
-502.500000
32
-10.208333
13
17.750000
23
-502.500000
33
-25.708333
70
15
0
3DFACE
5
10aa
330
1004
100
AcDbEntity
8
0
62
254
100
AcDbFace
10
1.250000
20
-502.500000
30
-11.208333
11
-10.750000
21
-502.500000
31
-11.208333
12
-10.750000
22
-502.500000
32
-10.208333
13
1.250000
23
-502.500000
33
-10.208333
70
15
0
3DFACE
5
10ab
330
1004
100
AcDbEntity
8
0
62
254
100
AcDbFace
10
16.750000
20
501.500000
30
-30.208333
11
16.750000
21
501.500000
31
-25.708333
12
17.750000
22
501.500000
32
-25.708333
13
17.750000
23
501.500000
33
-30.208333
70
15
0
3DFACE
5
10ac
330
1004
100
AcDbEntity
8
0
62
254
100
AcDbFace
10
16.750000
20
501.500000
30
-25.708333
11
1.250000
21
501.500000
31
-11.208333
12
1.250000
22
501.500000
32
-10.208333
13
17.750000
23
501.500000
33
-25.708333
70
15
0
3DFACE
5
10ad
330
1004
100
AcDbEntity
8
0
62
254
100
AcDbFace
10
1.250000
20
501.500000
30
-11.208333
11
-10.750000
21
501.500000
31
-11.208333
12
-10.750000
22
501.500000
32
-10.208333
13
1.250000
23
501.500000
33
-10.208333
70
15
0
3DFACE
5
10ae
330
1004
100
AcDbEntity
8
0
62
254
100
AcDbFace
10
17.750000
20
-502.500000
30
-5.500000
11
17.750000
21
501.500000
31
-5.500000
12
17.750000
22
501.500000
32
-10.000000
13
17.750000
23
-502.500000
33
-10.000000
70
1
0
3DFACE
5
10af
330
1004
100
AcDbEntity
8
0
62
254
100
AcDbFace
10
1.250000
20
-502.500000
30
10.000000
11
1.250000
21
501.500000
31
10.000000
12
17.750000
22
501.500000
32
-5.500000
13
17.750000
23
-502.500000
33
-5.500000
70
1
0
3DFACE
5
10b0
330
1004
100
AcDbEntity
8
0
62
254
100
AcDbFace
10
-10.750000
20
-502.500000
30
10.000000
11
-10.750000
21
501.500000
31
10.000000
12
1.250000
22
501.500000
32
10.000000
13
1.250000
23
-502.500000
33
10.000000
70
1
0
3DFACE
5
10b1
330
1004
100
AcDbEntity
8
0
62
254
100
AcDbFace
10
-10.750000
20
-502.500000
30
9.000000
11
-10.750000
21
501.500000
31
9.000000
12
-10.750000
22
501.500000
32
10.000000
13
-10.750000
23
-502.500000
33
10.000000
70
1
0
3DFACE
5
10b2
330
1004
100
AcDbEntity
8
0
62
254
100
AcDbFace
10
1.250000
20
-502.500000
30
9.000000
11
1.250000
21
501.500000
31
9.000000
12
-10.750000
22
501.500000
32
9.000000
13
-10.750000
23
-502.500000
33
9.000000
70
1
0
3DFACE
5
10b3
330
1004
100
AcDbEntity
8
0
62
254
100
AcDbFace
10
16.750000
20
-502.500000
30
-5.500000
11
16.750000
21
501.500000
31
-5.500000
12
1.250000
22
501.500000
32
9.000000
13
1.250000
23
-502.500000
33
9.000000
70
1
0
3DFACE
5
10b4
330
1004
100
AcDbEntity
8
0
62
254
100
AcDbFace
10
16.750000
20
-502.500000
30
-10.000000
11
16.750000
21
501.500000
31
-10.000000
12
16.750000
22
501.500000
32
-5.500000
13
16.750000
23
-502.500000
33
-5.500000
70
1
0
3DFACE
5
10b5
330
1004
100
AcDbEntity
8
0
62
254
100
AcDbFace
10
17.750000
20
-502.500000
30
-10.000000
11
17.750000
21
501.500000
31
-10.000000
12
16.750000
22
501.500000
32
-10.000000
13
16.750000
23
-502.500000
33
-10.000000
70
1
0
3DFACE
5
10b6
330
1004
100
AcDbEntity
8
0
62
254
100
AcDbFace
10
16.750000
20
-502.500000
30
-10.000000
11
16.750000
21
-502.500000
31
-5.500000
12
17.750000
22
-502.500000
32
-5.500000
13
17.750000
23
-502.500000
33
-10.000000
70
15
0
3DFACE
5
10b7
330
1004
100
AcDbEntity
8
0
62
254
100
AcDbFace
10
16.750000
20
-502.500000
30
-5.500000
11
1.250000
21
-502.500000
31
9.000000
12
1.250000
22
-502.500000
32
10.000000
13
17.750000
23
-502.500000
33
-5.500000
70
15
0
3DFACE
5
10b8
330
1004
100
AcDbEntity
8
0
62
254
100
AcDbFace
10
1.250000
20
-502.500000
30
9.000000
11
-10.750000
21
-502.500000
31
9.000000
12
-10.750000
22
-502.500000
32
10.000000
13
1.250000
23
-502.500000
33
10.000000
70
15
0
3DFACE
5
10b9
330
1004
100
AcDbEntity
8
0
62
254
100
AcDbFace
10
16.750000
20
501.500000
30
-10.000000
11
16.750000
21
501.500000
31
-5.500000
12
17.750000
22
501.500000
32
-5.500000
13
17.750000
23
501.500000
33
-10.000000
70
15
0
3DFACE
5
10ba
330
1004
100
AcDbEntity
8
0
62
254
100
AcDbFace
10
16.750000
20
501.500000
30
-5.500000
11
1.250000
21
501.500000
31
9.000000
12
1.250000
22
501.500000
32
10.000000
13
17.750000
23
501.500000
33
-5.500000
70
15
0
3DFACE
5
10bb
330
1004
100
AcDbEntity
8
0
62
254
100
AcDbFace
10
1.250000
20
501.500000
30
9.000000
11
-10.750000
21
501.500000
31
9.000000
12
-10.750000
22
501.500000
32
10.000000
13
1.250000
23
501.500000
33
10.000000
70
15
0
3DFACE
5
10bc
330
1004
100
AcDbEntity
8
0
62
254
100
AcDbFace
10
17.750000
20
-502.500000
30
14.708333
11
17.750000
21
501.500000
31
14.708333
12
17.750000
22
501.500000
32
10.208333
13
17.750000
23
-502.500000
33
10.208333
70
1
0
3DFACE
5
10bd
330
1004
100
AcDbEntity
8
0
62
254
100
AcDbFace
10
1.250000
20
-502.500000
30
30.208333
11
1.250000
21
501.500000
31
30.208333
12
17.750000
22
501.500000
32
14.708333
13
17.750000
23
-502.500000
33
14.708333
70
1
0
3DFACE
5
10be
330
1004
100
AcDbEntity
8
0
62
254
100
AcDbFace
10
-10.750000
20
-502.500000
30
30.208333
11
-10.750000
21
501.500000
31
30.208333
12
1.250000
22
501.500000
32
30.208333
13
1.250000
23
-502.500000
33
30.208333
70
1
0
3DFACE
5
10bf
330
1004
100
AcDbEntity
8
0
62
254
100
AcDbFace
10
-10.750000
20
-502.500000
30
29.208333
11
-10.750000
21
501.500000
31
29.208333
12
-10.750000
22
501.500000
32
30.208333
13
-10.750000
23
-502.500000
33
30.208333
70
1
0
3DFACE
5
10c0
330
1004
100
AcDbEntity
8
0
62
254
100
AcDbFace
10
1.250000
20
-502.500000
30
29.208333
11
1.250000
21
501.500000
31
29.208333
12
-10.750000
22
501.500000
32
29.208333
13
-10.750000
23
-502.500000
33
29.208333
70
1
0
3DFACE
5
10c1
330
1004
100
AcDbEntity
8
0
62
254
100
AcDbFace
10
16.750000
20
-502.500000
30
14.708333
11
16.750000
21
501.500000
31
14.708333
12
1.250000
22
501.500000
32
29.208333
13
1.250000
23
-502.500000
33
29.208333
70
1
0
3DFACE
5
10c2
330
1004
100
AcDbEntity
8
0
62
254
100
AcDbFace
10
16.750000
20
-502.500000
30
10.208333
11
16.750000
21
501.500000
31
10.208333
12
16.750000
22
501.500000
32
14.708333
13
16.750000
23
-502.500000
33
14.708333
70
1
0
3DFACE
5
10c3
330
1004
100
AcDbEntity
8
0
62
254
100
AcDbFace
10
17.750000
20
-502.500000
30
10.208333
11
17.750000
21
501.500000
31
10.208333
12
16.750000
22
501.500000
32
10.208333
13
16.750000
23
-502.500000
33
10.208333
70
1
0
3DFACE
5
10c4
330
1004
100
AcDbEntity
8
0
62
254
100
AcDbFace
10
16.750000
20
-502.500000
30
10.208333
11
16.750000
21
-502.500000
31
14.708333
12
17.750000
22
-502.500000
32
14.708333
13
17.750000
23
-502.500000
33
10.208333
70
15
0
3DFACE
5
10c5
330
1004
100
AcDbEntity
8
0
62
254
100
AcDbFace
10
16.750000
20
-502.500000
30
14.708333
11
1.250000
21
-502.500000
31
29.208333
12
1.250000
22
-502.500000
32
30.208333
13
17.750000
23
-502.500000
33
14.708333
70
15
0
3DFACE
5
10c6
330
1004
100
AcDbEntity
8
0
62
254
100
AcDbFace
10
1.250000
20
-502.500000
30
29.208333
11
-10.750000
21
-502.500000
31
29.208333
12
-10.750000
22
-502.500000
32
30.208333
13
1.250000
23
-502.500000
33
30.208333
70
15
0
3DFACE
5
10c7
330
1004
100
AcDbEntity
8
0
62
254
100
AcDbFace
10
16.750000
20
501.500000
30
10.208333
11
16.750000
21
501.500000
31
14.708333
12
17.750000
22
501.500000
32
14.708333
13
17.750000
23
501.500000
33
10.208333
70
15
0
3DFACE
5
10c8
330
1004
100
AcDbEntity
8
0
62
254
100
AcDbFace
10
16.750000
20
501.500000
30
14.708333
11
1.250000
21
501.500000
31
29.208333
12
1.250000
22
501.500000
32
30.208333
13
17.750000
23
501.500000
33
14.708333
70
15
0
3DFACE
5
10c9
330
1004
100
AcDbEntity
8
0
62
254
100
AcDbFace
10
1.250000
20
501.500000
30
29.208333
11
-10.750000
21
501.500000
31
29.208333
12
-10.750000
22
501.500000
32
30.208333
13
1.250000
23
501.500000
33
30.208333
70
15
0
3DFACE
5
10ca
330
1004
100
AcDbEntity
8
0
62
254
100
AcDbFace
10
17.750000
20
-502.500000
30
34.916667
11
17.750000
21
501.500000
31
34.916667
12
17.750000
22
501.500000
32
30.416667
13
17.750000
23
-502.500000
33
30.416667
70
1
0
3DFACE
5
10cb
330
1004
100
AcDbEntity
8
0
62
254
100
AcDbFace
10
1.250000
20
-502.500000
30
50.416667
11
1.250000
21
501.500000
31
50.416667
12
17.750000
22
501.500000
32
34.916667
13
17.750000
23
-502.500000
33
34.916667
70
1
0
3DFACE
5
10cc
330
1004
100
AcDbEntity
8
0
62
254
100
AcDbFace
10
-10.750000
20
-502.500000
30
50.416667
11
-10.750000
21
501.500000
31
50.416667
12
1.250000
22
501.500000
32
50.416667
13
1.250000
23
-502.500000
33
50.416667
70
1
0
3DFACE
5
10cd
330
1004
100
AcDbEntity
8
0
62
254
100
AcDbFace
10
-10.750000
20
-502.500000
30
49.416667
11
-10.750000
21
501.500000
31
49.416667
12
-10.750000
22
501.500000
32
50.416667
13
-10.750000
23
-502.500000
33
50.416667
70
1
0
3DFACE
5
10ce
330
1004
100
AcDbEntity
8
0
62
254
100
AcDbFace
10
1.250000
20
-502.500000
30
49.416667
11
1.250000
21
501.500000
31
49.416667
12
-10.750000
22
501.500000
32
49.416667
13
-10.750000
23
-502.500000
33
49.416667
70
1
0
3DFACE
5
10cf
330
1004
100
AcDbEntity
8
0
62
254
100
AcDbFace
10
16.750000
20
-502.500000
30
34.916667
11
16.750000
21
501.500000
31
34.916667
12
1.250000
22
501.500000
32
49.416667
13
1.250000
23
-502.500000
33
49.416667
70
1
0
3DFACE
5
10d0
330
1004
100
AcDbEntity
8
0
62
254
100
AcDbFace
10
16.750000
20
-502.500000
30
30.416667
11
16.750000
21
501.500000
31
30.416667
12
16.750000
22
501.500000
32
34.916667
13
16.750000
23
-502.500000
33
34.916667
70
1
0
3DFACE
5
10d1
330
1004
100
AcDbEntity
8
0
62
254
100
AcDbFace
10
17.750000
20
-502.500000
30
30.416667
11
17.750000
21
501.500000
31
30.416667
12
16.750000
22
501.500000
32
30.416667
13
16.750000
23
-502.500000
33
30.416667
70
1
0
3DFACE
5
10d2
330
1004
100
AcDbEntity
8
0
62
254
100
AcDbFace
10
16.750000
20
-502.500000
30
30.416667
11
16.750000
21
-502.500000
31
34.916667
12
17.750000
22
-502.500000
32
34.916667
13
17.750000
23
-502.500000
33
30.416667
70
15
0
3DFACE
5
10d3
330
1004
100
AcDbEntity
8
0
62
254
100
AcDbFace
10
16.750000
20
-502.500000
30
34.916667
11
1.250000
21
-502.500000
31
49.416667
12
1.250000
22
-502.500000
32
50.416667
13
17.750000
23
-502.500000
33
34.916667
70
15
0
3DFACE
5
10d4
330
1004
100
AcDbEntity
8
0
62
254
100
AcDbFace
10
1.250000
20
-502.500000
30
49.416667
11
-10.750000
21
-502.500000
31
49.416667
12
-10.750000
22
-502.500000
32
50.416667
13
1.250000
23
-502.500000
33
50.416667
70
15
0
3DFACE
5
10d5
330
1004
100
AcDbEntity
8
0
62
254
100
AcDbFace
10
16.750000
20
501.500000
30
30.416667
11
16.750000
21
501.500000
31
34.916667
12
17.750000
22
501.500000
32
34.916667
13
17.750000
23
501.500000
33
30.416667
70
15
0
3DFACE
5
10d6
330
1004
100
AcDbEntity
8
0
62
254
100
AcDbFace
10
16.750000
20
501.500000
30
34.916667
11
1.250000
21
501.500000
31
49.416667
12
1.250000
22
501.500000
32
50.416667
13
17.750000
23
501.500000
33
34.916667
70
15
0
3DFACE
5
10d7
330
1004
100
AcDbEntity
8
0
62
254
100
AcDbFace
10
1.250000
20
501.500000
30
49.416667
11
-10.750000
21
501.500000
31
49.416667
12
-10.750000
22
501.500000
32
50.416667
13
1.250000
23
501.500000
33
50.416667
70
15
0
3DFACE
5
10d8
330
1004
100
AcDbEntity
8
0
62
254
100
AcDbFace
10
17.750000
20
-502.500000
30
55.125000
11
17.750000
21
501.500000
31
55.125000
12
17.750000
22
501.500000
32
50.625000
13
17.750000
23
-502.500000
33
50.625000
70
1
0
3DFACE
5
10d9
330
1004
100
AcDbEntity
8
0
62
254
100
AcDbFace
10
1.250000
20
-502.500000
30
70.625000
11
1.250000
21
501.500000
31
70.625000
12
17.750000
22
501.500000
32
55.125000
13
17.750000
23
-502.500000
33
55.125000
70
1
0
3DFACE
5
10da
330
1004
100
AcDbEntity
8
0
62
254
100
AcDbFace
10
-10.750000
20
-502.500000
30
70.625000
11
-10.750000
21
501.500000
31
70.625000
12
1.250000
22
501.500000
32
70.625000
13
1.250000
23
-502.500000
33
70.625000
70
1
0
3DFACE
5
10db
330
1004
100
AcDbEntity
8
0
62
254
100
AcDbFace
10
-10.750000
20
-502.500000
30
69.625000
11
-10.750000
21
501.500000
31
69.625000
12
-10.750000
22
501.500000
32
70.625000
13
-10.750000
23
-502.500000
33
70.625000
70
1
0
3DFACE
5
10dc
330
1004
100
AcDbEntity
8
0
62
254
100
AcDbFace
10
1.250000
20
-502.500000
30
69.625000
11
1.250000
21
501.500000
31
69.625000
12
-10.750000
22
501.500000
32
69.625000
13
-10.750000
23
-502.500000
33
69.625000
70
1
0
3DFACE
5
10dd
330
1004
100
AcDbEntity
8
0
62
254
100
AcDbFace
10
16.750000
20
-502.500000
30
55.125000
11
16.750000
21
501.500000
31
55.125000
12
1.250000
22
501.500000
32
69.625000
13
1.250000
23
-502.500000
33
69.625000
70
1
0
3DFACE
5
10de
330
1004
100
AcDbEntity
8
0
62
254
100
AcDbFace
10
16.750000
20
-502.500000
30
50.625000
11
16.750000
21
501.500000
31
50.625000
12
16.750000
22
501.500000
32
55.125000
13
16.750000
23
-502.500000
33
55.125000
70
1
0
3DFACE
5
10df
330
1004
100
AcDbEntity
8
0
62
254
100
AcDbFace
10
17.750000
20
-502.500000
30
50.625000
11
17.750000
21
501.500000
31
50.625000
12
16.750000
22
501.500000
32
50.625000
13
16.750000
23
-502.500000
33
50.625000
70
1
0
3DFACE
5
10e0
330
1004
100
AcDbEntity
8
0
62
254
100
AcDbFace
10
16.750000
20
-502.500000
30
50.625000
11
16.750000
21
-502.500000
31
55.125000
12
17.750000
22
-502.500000
32
55.125000
13
17.750000
23
-502.500000
33
50.625000
70
15
0
3DFACE
5
10e1
330
1004
100
AcDbEntity
8
0
62
254
100
AcDbFace
10
16.750000
20
-502.500000
30
55.125000
11
1.250000
21
-502.500000
31
69.625000
12
1.250000
22
-502.500000
32
70.625000
13
17.750000
23
-502.500000
33
55.125000
70
15
0
3DFACE
5
10e2
330
1004
100
AcDbEntity
8
0
62
254
100
AcDbFace
10
1.250000
20
-502.500000
30
69.625000
11
-10.750000
21
-502.500000
31
69.625000
12
-10.750000
22
-502.500000
32
70.625000
13
1.250000
23
-502.500000
33
70.625000
70
15
0
3DFACE
5
10e3
330
1004
100
AcDbEntity
8
0
62
254
100
AcDbFace
10
16.750000
20
501.500000
30
50.625000
11
16.750000
21
501.500000
31
55.125000
12
17.750000
22
501.500000
32
55.125000
13
17.750000
23
501.500000
33
50.625000
70
15
0
3DFACE
5
10e4
330
1004
100
AcDbEntity
8
0
62
254
100
AcDbFace
10
16.750000
20
501.500000
30
55.125000
11
1.250000
21
501.500000
31
69.625000
12
1.250000
22
501.500000
32
70.625000
13
17.750000
23
501.500000
33
55.125000
70
15
0
3DFACE
5
10e5
330
1004
100
AcDbEntity
8
0
62
254
100
AcDbFace
10
1.250000
20
501.500000
30
69.625000
11
-10.750000
21
501.500000
31
69.625000
12
-10.750000
22
501.500000
32
70.625000
13
1.250000
23
501.500000
33
70.625000
70
15
0
3DFACE
5
10e6
330
1004
100
AcDbEntity
8
0
62
254
100
AcDbFace
10
17.750000
20
-502.500000
30
75.333333
11
17.750000
21
501.500000
31
75.333333
12
17.750000
22
501.500000
32
70.833333
13
17.750000
23
-502.500000
33
70.833333
70
1
0
3DFACE
5
10e7
330
1004
100
AcDbEntity
8
0
62
254
100
AcDbFace
10
1.250000
20
-502.500000
30
90.833333
11
1.250000
21
501.500000
31
90.833333
12
17.750000
22
501.500000
32
75.333333
13
17.750000
23
-502.500000
33
75.333333
70
1
0
3DFACE
5
10e8
330
1004
100
AcDbEntity
8
0
62
254
100
AcDbFace
10
-10.750000
20
-502.500000
30
90.833333
11
-10.750000
21
501.500000
31
90.833333
12
1.250000
22
501.500000
32
90.833333
13
1.250000
23
-502.500000
33
90.833333
70
1
0
3DFACE
5
10e9
330
1004
100
AcDbEntity
8
0
62
254
100
AcDbFace
10
-10.750000
20
-502.500000
30
89.833333
11
-10.750000
21
501.500000
31
89.833333
12
-10.750000
22
501.500000
32
90.833333
13
-10.750000
23
-502.500000
33
90.833333
70
1
0
3DFACE
5
10ea
330
1004
100
AcDbEntity
8
0
62
254
100
AcDbFace
10
1.250000
20
-502.500000
30
89.833333
11
1.250000
21
501.500000
31
89.833333
12
-10.750000
22
501.500000
32
89.833333
13
-10.750000
23
-502.500000
33
89.833333
70
1
0
3DFACE
5
10eb
330
1004
100
AcDbEntity
8
0
62
254
100
AcDbFace
10
16.750000
20
-502.500000
30
75.333333
11
16.750000
21
501.500000
31
75.333333
12
1.250000
22
501.500000
32
89.833333
13
1.250000
23
-502.500000
33
89.833333
70
1
0
3DFACE
5
10ec
330
1004
100
AcDbEntity
8
0
62
254
100
AcDbFace
10
16.750000
20
-502.500000
30
70.833333
11
16.750000
21
501.500000
31
70.833333
12
16.750000
22
501.500000
32
75.333333
13
16.750000
23
-502.500000
33
75.333333
70
1
0
3DFACE
5
10ed
330
1004
100
AcDbEntity
8
0
62
254
100
AcDbFace
10
17.750000
20
-502.500000
30
70.833333
11
17.750000
21
501.500000
31
70.833333
12
16.750000
22
501.500000
32
70.833333
13
16.750000
23
-502.500000
33
70.833333
70
1
0
3DFACE
5
10ee
330
1004
100
AcDbEntity
8
0
62
254
100
AcDbFace
10
16.750000
20
-502.500000
30
70.833333
11
16.750000
21
-502.500000
31
75.333333
12
17.750000
22
-502.500000
32
75.333333
13
17.750000
23
-502.500000
33
70.833333
70
15
0
3DFACE
5
10ef
330
1004
100
AcDbEntity
8
0
62
254
100
AcDbFace
10
16.750000
20
-502.500000
30
75.333333
11
1.250000
21
-502.500000
31
89.833333
12
1.250000
22
-502.500000
32
90.833333
13
17.750000
23
-502.500000
33
75.333333
70
15
0
3DFACE
5
10f0
330
1004
100
AcDbEntity
8
0
62
254
100
AcDbFace
10
1.250000
20
-502.500000
30
89.833333
11
-10.750000
21
-502.500000
31
89.833333
12
-10.750000
22
-502.500000
32
90.833333
13
1.250000
23
-502.500000
33
90.833333
70
15
0
3DFACE
5
10f1
330
1004
100
AcDbEntity
8
0
62
254
100
AcDbFace
10
16.750000
20
501.500000
30
70.833333
11
16.750000
21
501.500000
31
75.333333
12
17.750000
22
501.500000
32
75.333333
13
17.750000
23
501.500000
33
70.833333
70
15
0
3DFACE
5
10f2
330
1004
100
AcDbEntity
8
0
62
254
100
AcDbFace
10
16.750000
20
501.500000
30
75.333333
11
1.250000
21
501.500000
31
89.833333
12
1.250000
22
501.500000
32
90.833333
13
17.750000
23
501.500000
33
75.333333
70
15
0
3DFACE
5
10f3
330
1004
100
AcDbEntity
8
0
62
254
100
AcDbFace
10
1.250000
20
501.500000
30
89.833333
11
-10.750000
21
501.500000
31
89.833333
12
-10.750000
22
501.500000
32
90.833333
13
1.250000
23
501.500000
33
90.833333
70
15
0
3DFACE
5
10f4
330
1004
100
AcDbEntity
8
0
62
254
100
AcDbFace
10
17.750000
20
-502.500000
30
95.541667
11
17.750000
21
501.500000
31
95.541667
12
17.750000
22
501.500000
32
91.041667
13
17.750000
23
-502.500000
33
91.041667
70
1
0
3DFACE
5
10f5
330
1004
100
AcDbEntity
8
0
62
254
100
AcDbFace
10
1.250000
20
-502.500000
30
111.041667
11
1.250000
21
501.500000
31
111.041667
12
17.750000
22
501.500000
32
95.541667
13
17.750000
23
-502.500000
33
95.541667
70
1
0
3DFACE
5
10f6
330
1004
100
AcDbEntity
8
0
62
254
100
AcDbFace
10
-10.750000
20
-502.500000
30
111.041667
11
-10.750000
21
501.500000
31
111.041667
12
1.250000
22
501.500000
32
111.041667
13
1.250000
23
-502.500000
33
111.041667
70
1
0
3DFACE
5
10f7
330
1004
100
AcDbEntity
8
0
62
254
100
AcDbFace
10
-10.750000
20
-502.500000
30
110.041667
11
-10.750000
21
501.500000
31
110.041667
12
-10.750000
22
501.500000
32
111.041667
13
-10.750000
23
-502.500000
33
111.041667
70
1
0
3DFACE
5
10f8
330
1004
100
AcDbEntity
8
0
62
254
100
AcDbFace
10
1.250000
20
-502.500000
30
110.041667
11
1.250000
21
501.500000
31
110.041667
12
-10.750000
22
501.500000
32
110.041667
13
-10.750000
23
-502.500000
33
110.041667
70
1
0
3DFACE
5
10f9
330
1004
100
AcDbEntity
8
0
62
254
100
AcDbFace
10
16.750000
20
-502.500000
30
95.541667
11
16.750000
21
501.500000
31
95.541667
12
1.250000
22
501.500000
32
110.041667
13
1.250000
23
-502.500000
33
110.041667
70
1
0
3DFACE
5
10fa
330
1004
100
AcDbEntity
8
0
62
254
100
AcDbFace
10
16.750000
20
-502.500000
30
91.041667
11
16.750000
21
501.500000
31
91.041667
12
16.750000
22
501.500000
32
95.541667
13
16.750000
23
-502.500000
33
95.541667
70
1
0
3DFACE
5
10fb
330
1004
100
AcDbEntity
8
0
62
254
100
AcDbFace
10
17.750000
20
-502.500000
30
91.041667
11
17.750000
21
501.500000
31
91.041667
12
16.750000
22
501.500000
32
91.041667
13
16.750000
23
-502.500000
33
91.041667
70
1
0
3DFACE
5
10fc
330
1004
100
AcDbEntity
8
0
62
254
100
AcDbFace
10
16.750000
20
-502.500000
30
91.041667
11
16.750000
21
-502.500000
31
95.541667
12
17.750000
22
-502.500000
32
95.541667
13
17.750000
23
-502.500000
33
91.041667
70
15
0
3DFACE
5
10fd
330
1004
100
AcDbEntity
8
0
62
254
100
AcDbFace
10
16.750000
20
-502.500000
30
95.541667
11
1.250000
21
-502.500000
31
110.041667
12
1.250000
22
-502.500000
32
111.041667
13
17.750000
23
-502.500000
33
95.541667
70
15
0
3DFACE
5
10fe
330
1004
100
AcDbEntity
8
0
62
254
100
AcDbFace
10
1.250000
20
-502.500000
30
110.041667
11
-10.750000
21
-502.500000
31
110.041667
12
-10.750000
22
-502.500000
32
111.041667
13
1.250000
23
-502.500000
33
111.041667
70
15
0
3DFACE
5
10ff
330
1004
100
AcDbEntity
8
0
62
254
100
AcDbFace
10
16.750000
20
501.500000
30
91.041667
11
16.750000
21
501.500000
31
95.541667
12
17.750000
22
501.500000
32
95.541667
13
17.750000
23
501.500000
33
91.041667
70
15
0
3DFACE
5
1100
330
1004
100
AcDbEntity
8
0
62
254
100
AcDbFace
10
16.750000
20
501.500000
30
95.541667
11
1.250000
21
501.500000
31
110.041667
12
1.250000
22
501.500000
32
111.041667
13
17.750000
23
501.500000
33
95.541667
70
15
0
3DFACE
5
1101
330
1004
100
AcDbEntity
8
0
62
254
100
AcDbFace
10
1.250000
20
501.500000
30
110.041667
11
-10.750000
21
501.500000
31
110.041667
12
-10.750000
22
501.500000
32
111.041667
13
1.250000
23
501.500000
33
111.041667
70
15
0
3DFACE
5
1102
330
1004
100
AcDbEntity
8
0
62
254
100
AcDbFace
10
17.750000
20
-502.500000
30
115.750000
11
17.750000
21
501.500000
31
115.750000
12
17.750000
22
501.500000
32
111.250000
13
17.750000
23
-502.500000
33
111.250000
70
1
0
3DFACE
5
1103
330
1004
100
AcDbEntity
8
0
62
254
100
AcDbFace
10
1.250000
20
-502.500000
30
131.250000
11
1.250000
21
501.500000
31
131.250000
12
17.750000
22
501.500000
32
115.750000
13
17.750000
23
-502.500000
33
115.750000
70
1
0
3DFACE
5
1104
330
1004
100
AcDbEntity
8
0
62
254
100
AcDbFace
10
-10.750000
20
-502.500000
30
131.250000
11
-10.750000
21
501.500000
31
131.250000
12
1.250000
22
501.500000
32
131.250000
13
1.250000
23
-502.500000
33
131.250000
70
1
0
3DFACE
5
1105
330
1004
100
AcDbEntity
8
0
62
254
100
AcDbFace
10
-10.750000
20
-502.500000
30
130.250000
11
-10.750000
21
501.500000
31
130.250000
12
-10.750000
22
501.500000
32
131.250000
13
-10.750000
23
-502.500000
33
131.250000
70
1
0
3DFACE
5
1106
330
1004
100
AcDbEntity
8
0
62
254
100
AcDbFace
10
1.250000
20
-502.500000
30
130.250000
11
1.250000
21
501.500000
31
130.250000
12
-10.750000
22
501.500000
32
130.250000
13
-10.750000
23
-502.500000
33
130.250000
70
1
0
3DFACE
5
1107
330
1004
100
AcDbEntity
8
0
62
254
100
AcDbFace
10
16.750000
20
-502.500000
30
115.750000
11
16.750000
21
501.500000
31
115.750000
12
1.250000
22
501.500000
32
130.250000
13
1.250000
23
-502.500000
33
130.250000
70
1
0
3DFACE
5
1108
330
1004
100
AcDbEntity
8
0
62
254
100
AcDbFace
10
16.750000
20
-502.500000
30
111.250000
11
16.750000
21
501.500000
31
111.250000
12
16.750000
22
501.500000
32
115.750000
13
16.750000
23
-502.500000
33
115.750000
70
1
0
3DFACE
5
1109
330
1004
100
AcDbEntity
8
0
62
254
100
AcDbFace
10
17.750000
20
-502.500000
30
111.250000
11
17.750000
21
501.500000
31
111.250000
12
16.750000
22
501.500000
32
111.250000
13
16.750000
23
-502.500000
33
111.250000
70
1
0
3DFACE
5
110a
330
1004
100
AcDbEntity
8
0
62
254
100
AcDbFace
10
16.750000
20
-502.500000
30
111.250000
11
16.750000
21
-502.500000
31
115.750000
12
17.750000
22
-502.500000
32
115.750000
13
17.750000
23
-502.500000
33
111.250000
70
15
0
3DFACE
5
110b
330
1004
100
AcDbEntity
8
0
62
254
100
AcDbFace
10
16.750000
20
-502.500000
30
115.750000
11
1.250000
21
-502.500000
31
130.250000
12
1.250000
22
-502.500000
32
131.250000
13
17.750000
23
-502.500000
33
115.750000
70
15
0
3DFACE
5
110c
330
1004
100
AcDbEntity
8
0
62
254
100
AcDbFace
10
1.250000
20
-502.500000
30
130.250000
11
-10.750000
21
-502.500000
31
130.250000
12
-10.750000
22
-502.500000
32
131.250000
13
1.250000
23
-502.500000
33
131.250000
70
15
0
3DFACE
5
110d
330
1004
100
AcDbEntity
8
0
62
254
100
AcDbFace
10
16.750000
20
501.500000
30
111.250000
11
16.750000
21
501.500000
31
115.750000
12
17.750000
22
501.500000
32
115.750000
13
17.750000
23
501.500000
33
111.250000
70
15
0
3DFACE
5
110e
330
1004
100
AcDbEntity
8
0
62
254
100
AcDbFace
10
16.750000
20
501.500000
30
115.750000
11
1.250000
21
501.500000
31
130.250000
12
1.250000
22
501.500000
32
131.250000
13
17.750000
23
501.500000
33
115.750000
70
15
0
3DFACE
5
110f
330
1004
100
AcDbEntity
8
0
62
254
100
AcDbFace
10
1.250000
20
501.500000
30
130.250000
11
-10.750000
21
501.500000
31
130.250000
12
-10.750000
22
501.500000
32
131.250000
13
1.250000
23
501.500000
33
131.250000
70
15
0
3DFACE
5
1110
330
1004
100
AcDbEntity
8
0
62
254
100
AcDbFace
10
17.750000
20
-502.500000
30
135.958333
11
17.750000
21
501.500000
31
135.958333
12
17.750000
22
501.500000
32
131.458333
13
17.750000
23
-502.500000
33
131.458333
70
1
0
3DFACE
5
1111
330
1004
100
AcDbEntity
8
0
62
254
100
AcDbFace
10
1.250000
20
-502.500000
30
151.458333
11
1.250000
21
501.500000
31
151.458333
12
17.750000
22
501.500000
32
135.958333
13
17.750000
23
-502.500000
33
135.958333
70
1
0
3DFACE
5
1112
330
1004
100
AcDbEntity
8
0
62
254
100
AcDbFace
10
-10.750000
20
-502.500000
30
151.458333
11
-10.750000
21
501.500000
31
151.458333
12
1.250000
22
501.500000
32
151.458333
13
1.250000
23
-502.500000
33
151.458333
70
1
0
3DFACE
5
1113
330
1004
100
AcDbEntity
8
0
62
254
100
AcDbFace
10
-10.750000
20
-502.500000
30
150.458333
11
-10.750000
21
501.500000
31
150.458333
12
-10.750000
22
501.500000
32
151.458333
13
-10.750000
23
-502.500000
33
151.458333
70
1
0
3DFACE
5
1114
330
1004
100
AcDbEntity
8
0
62
254
100
AcDbFace
10
1.250000
20
-502.500000
30
150.458333
11
1.250000
21
501.500000
31
150.458333
12
-10.750000
22
501.500000
32
150.458333
13
-10.750000
23
-502.500000
33
150.458333
70
1
0
3DFACE
5
1115
330
1004
100
AcDbEntity
8
0
62
254
100
AcDbFace
10
16.750000
20
-502.500000
30
135.958333
11
16.750000
21
501.500000
31
135.958333
12
1.250000
22
501.500000
32
150.458333
13
1.250000
23
-502.500000
33
150.458333
70
1
0
3DFACE
5
1116
330
1004
100
AcDbEntity
8
0
62
254
100
AcDbFace
10
16.750000
20
-502.500000
30
131.458333
11
16.750000
21
501.500000
31
131.458333
12
16.750000
22
501.500000
32
135.958333
13
16.750000
23
-502.500000
33
135.958333
70
1
0
3DFACE
5
1117
330
1004
100
AcDbEntity
8
0
62
254
100
AcDbFace
10
17.750000
20
-502.500000
30
131.458333
11
17.750000
21
501.500000
31
131.458333
12
16.750000
22
501.500000
32
131.458333
13
16.750000
23
-502.500000
33
131.458333
70
1
0
3DFACE
5
1118
330
1004
100
AcDbEntity
8
0
62
254
100
AcDbFace
10
16.750000
20
-502.500000
30
131.458333
11
16.750000
21
-502.500000
31
135.958333
12
17.750000
22
-502.500000
32
135.958333
13
17.750000
23
-502.500000
33
131.458333
70
15
0
3DFACE
5
1119
330
1004
100
AcDbEntity
8
0
62
254
100
AcDbFace
10
16.750000
20
-502.500000
30
135.958333
11
1.250000
21
-502.500000
31
150.458333
12
1.250000
22
-502.500000
32
151.458333
13
17.750000
23
-502.500000
33
135.958333
70
15
0
3DFACE
5
111a
330
1004
100
AcDbEntity
8
0
62
254
100
AcDbFace
10
1.250000
20
-502.500000
30
150.458333
11
-10.750000
21
-502.500000
31
150.458333
12
-10.750000
22
-502.500000
32
151.458333
13
1.250000
23
-502.500000
33
151.458333
70
15
0
3DFACE
5
111b
330
1004
100
AcDbEntity
8
0
62
254
100
AcDbFace
10
16.750000
20
501.500000
30
131.458333
11
16.750000
21
501.500000
31
135.958333
12
17.750000
22
501.500000
32
135.958333
13
17.750000
23
501.500000
33
131.458333
70
15
0
3DFACE
5
111c
330
1004
100
AcDbEntity
8
0
62
254
100
AcDbFace
10
16.750000
20
501.500000
30
135.958333
11
1.250000
21
501.500000
31
150.458333
12
1.250000
22
501.500000
32
151.458333
13
17.750000
23
501.500000
33
135.958333
70
15
0
3DFACE
5
111d
330
1004
100
AcDbEntity
8
0
62
254
100
AcDbFace
10
1.250000
20
501.500000
30
150.458333
11
-10.750000
21
501.500000
31
150.458333
12
-10.750000
22
501.500000
32
151.458333
13
1.250000
23
501.500000
33
151.458333
70
15
0
3DFACE
5
111e
330
1004
100
AcDbEntity
8
0
62
254
100
AcDbFace
10
17.750000
20
-502.500000
30
156.166667
11
17.750000
21
501.500000
31
156.166667
12
17.750000
22
501.500000
32
151.666667
13
17.750000
23
-502.500000
33
151.666667
70
1
0
3DFACE
5
111f
330
1004
100
AcDbEntity
8
0
62
254
100
AcDbFace
10
1.250000
20
-502.500000
30
171.666667
11
1.250000
21
501.500000
31
171.666667
12
17.750000
22
501.500000
32
156.166667
13
17.750000
23
-502.500000
33
156.166667
70
1
0
3DFACE
5
1120
330
1004
100
AcDbEntity
8
0
62
254
100
AcDbFace
10
-10.750000
20
-502.500000
30
171.666667
11
-10.750000
21
501.500000
31
171.666667
12
1.250000
22
501.500000
32
171.666667
13
1.250000
23
-502.500000
33
171.666667
70
1
0
3DFACE
5
1121
330
1004
100
AcDbEntity
8
0
62
254
100
AcDbFace
10
-10.750000
20
-502.500000
30
170.666667
11
-10.750000
21
501.500000
31
170.666667
12
-10.750000
22
501.500000
32
171.666667
13
-10.750000
23
-502.500000
33
171.666667
70
1
0
3DFACE
5
1122
330
1004
100
AcDbEntity
8
0
62
254
100
AcDbFace
10
1.250000
20
-502.500000
30
170.666667
11
1.250000
21
501.500000
31
170.666667
12
-10.750000
22
501.500000
32
170.666667
13
-10.750000
23
-502.500000
33
170.666667
70
1
0
3DFACE
5
1123
330
1004
100
AcDbEntity
8
0
62
254
100
AcDbFace
10
16.750000
20
-502.500000
30
156.166667
11
16.750000
21
501.500000
31
156.166667
12
1.250000
22
501.500000
32
170.666667
13
1.250000
23
-502.500000
33
170.666667
70
1
0
3DFACE
5
1124
330
1004
100
AcDbEntity
8
0
62
254
100
AcDbFace
10
16.750000
20
-502.500000
30
151.666667
11
16.750000
21
501.500000
31
151.666667
12
16.750000
22
501.500000
32
156.166667
13
16.750000
23
-502.500000
33
156.166667
70
1
0
3DFACE
5
1125
330
1004
100
AcDbEntity
8
0
62
254
100
AcDbFace
10
17.750000
20
-502.500000
30
151.666667
11
17.750000
21
501.500000
31
151.666667
12
16.750000
22
501.500000
32
151.666667
13
16.750000
23
-502.500000
33
151.666667
70
1
0
3DFACE
5
1126
330
1004
100
AcDbEntity
8
0
62
254
100
AcDbFace
10
16.750000
20
-502.500000
30
151.666667
11
16.750000
21
-502.500000
31
156.166667
12
17.750000
22
-502.500000
32
156.166667
13
17.750000
23
-502.500000
33
151.666667
70
15
0
3DFACE
5
1127
330
1004
100
AcDbEntity
8
0
62
254
100
AcDbFace
10
16.750000
20
-502.500000
30
156.166667
11
1.250000
21
-502.500000
31
170.666667
12
1.250000
22
-502.500000
32
171.666667
13
17.750000
23
-502.500000
33
156.166667
70
15
0
3DFACE
5
1128
330
1004
100
AcDbEntity
8
0
62
254
100
AcDbFace
10
1.250000
20
-502.500000
30
170.666667
11
-10.750000
21
-502.500000
31
170.666667
12
-10.750000
22
-502.500000
32
171.666667
13
1.250000
23
-502.500000
33
171.666667
70
15
0
3DFACE
5
1129
330
1004
100
AcDbEntity
8
0
62
254
100
AcDbFace
10
16.750000
20
501.500000
30
151.666667
11
16.750000
21
501.500000
31
156.166667
12
17.750000
22
501.500000
32
156.166667
13
17.750000
23
501.500000
33
151.666667
70
15
0
3DFACE
5
112a
330
1004
100
AcDbEntity
8
0
62
254
100
AcDbFace
10
16.750000
20
501.500000
30
156.166667
11
1.250000
21
501.500000
31
170.666667
12
1.250000
22
501.500000
32
171.666667
13
17.750000
23
501.500000
33
156.166667
70
15
0
3DFACE
5
112b
330
1004
100
AcDbEntity
8
0
62
254
100
AcDbFace
10
1.250000
20
501.500000
30
170.666667
11
-10.750000
21
501.500000
31
170.666667
12
-10.750000
22
501.500000
32
171.666667
13
1.250000
23
501.500000
33
171.666667
70
15
0
3DFACE
5
112c
330
1004
100
AcDbEntity
8
0
62
254
100
AcDbFace
10
17.750000
20
-502.500000
30
176.375000
11
17.750000
21
501.500000
31
176.375000
12
17.750000
22
501.500000
32
171.875000
13
17.750000
23
-502.500000
33
171.875000
70
1
0
3DFACE
5
112d
330
1004
100
AcDbEntity
8
0
62
254
100
AcDbFace
10
1.250000
20
-502.500000
30
191.875000
11
1.250000
21
501.500000
31
191.875000
12
17.750000
22
501.500000
32
176.375000
13
17.750000
23
-502.500000
33
176.375000
70
1
0
3DFACE
5
112e
330
1004
100
AcDbEntity
8
0
62
254
100
AcDbFace
10
-10.750000
20
-502.500000
30
191.875000
11
-10.750000
21
501.500000
31
191.875000
12
1.250000
22
501.500000
32
191.875000
13
1.250000
23
-502.500000
33
191.875000
70
1
0
3DFACE
5
112f
330
1004
100
AcDbEntity
8
0
62
254
100
AcDbFace
10
-10.750000
20
-502.500000
30
190.875000
11
-10.750000
21
501.500000
31
190.875000
12
-10.750000
22
501.500000
32
191.875000
13
-10.750000
23
-502.500000
33
191.875000
70
1
0
3DFACE
5
1130
330
1004
100
AcDbEntity
8
0
62
254
100
AcDbFace
10
1.250000
20
-502.500000
30
190.875000
11
1.250000
21
501.500000
31
190.875000
12
-10.750000
22
501.500000
32
190.875000
13
-10.750000
23
-502.500000
33
190.875000
70
1
0
3DFACE
5
1131
330
1004
100
AcDbEntity
8
0
62
254
100
AcDbFace
10
16.750000
20
-502.500000
30
176.375000
11
16.750000
21
501.500000
31
176.375000
12
1.250000
22
501.500000
32
190.875000
13
1.250000
23
-502.500000
33
190.875000
70
1
0
3DFACE
5
1132
330
1004
100
AcDbEntity
8
0
62
254
100
AcDbFace
10
16.750000
20
-502.500000
30
171.875000
11
16.750000
21
501.500000
31
171.875000
12
16.750000
22
501.500000
32
176.375000
13
16.750000
23
-502.500000
33
176.375000
70
1
0
3DFACE
5
1133
330
1004
100
AcDbEntity
8
0
62
254
100
AcDbFace
10
17.750000
20
-502.500000
30
171.875000
11
17.750000
21
501.500000
31
171.875000
12
16.750000
22
501.500000
32
171.875000
13
16.750000
23
-502.500000
33
171.875000
70
1
0
3DFACE
5
1134
330
1004
100
AcDbEntity
8
0
62
254
100
AcDbFace
10
16.750000
20
-502.500000
30
171.875000
11
16.750000
21
-502.500000
31
176.375000
12
17.750000
22
-502.500000
32
176.375000
13
17.750000
23
-502.500000
33
171.875000
70
15
0
3DFACE
5
1135
330
1004
100
AcDbEntity
8
0
62
254
100
AcDbFace
10
16.750000
20
-502.500000
30
176.375000
11
1.250000
21
-502.500000
31
190.875000
12
1.250000
22
-502.500000
32
191.875000
13
17.750000
23
-502.500000
33
176.375000
70
15
0
3DFACE
5
1136
330
1004
100
AcDbEntity
8
0
62
254
100
AcDbFace
10
1.250000
20
-502.500000
30
190.875000
11
-10.750000
21
-502.500000
31
190.875000
12
-10.750000
22
-502.500000
32
191.875000
13
1.250000
23
-502.500000
33
191.875000
70
15
0
3DFACE
5
1137
330
1004
100
AcDbEntity
8
0
62
254
100
AcDbFace
10
16.750000
20
501.500000
30
171.875000
11
16.750000
21
501.500000
31
176.375000
12
17.750000
22
501.500000
32
176.375000
13
17.750000
23
501.500000
33
171.875000
70
15
0
3DFACE
5
1138
330
1004
100
AcDbEntity
8
0
62
254
100
AcDbFace
10
16.750000
20
501.500000
30
176.375000
11
1.250000
21
501.500000
31
190.875000
12
1.250000
22
501.500000
32
191.875000
13
17.750000
23
501.500000
33
176.375000
70
15
0
3DFACE
5
1139
330
1004
100
AcDbEntity
8
0
62
254
100
AcDbFace
10
1.250000
20
501.500000
30
190.875000
11
-10.750000
21
501.500000
31
190.875000
12
-10.750000
22
501.500000
32
191.875000
13
1.250000
23
501.500000
33
191.875000
70
15
0
3DFACE
5
113a
330
1004
100
AcDbEntity
8
0
62
254
100
AcDbFace
10
17.750000
20
-502.500000
30
196.583333
11
17.750000
21
501.500000
31
196.583333
12
17.750000
22
501.500000
32
192.083333
13
17.750000
23
-502.500000
33
192.083333
70
1
0
3DFACE
5
113b
330
1004
100
AcDbEntity
8
0
62
254
100
AcDbFace
10
1.250000
20
-502.500000
30
212.083333
11
1.250000
21
501.500000
31
212.083333
12
17.750000
22
501.500000
32
196.583333
13
17.750000
23
-502.500000
33
196.583333
70
1
0
3DFACE
5
113c
330
1004
100
AcDbEntity
8
0
62
254
100
AcDbFace
10
-10.750000
20
-502.500000
30
212.083333
11
-10.750000
21
501.500000
31
212.083333
12
1.250000
22
501.500000
32
212.083333
13
1.250000
23
-502.500000
33
212.083333
70
1
0
3DFACE
5
113d
330
1004
100
AcDbEntity
8
0
62
254
100
AcDbFace
10
-10.750000
20
-502.500000
30
211.083333
11
-10.750000
21
501.500000
31
211.083333
12
-10.750000
22
501.500000
32
212.083333
13
-10.750000
23
-502.500000
33
212.083333
70
1
0
3DFACE
5
113e
330
1004
100
AcDbEntity
8
0
62
254
100
AcDbFace
10
1.250000
20
-502.500000
30
211.083333
11
1.250000
21
501.500000
31
211.083333
12
-10.750000
22
501.500000
32
211.083333
13
-10.750000
23
-502.500000
33
211.083333
70
1
0
3DFACE
5
113f
330
1004
100
AcDbEntity
8
0
62
254
100
AcDbFace
10
16.750000
20
-502.500000
30
196.583333
11
16.750000
21
501.500000
31
196.583333
12
1.250000
22
501.500000
32
211.083333
13
1.250000
23
-502.500000
33
211.083333
70
1
0
3DFACE
5
1140
330
1004
100
AcDbEntity
8
0
62
254
100
AcDbFace
10
16.750000
20
-502.500000
30
192.083333
11
16.750000
21
501.500000
31
192.083333
12
16.750000
22
501.500000
32
196.583333
13
16.750000
23
-502.500000
33
196.583333
70
1
0
3DFACE
5
1141
330
1004
100
AcDbEntity
8
0
62
254
100
AcDbFace
10
17.750000
20
-502.500000
30
192.083333
11
17.750000
21
501.500000
31
192.083333
12
16.750000
22
501.500000
32
192.083333
13
16.750000
23
-502.500000
33
192.083333
70
1
0
3DFACE
5
1142
330
1004
100
AcDbEntity
8
0
62
254
100
AcDbFace
10
16.750000
20
-502.500000
30
192.083333
11
16.750000
21
-502.500000
31
196.583333
12
17.750000
22
-502.500000
32
196.583333
13
17.750000
23
-502.500000
33
192.083333
70
15
0
3DFACE
5
1143
330
1004
100
AcDbEntity
8
0
62
254
100
AcDbFace
10
16.750000
20
-502.500000
30
196.583333
11
1.250000
21
-502.500000
31
211.083333
12
1.250000
22
-502.500000
32
212.083333
13
17.750000
23
-502.500000
33
196.583333
70
15
0
3DFACE
5
1144
330
1004
100
AcDbEntity
8
0
62
254
100
AcDbFace
10
1.250000
20
-502.500000
30
211.083333
11
-10.750000
21
-502.500000
31
211.083333
12
-10.750000
22
-502.500000
32
212.083333
13
1.250000
23
-502.500000
33
212.083333
70
15
0
3DFACE
5
1145
330
1004
100
AcDbEntity
8
0
62
254
100
AcDbFace
10
16.750000
20
501.500000
30
192.083333
11
16.750000
21
501.500000
31
196.583333
12
17.750000
22
501.500000
32
196.583333
13
17.750000
23
501.500000
33
192.083333
70
15
0
3DFACE
5
1146
330
1004
100
AcDbEntity
8
0
62
254
100
AcDbFace
10
16.750000
20
501.500000
30
196.583333
11
1.250000
21
501.500000
31
211.083333
12
1.250000
22
501.500000
32
212.083333
13
17.750000
23
501.500000
33
196.583333
70
15
0
3DFACE
5
1147
330
1004
100
AcDbEntity
8
0
62
254
100
AcDbFace
10
1.250000
20
501.500000
30
211.083333
11
-10.750000
21
501.500000
31
211.083333
12
-10.750000
22
501.500000
32
212.083333
13
1.250000
23
501.500000
33
212.083333
70
15
0
3DFACE
5
1148
330
1004
100
AcDbEntity
8
0
62
254
100
AcDbFace
10
17.750000
20
-502.500000
30
216.791667
11
17.750000
21
501.500000
31
216.791667
12
17.750000
22
501.500000
32
212.291667
13
17.750000
23
-502.500000
33
212.291667
70
1
0
3DFACE
5
1149
330
1004
100
AcDbEntity
8
0
62
254
100
AcDbFace
10
1.250000
20
-502.500000
30
232.291667
11
1.250000
21
501.500000
31
232.291667
12
17.750000
22
501.500000
32
216.791667
13
17.750000
23
-502.500000
33
216.791667
70
1
0
3DFACE
5
114a
330
1004
100
AcDbEntity
8
0
62
254
100
AcDbFace
10
-10.750000
20
-502.500000
30
232.291667
11
-10.750000
21
501.500000
31
232.291667
12
1.250000
22
501.500000
32
232.291667
13
1.250000
23
-502.500000
33
232.291667
70
1
0
3DFACE
5
114b
330
1004
100
AcDbEntity
8
0
62
254
100
AcDbFace
10
-10.750000
20
-502.500000
30
231.291667
11
-10.750000
21
501.500000
31
231.291667
12
-10.750000
22
501.500000
32
232.291667
13
-10.750000
23
-502.500000
33
232.291667
70
1
0
3DFACE
5
114c
330
1004
100
AcDbEntity
8
0
62
254
100
AcDbFace
10
1.250000
20
-502.500000
30
231.291667
11
1.250000
21
501.500000
31
231.291667
12
-10.750000
22
501.500000
32
231.291667
13
-10.750000
23
-502.500000
33
231.291667
70
1
0
3DFACE
5
114d
330
1004
100
AcDbEntity
8
0
62
254
100
AcDbFace
10
16.750000
20
-502.500000
30
216.791667
11
16.750000
21
501.500000
31
216.791667
12
1.250000
22
501.500000
32
231.291667
13
1.250000
23
-502.500000
33
231.291667
70
1
0
3DFACE
5
114e
330
1004
100
AcDbEntity
8
0
62
254
100
AcDbFace
10
16.750000
20
-502.500000
30
212.291667
11
16.750000
21
501.500000
31
212.291667
12
16.750000
22
501.500000
32
216.791667
13
16.750000
23
-502.500000
33
216.791667
70
1
0
3DFACE
5
114f
330
1004
100
AcDbEntity
8
0
62
254
100
AcDbFace
10
17.750000
20
-502.500000
30
212.291667
11
17.750000
21
501.500000
31
212.291667
12
16.750000
22
501.500000
32
212.291667
13
16.750000
23
-502.500000
33
212.291667
70
1
0
3DFACE
5
1150
330
1004
100
AcDbEntity
8
0
62
254
100
AcDbFace
10
16.750000
20
-502.500000
30
212.291667
11
16.750000
21
-502.500000
31
216.791667
12
17.750000
22
-502.500000
32
216.791667
13
17.750000
23
-502.500000
33
212.291667
70
15
0
3DFACE
5
1151
330
1004
100
AcDbEntity
8
0
62
254
100
AcDbFace
10
16.750000
20
-502.500000
30
216.791667
11
1.250000
21
-502.500000
31
231.291667
12
1.250000
22
-502.500000
32
232.291667
13
17.750000
23
-502.500000
33
216.791667
70
15
0
3DFACE
5
1152
330
1004
100
AcDbEntity
8
0
62
254
100
AcDbFace
10
1.250000
20
-502.500000
30
231.291667
11
-10.750000
21
-502.500000
31
231.291667
12
-10.750000
22
-502.500000
32
232.291667
13
1.250000
23
-502.500000
33
232.291667
70
15
0
3DFACE
5
1153
330
1004
100
AcDbEntity
8
0
62
254
100
AcDbFace
10
16.750000
20
501.500000
30
212.291667
11
16.750000
21
501.500000
31
216.791667
12
17.750000
22
501.500000
32
216.791667
13
17.750000
23
501.500000
33
212.291667
70
15
0
3DFACE
5
1154
330
1004
100
AcDbEntity
8
0
62
254
100
AcDbFace
10
16.750000
20
501.500000
30
216.791667
11
1.250000
21
501.500000
31
231.291667
12
1.250000
22
501.500000
32
232.291667
13
17.750000
23
501.500000
33
216.791667
70
15
0
3DFACE
5
1155
330
1004
100
AcDbEntity
8
0
62
254
100
AcDbFace
10
1.250000
20
501.500000
30
231.291667
11
-10.750000
21
501.500000
31
231.291667
12
-10.750000
22
501.500000
32
232.291667
13
1.250000
23
501.500000
33
232.291667
70
15
0
3DFACE
5
1156
330
1004
100
AcDbEntity
8
0
62
254
100
AcDbFace
10
17.750000
20
-502.500000
30
237.000000
11
17.750000
21
501.500000
31
237.000000
12
17.750000
22
501.500000
32
232.500000
13
17.750000
23
-502.500000
33
232.500000
70
1
0
3DFACE
5
1157
330
1004
100
AcDbEntity
8
0
62
254
100
AcDbFace
10
1.250000
20
-502.500000
30
252.500000
11
1.250000
21
501.500000
31
252.500000
12
17.750000
22
501.500000
32
237.000000
13
17.750000
23
-502.500000
33
237.000000
70
1
0
3DFACE
5
1158
330
1004
100
AcDbEntity
8
0
62
254
100
AcDbFace
10
-10.750000
20
-502.500000
30
252.500000
11
-10.750000
21
501.500000
31
252.500000
12
1.250000
22
501.500000
32
252.500000
13
1.250000
23
-502.500000
33
252.500000
70
1
0
3DFACE
5
1159
330
1004
100
AcDbEntity
8
0
62
254
100
AcDbFace
10
-10.750000
20
-502.500000
30
251.500000
11
-10.750000
21
501.500000
31
251.500000
12
-10.750000
22
501.500000
32
252.500000
13
-10.750000
23
-502.500000
33
252.500000
70
1
0
3DFACE
5
115a
330
1004
100
AcDbEntity
8
0
62
254
100
AcDbFace
10
1.250000
20
-502.500000
30
251.500000
11
1.250000
21
501.500000
31
251.500000
12
-10.750000
22
501.500000
32
251.500000
13
-10.750000
23
-502.500000
33
251.500000
70
1
0
3DFACE
5
115b
330
1004
100
AcDbEntity
8
0
62
254
100
AcDbFace
10
16.750000
20
-502.500000
30
237.000000
11
16.750000
21
501.500000
31
237.000000
12
1.250000
22
501.500000
32
251.500000
13
1.250000
23
-502.500000
33
251.500000
70
1
0
3DFACE
5
115c
330
1004
100
AcDbEntity
8
0
62
254
100
AcDbFace
10
16.750000
20
-502.500000
30
232.500000
11
16.750000
21
501.500000
31
232.500000
12
16.750000
22
501.500000
32
237.000000
13
16.750000
23
-502.500000
33
237.000000
70
1
0
3DFACE
5
115d
330
1004
100
AcDbEntity
8
0
62
254
100
AcDbFace
10
17.750000
20
-502.500000
30
232.500000
11
17.750000
21
501.500000
31
232.500000
12
16.750000
22
501.500000
32
232.500000
13
16.750000
23
-502.500000
33
232.500000
70
1
0
3DFACE
5
115e
330
1004
100
AcDbEntity
8
0
62
254
100
AcDbFace
10
16.750000
20
-502.500000
30
232.500000
11
16.750000
21
-502.500000
31
237.000000
12
17.750000
22
-502.500000
32
237.000000
13
17.750000
23
-502.500000
33
232.500000
70
15
0
3DFACE
5
115f
330
1004
100
AcDbEntity
8
0
62
254
100
AcDbFace
10
16.750000
20
-502.500000
30
237.000000
11
1.250000
21
-502.500000
31
251.500000
12
1.250000
22
-502.500000
32
252.500000
13
17.750000
23
-502.500000
33
237.000000
70
15
0
3DFACE
5
1160
330
1004
100
AcDbEntity
8
0
62
254
100
AcDbFace
10
1.250000
20
-502.500000
30
251.500000
11
-10.750000
21
-502.500000
31
251.500000
12
-10.750000
22
-502.500000
32
252.500000
13
1.250000
23
-502.500000
33
252.500000
70
15
0
3DFACE
5
1161
330
1004
100
AcDbEntity
8
0
62
254
100
AcDbFace
10
16.750000
20
501.500000
30
232.500000
11
16.750000
21
501.500000
31
237.000000
12
17.750000
22
501.500000
32
237.000000
13
17.750000
23
501.500000
33
232.500000
70
15
0
3DFACE
5
1162
330
1004
100
AcDbEntity
8
0
62
254
100
AcDbFace
10
16.750000
20
501.500000
30
237.000000
11
1.250000
21
501.500000
31
251.500000
12
1.250000
22
501.500000
32
252.500000
13
17.750000
23
501.500000
33
237.000000
70
15
0
3DFACE
5
1163
330
1004
100
AcDbEntity
8
0
62
254
100
AcDbFace
10
1.250000
20
501.500000
30
251.500000
11
-10.750000
21
501.500000
31
251.500000
12
-10.750000
22
501.500000
32
252.500000
13
1.250000
23
501.500000
33
252.500000
70
15
0
3DFACE
5
1164
330
1004
100
AcDbEntity
8
0
62
254
100
AcDbFace
10
21.500000
20
503.500000
30
-253.500000
11
-23.500000
21
503.500000
31
-253.500000
12
-23.500000
22
503.500000
32
253.500000
13
21.500000
23
503.500000
33
253.500000
70
1
0
3DFACE
5
1165
330
1004
100
AcDbEntity
8
0
62
254
100
AcDbFace
10
21.500000
20
-503.500000
30
-253.500000
11
-23.500000
21
-503.500000
31
-253.500000
12
-23.500000
22
503.500000
32
-253.500000
13
21.500000
23
503.500000
33
-253.500000
70
1
0
3DFACE
5
1166
330
1004
100
AcDbEntity
8
0
62
254
100
AcDbFace
10
21.500000
20
-503.500000
30
253.500000
11
-23.500000
21
-503.500000
31
253.500000
12
-23.500000
22
-503.500000
32
-253.500000
13
21.500000
23
-503.500000
33
-253.500000
70
1
0
3DFACE
5
1167
330
1004
100
AcDbEntity
8
0
62
254
100
AcDbFace
10
21.500000
20
503.500000
30
253.500000
11
-23.500000
21
503.500000
31
253.500000
12
-23.500000
22
-503.500000
32
253.500000
13
21.500000
23
-503.500000
33
253.500000
70
1
0
3DFACE
5
1168
330
1004
100
AcDbEntity
8
0
62
254
100
AcDbFace
10
21.500000
20
502.500000
30
-252.500000
11
-23.500000
21
502.500000
31
-252.500000
12
-23.500000
22
502.500000
32
252.500000
13
21.500000
23
502.500000
33
252.500000
70
1
0
3DFACE
5
1169
330
1004
100
AcDbEntity
8
0
62
254
100
AcDbFace
10
21.500000
20
-502.500000
30
-252.500000
11
-23.500000
21
-502.500000
31
-252.500000
12
-23.500000
22
502.500000
32
-252.500000
13
21.500000
23
502.500000
33
-252.500000
70
1
0
3DFACE
5
116a
330
1004
100
AcDbEntity
8
0
62
254
100
AcDbFace
10
21.500000
20
-502.500000
30
252.500000
11
-23.500000
21
-502.500000
31
252.500000
12
-23.500000
22
-502.500000
32
-252.500000
13
21.500000
23
-502.500000
33
-252.500000
70
1
0
3DFACE
5
116b
330
1004
100
AcDbEntity
8
0
62
254
100
AcDbFace
10
21.500000
20
502.500000
30
252.500000
11
-23.500000
21
502.500000
31
252.500000
12
-23.500000
22
-502.500000
32
252.500000
13
21.500000
23
-502.500000
33
252.500000
70
1
0
3DFACE
5
116c
330
1004
100
AcDbEntity
8
0
62
254
100
AcDbFace
10
21.500000
20
-502.500000
30
-252.500000
11
21.500000
21
-501.513807
31
-252.500000
12
21.500000
22
-503.500000
32
-253.500000
13
21.500000
23
-503.500000
33
-253.500000
70
15
0
3DFACE
5
116d
330
1004
100
AcDbEntity
8
0
62
254
100
AcDbFace
10
21.500000
20
-502.500000
30
-252.500000
11
21.500000
21
-503.500000
31
-253.500000
12
21.500000
22
-503.500000
32
253.500000
13
21.500000
23
-503.500000
33
253.500000
70
15
0
3DFACE
5
116e
330
1004
100
AcDbEntity
8
0
62
254
100
AcDbFace
10
21.500000
20
-502.500000
30
252.500000
11
21.500000
21
-502.500000
31
-252.500000
12
21.500000
22
-503.500000
32
253.500000
13
21.500000
23
-503.500000
33
253.500000
70
15
0
3DFACE
5
116f
330
1004
100
AcDbEntity
8
0
62
254
100
AcDbFace
10
21.500000
20
-502.500000
30
252.500000
11
21.500000
21
-503.500000
31
253.500000
12
21.500000
22
503.500000
32
253.500000
13
21.500000
23
503.500000
33
253.500000
70
15
0
3DFACE
5
1170
330
1004
100
AcDbEntity
8
0
62
254
100
AcDbFace
10
21.500000
20
503.500000
30
253.500000
11
21.500000
21
501.513807
31
252.500000
12
21.500000
22
-502.500000
32
252.500000
13
21.500000
23
-502.500000
33
252.500000
70
15
0
3DFACE
5
1171
330
1004
100
AcDbEntity
8
0
62
254
100
AcDbFace
10
21.500000
20
502.500000
30
252.500000
11
21.500000
21
501.513807
31
252.500000
12
21.500000
22
503.500000
32
253.500000
13
21.500000
23
503.500000
33
253.500000
70
15
0
3DFACE
5
1172
330
1004
100
AcDbEntity
8
0
62
254
100
AcDbFace
10
21.500000
20
502.500000
30
252.500000
11
21.500000
21
503.500000
31
253.500000
12
21.500000
22
503.500000
32
-253.500000
13
21.500000
23
503.500000
33
-253.500000
70
15
0
3DFACE
5
1173
330
1004
100
AcDbEntity
8
0
62
254
100
AcDbFace
10
21.500000
20
502.500000
30
-252.500000
11
21.500000
21
502.500000
31
252.500000
12
21.500000
22
503.500000
32
-253.500000
13
21.500000
23
503.500000
33
-253.500000
70
15
0
3DFACE
5
1174
330
1004
100
AcDbEntity
8
0
62
254
100
AcDbFace
10
21.500000
20
502.500000
30
-252.500000
11
21.500000
21
503.500000
31
-253.500000
12
21.500000
22
-503.500000
32
-253.500000
13
21.500000
23
-503.500000
33
-253.500000
70
15
0
3DFACE
5
1175
330
1004
100
AcDbEntity
8
0
62
254
100
AcDbFace
10
21.500000
20
-503.500000
30
-253.500000
11
21.500000
21
-501.513807
31
-252.500000
12
21.500000
22
502.500000
32
-252.500000
13
21.500000
23
502.500000
33
-252.500000
70
15
0
3DFACE
5
1176
330
1004
100
AcDbEntity
8
0
62
254
100
AcDbFace
10
-23.500000
20
-502.500000
30
-252.500000
11
-23.500000
21
-501.513807
31
-252.500000
12
-23.500000
22
-503.500000
32
-253.500000
13
-23.500000
23
-503.500000
33
-253.500000
70
15
0
3DFACE
5
1177
330
1004
100
AcDbEntity
8
0
62
254
100
AcDbFace
10
-23.500000
20
-502.500000
30
-252.500000
11
-23.500000
21
-503.500000
31
-253.500000
12
-23.500000
22
-503.500000
32
253.500000
13
-23.500000
23
-503.500000
33
253.500000
70
15
0
3DFACE
5
1178
330
1004
100
AcDbEntity
8
0
62
254
100
AcDbFace
10
-23.500000
20
-502.500000
30
252.500000
11
-23.500000
21
-502.500000
31
-252.500000
12
-23.500000
22
-503.500000
32
253.500000
13
-23.500000
23
-503.500000
33
253.500000
70
15
0
3DFACE
5
1179
330
1004
100
AcDbEntity
8
0
62
254
100
AcDbFace
10
-23.500000
20
-502.500000
30
252.500000
11
-23.500000
21
-503.500000
31
253.500000
12
-23.500000
22
503.500000
32
253.500000
13
-23.500000
23
503.500000
33
253.500000
70
15
0
3DFACE
5
117a
330
1004
100
AcDbEntity
8
0
62
254
100
AcDbFace
10
-23.500000
20
503.500000
30
253.500000
11
-23.500000
21
501.513807
31
252.500000
12
-23.500000
22
-502.500000
32
252.500000
13
-23.500000
23
-502.500000
33
252.500000
70
15
0
3DFACE
5
117b
330
1004
100
AcDbEntity
8
0
62
254
100
AcDbFace
10
-23.500000
20
502.500000
30
252.500000
11
-23.500000
21
501.513807
31
252.500000
12
-23.500000
22
503.500000
32
253.500000
13
-23.500000
23
503.500000
33
253.500000
70
15
0
3DFACE
5
117c
330
1004
100
AcDbEntity
8
0
62
254
100
AcDbFace
10
-23.500000
20
502.500000
30
252.500000
11
-23.500000
21
503.500000
31
253.500000
12
-23.500000
22
503.500000
32
-253.500000
13
-23.500000
23
503.500000
33
-253.500000
70
15
0
3DFACE
5
117d
330
1004
100
AcDbEntity
8
0
62
254
100
AcDbFace
10
-23.500000
20
502.500000
30
-252.500000
11
-23.500000
21
502.500000
31
252.500000
12
-23.500000
22
503.500000
32
-253.500000
13
-23.500000
23
503.500000
33
-253.500000
70
15
0
3DFACE
5
117e
330
1004
100
AcDbEntity
8
0
62
254
100
AcDbFace
10
-23.500000
20
502.500000
30
-252.500000
11
-23.500000
21
503.500000
31
-253.500000
12
-23.500000
22
-503.500000
32
-253.500000
13
-23.500000
23
-503.500000
33
-253.500000
70
15
0
3DFACE
5
117f
330
1004
100
AcDbEntity
8
0
62
254
100
AcDbFace
10
-23.500000
20
-503.500000
30
-253.500000
11
-23.500000
21
-501.513807
31
-252.500000
12
-23.500000
22
502.500000
32
-252.500000
13
-23.500000
23
502.500000
33
-252.500000
70
15
0
3DFACE
5
1180
330
1004
100
AcDbEntity
8
0
62
254
100
AcDbFace
10
23.500000
20
527.500000
30
-277.500000
11
21.500000
21
527.500000
31
-277.500000
12
21.500000
22
527.500000
32
277.500000
13
23.500000
23
527.500000
33
277.500000
70
1
0
3DFACE
5
1181
330
1004
100
AcDbEntity
8
0
62
254
100
AcDbFace
10
23.500000
20
-527.500000
30
-277.500000
11
21.500000
21
-527.500000
31
-277.500000
12
21.500000
22
527.500000
32
-277.500000
13
23.500000
23
527.500000
33
-277.500000
70
1
0
3DFACE
5
1182
330
1004
100
AcDbEntity
8
0
62
254
100
AcDbFace
10
23.500000
20
-527.500000
30
277.500000
11
21.500000
21
-527.500000
31
277.500000
12
21.500000
22
-527.500000
32
-277.500000
13
23.500000
23
-527.500000
33
-277.500000
70
1
0
3DFACE
5
1183
330
1004
100
AcDbEntity
8
0
62
254
100
AcDbFace
10
23.500000
20
527.500000
30
277.500000
11
21.500000
21
527.500000
31
277.500000
12
21.500000
22
-527.500000
32
277.500000
13
23.500000
23
-527.500000
33
277.500000
70
1
0
3DFACE
5
1184
330
1004
100
AcDbEntity
8
0
62
254
100
AcDbFace
10
23.500000
20
502.500000
30
-252.500000
11
21.500000
21
502.500000
31
-252.500000
12
21.500000
22
502.500000
32
252.500000
13
23.500000
23
502.500000
33
252.500000
70
1
0
3DFACE
5
1185
330
1004
100
AcDbEntity
8
0
62
254
100
AcDbFace
10
23.500000
20
-502.500000
30
-252.500000
11
21.500000
21
-502.500000
31
-252.500000
12
21.500000
22
502.500000
32
-252.500000
13
23.500000
23
502.500000
33
-252.500000
70
1
0
3DFACE
5
1186
330
1004
100
AcDbEntity
8
0
62
254
100
AcDbFace
10
23.500000
20
-502.500000
30
252.500000
11
21.500000
21
-502.500000
31
252.500000
12
21.500000
22
-502.500000
32
-252.500000
13
23.500000
23
-502.500000
33
-252.500000
70
1
0
3DFACE
5
1187
330
1004
100
AcDbEntity
8
0
62
254
100
AcDbFace
10
23.500000
20
502.500000
30
252.500000
11
21.500000
21
502.500000
31
252.500000
12
21.500000
22
-502.500000
32
252.500000
13
23.500000
23
-502.500000
33
252.500000
70
1
0
3DFACE
5
1188
330
1004
100
AcDbEntity
8
0
62
254
100
AcDbFace
10
23.500000
20
-502.500000
30
-252.500000
11
23.500000
21
-479.977477
31
-252.500000
12
23.500000
22
-527.500000
32
-277.500000
13
23.500000
23
-527.500000
33
-277.500000
70
15
0
3DFACE
5
1189
330
1004
100
AcDbEntity
8
0
62
254
100
AcDbFace
10
23.500000
20
-502.500000
30
-252.500000
11
23.500000
21
-527.500000
31
-277.500000
12
23.500000
22
-527.500000
32
277.500000
13
23.500000
23
-527.500000
33
277.500000
70
15
0
3DFACE
5
118a
330
1004
100
AcDbEntity
8
0
62
254
100
AcDbFace
10
23.500000
20
-502.500000
30
252.500000
11
23.500000
21
-502.500000
31
-252.500000
12
23.500000
22
-527.500000
32
277.500000
13
23.500000
23
-527.500000
33
277.500000
70
15
0
3DFACE
5
118b
330
1004
100
AcDbEntity
8
0
62
254
100
AcDbFace
10
23.500000
20
-502.500000
30
252.500000
11
23.500000
21
-527.500000
31
277.500000
12
23.500000
22
527.500000
32
277.500000
13
23.500000
23
527.500000
33
277.500000
70
15
0
3DFACE
5
118c
330
1004
100
AcDbEntity
8
0
62
254
100
AcDbFace
10
23.500000
20
527.500000
30
277.500000
11
23.500000
21
479.977477
31
252.500000
12
23.500000
22
-502.500000
32
252.500000
13
23.500000
23
-502.500000
33
252.500000
70
15
0
3DFACE
5
118d
330
1004
100
AcDbEntity
8
0
62
254
100
AcDbFace
10
23.500000
20
502.500000
30
252.500000
11
23.500000
21
479.977477
31
252.500000
12
23.500000
22
527.500000
32
277.500000
13
23.500000
23
527.500000
33
277.500000
70
15
0
3DFACE
5
118e
330
1004
100
AcDbEntity
8
0
62
254
100
AcDbFace
10
23.500000
20
502.500000
30
252.500000
11
23.500000
21
527.500000
31
277.500000
12
23.500000
22
527.500000
32
-277.500000
13
23.500000
23
527.500000
33
-277.500000
70
15
0
3DFACE
5
118f
330
1004
100
AcDbEntity
8
0
62
254
100
AcDbFace
10
23.500000
20
502.500000
30
-252.500000
11
23.500000
21
502.500000
31
252.500000
12
23.500000
22
527.500000
32
-277.500000
13
23.500000
23
527.500000
33
-277.500000
70
15
0
3DFACE
5
1190
330
1004
100
AcDbEntity
8
0
62
254
100
AcDbFace
10
23.500000
20
502.500000
30
-252.500000
11
23.500000
21
527.500000
31
-277.500000
12
23.500000
22
-527.500000
32
-277.500000
13
23.500000
23
-527.500000
33
-277.500000
70
15
0
3DFACE
5
1191
330
1004
100
AcDbEntity
8
0
62
254
100
AcDbFace
10
23.500000
20
-527.500000
30
-277.500000
11
23.500000
21
-479.977477
31
-252.500000
12
23.500000
22
502.500000
32
-252.500000
13
23.500000
23
502.500000
33
-252.500000
70
15
0
3DFACE
5
1192
330
1004
100
AcDbEntity
8
0
62
254
100
AcDbFace
10
21.500000
20
-502.500000
30
-252.500000
11
21.500000
21
-479.977477
31
-252.500000
12
21.500000
22
-527.500000
32
-277.500000
13
21.500000
23
-527.500000
33
-277.500000
70
15
0
3DFACE
5
1193
330
1004
100
AcDbEntity
8
0
62
254
100
AcDbFace
10
21.500000
20
-502.500000
30
-252.500000
11
21.500000
21
-527.500000
31
-277.500000
12
21.500000
22
-527.500000
32
277.500000
13
21.500000
23
-527.500000
33
277.500000
70
15
0
3DFACE
5
1194
330
1004
100
AcDbEntity
8
0
62
254
100
AcDbFace
10
21.500000
20
-502.500000
30
252.500000
11
21.500000
21
-502.500000
31
-252.500000
12
21.500000
22
-527.500000
32
277.500000
13
21.500000
23
-527.500000
33
277.500000
70
15
0
3DFACE
5
1195
330
1004
100
AcDbEntity
8
0
62
254
100
AcDbFace
10
21.500000
20
-502.500000
30
252.500000
11
21.500000
21
-527.500000
31
277.500000
12
21.500000
22
527.500000
32
277.500000
13
21.500000
23
527.500000
33
277.500000
70
15
0
3DFACE
5
1196
330
1004
100
AcDbEntity
8
0
62
254
100
AcDbFace
10
21.500000
20
527.500000
30
277.500000
11
21.500000
21
479.977477
31
252.500000
12
21.500000
22
-502.500000
32
252.500000
13
21.500000
23
-502.500000
33
252.500000
70
15
0
3DFACE
5
1197
330
1004
100
AcDbEntity
8
0
62
254
100
AcDbFace
10
21.500000
20
502.500000
30
252.500000
11
21.500000
21
479.977477
31
252.500000
12
21.500000
22
527.500000
32
277.500000
13
21.500000
23
527.500000
33
277.500000
70
15
0
3DFACE
5
1198
330
1004
100
AcDbEntity
8
0
62
254
100
AcDbFace
10
21.500000
20
502.500000
30
252.500000
11
21.500000
21
527.500000
31
277.500000
12
21.500000
22
527.500000
32
-277.500000
13
21.500000
23
527.500000
33
-277.500000
70
15
0
3DFACE
5
1199
330
1004
100
AcDbEntity
8
0
62
254
100
AcDbFace
10
21.500000
20
502.500000
30
-252.500000
11
21.500000
21
502.500000
31
252.500000
12
21.500000
22
527.500000
32
-277.500000
13
21.500000
23
527.500000
33
-277.500000
70
15
0
3DFACE
5
119a
330
1004
100
AcDbEntity
8
0
62
254
100
AcDbFace
10
21.500000
20
502.500000
30
-252.500000
11
21.500000
21
527.500000
31
-277.500000
12
21.500000
22
-527.500000
32
-277.500000
13
21.500000
23
-527.500000
33
-277.500000
70
15
0
3DFACE
5
119b
330
1004
100
AcDbEntity
8
0
62
254
100
AcDbFace
10
21.500000
20
-527.500000
30
-277.500000
11
21.500000
21
-479.977477
31
-252.500000
12
21.500000
22
502.500000
32
-252.500000
13
21.500000
23
502.500000
33
-252.500000
70
15
0
3DFACE
5
119c
330
1004
100
AcDbEntity
8
0
62
252
100
AcDbFace
10
20.500000
20
511.000000
30
-261.000000
11
-4.000000
21
511.000000
31
-261.000000
12
-4.000000
22
511.000000
32
261.000000
13
20.500000
23
511.000000
33
261.000000
70
1
0
3DFACE
5
119d
330
1004
100
AcDbEntity
8
0
62
252
100
AcDbFace
10
20.500000
20
-511.000000
30
-261.000000
11
-4.000000
21
-511.000000
31
-261.000000
12
-4.000000
22
511.000000
32
-261.000000
13
20.500000
23
511.000000
33
-261.000000
70
1
0
3DFACE
5
119e
330
1004
100
AcDbEntity
8
0
62
252
100
AcDbFace
10
20.500000
20
-511.000000
30
261.000000
11
-4.000000
21
-511.000000
31
261.000000
12
-4.000000
22
-511.000000
32
-261.000000
13
20.500000
23
-511.000000
33
-261.000000
70
1
0
3DFACE
5
119f
330
1004
100
AcDbEntity
8
0
62
252
100
AcDbFace
10
20.500000
20
511.000000
30
261.000000
11
-4.000000
21
511.000000
31
261.000000
12
-4.000000
22
-511.000000
32
261.000000
13
20.500000
23
-511.000000
33
261.000000
70
1
0
3DFACE
5
11a0
330
1004
100
AcDbEntity
8
0
62
252
100
AcDbFace
10
20.500000
20
510.000000
30
-260.000000
11
-4.000000
21
510.000000
31
-260.000000
12
-4.000000
22
510.000000
32
260.000000
13
20.500000
23
510.000000
33
260.000000
70
1
0
3DFACE
5
11a1
330
1004
100
AcDbEntity
8
0
62
252
100
AcDbFace
10
20.500000
20
-510.000000
30
-260.000000
11
-4.000000
21
-510.000000
31
-260.000000
12
-4.000000
22
510.000000
32
-260.000000
13
20.500000
23
510.000000
33
-260.000000
70
1
0
3DFACE
5
11a2
330
1004
100
AcDbEntity
8
0
62
252
100
AcDbFace
10
20.500000
20
-510.000000
30
260.000000
11
-4.000000
21
-510.000000
31
260.000000
12
-4.000000
22
-510.000000
32
-260.000000
13
20.500000
23
-510.000000
33
-260.000000
70
1
0
3DFACE
5
11a3
330
1004
100
AcDbEntity
8
0
62
252
100
AcDbFace
10
20.500000
20
510.000000
30
260.000000
11
-4.000000
21
510.000000
31
260.000000
12
-4.000000
22
-510.000000
32
260.000000
13
20.500000
23
-510.000000
33
260.000000
70
1
0
3DFACE
5
11a4
330
1004
100
AcDbEntity
8
0
62
252
100
AcDbFace
10
20.500000
20
-510.000000
30
-260.000000
11
20.500000
21
-509.042146
31
-260.000000
12
20.500000
22
-511.000000
32
-261.000000
13
20.500000
23
-511.000000
33
-261.000000
70
15
0
3DFACE
5
11a5
330
1004
100
AcDbEntity
8
0
62
252
100
AcDbFace
10
20.500000
20
-510.000000
30
-260.000000
11
20.500000
21
-511.000000
31
-261.000000
12
20.500000
22
-511.000000
32
261.000000
13
20.500000
23
-511.000000
33
261.000000
70
15
0
3DFACE
5
11a6
330
1004
100
AcDbEntity
8
0
62
252
100
AcDbFace
10
20.500000
20
-510.000000
30
260.000000
11
20.500000
21
-510.000000
31
-260.000000
12
20.500000
22
-511.000000
32
261.000000
13
20.500000
23
-511.000000
33
261.000000
70
15
0
3DFACE
5
11a7
330
1004
100
AcDbEntity
8
0
62
252
100
AcDbFace
10
20.500000
20
-510.000000
30
260.000000
11
20.500000
21
-511.000000
31
261.000000
12
20.500000
22
511.000000
32
261.000000
13
20.500000
23
511.000000
33
261.000000
70
15
0
3DFACE
5
11a8
330
1004
100
AcDbEntity
8
0
62
252
100
AcDbFace
10
20.500000
20
511.000000
30
261.000000
11
20.500000
21
509.042146
31
260.000000
12
20.500000
22
-510.000000
32
260.000000
13
20.500000
23
-510.000000
33
260.000000
70
15
0
3DFACE
5
11a9
330
1004
100
AcDbEntity
8
0
62
252
100
AcDbFace
10
20.500000
20
510.000000
30
260.000000
11
20.500000
21
509.042146
31
260.000000
12
20.500000
22
511.000000
32
261.000000
13
20.500000
23
511.000000
33
261.000000
70
15
0
3DFACE
5
11aa
330
1004
100
AcDbEntity
8
0
62
252
100
AcDbFace
10
20.500000
20
510.000000
30
260.000000
11
20.500000
21
511.000000
31
261.000000
12
20.500000
22
511.000000
32
-261.000000
13
20.500000
23
511.000000
33
-261.000000
70
15
0
3DFACE
5
11ab
330
1004
100
AcDbEntity
8
0
62
252
100
AcDbFace
10
20.500000
20
510.000000
30
-260.000000
11
20.500000
21
510.000000
31
260.000000
12
20.500000
22
511.000000
32
-261.000000
13
20.500000
23
511.000000
33
-261.000000
70
15
0
3DFACE
5
11ac
330
1004
100
AcDbEntity
8
0
62
252
100
AcDbFace
10
20.500000
20
510.000000
30
-260.000000
11
20.500000
21
511.000000
31
-261.000000
12
20.500000
22
-511.000000
32
-261.000000
13
20.500000
23
-511.000000
33
-261.000000
70
15
0
3DFACE
5
11ad
330
1004
100
AcDbEntity
8
0
62
252
100
AcDbFace
10
20.500000
20
-511.000000
30
-261.000000
11
20.500000
21
-509.042146
31
-260.000000
12
20.500000
22
510.000000
32
-260.000000
13
20.500000
23
510.000000
33
-260.000000
70
15
0
3DFACE
5
11ae
330
1004
100
AcDbEntity
8
0
62
252
100
AcDbFace
10
-4.000000
20
-510.000000
30
-260.000000
11
-4.000000
21
-509.042146
31
-260.000000
12
-4.000000
22
-511.000000
32
-261.000000
13
-4.000000
23
-511.000000
33
-261.000000
70
15
0
3DFACE
5
11af
330
1004
100
AcDbEntity
8
0
62
252
100
AcDbFace
10
-4.000000
20
-510.000000
30
-260.000000
11
-4.000000
21
-511.000000
31
-261.000000
12
-4.000000
22
-511.000000
32
261.000000
13
-4.000000
23
-511.000000
33
261.000000
70
15
0
3DFACE
5
11b0
330
1004
100
AcDbEntity
8
0
62
252
100
AcDbFace
10
-4.000000
20
-510.000000
30
260.000000
11
-4.000000
21
-510.000000
31
-260.000000
12
-4.000000
22
-511.000000
32
261.000000
13
-4.000000
23
-511.000000
33
261.000000
70
15
0
3DFACE
5
11b1
330
1004
100
AcDbEntity
8
0
62
252
100
AcDbFace
10
-4.000000
20
-510.000000
30
260.000000
11
-4.000000
21
-511.000000
31
261.000000
12
-4.000000
22
511.000000
32
261.000000
13
-4.000000
23
511.000000
33
261.000000
70
15
0
3DFACE
5
11b2
330
1004
100
AcDbEntity
8
0
62
252
100
AcDbFace
10
-4.000000
20
511.000000
30
261.000000
11
-4.000000
21
509.042146
31
260.000000
12
-4.000000
22
-510.000000
32
260.000000
13
-4.000000
23
-510.000000
33
260.000000
70
15
0
3DFACE
5
11b3
330
1004
100
AcDbEntity
8
0
62
252
100
AcDbFace
10
-4.000000
20
510.000000
30
260.000000
11
-4.000000
21
509.042146
31
260.000000
12
-4.000000
22
511.000000
32
261.000000
13
-4.000000
23
511.000000
33
261.000000
70
15
0
3DFACE
5
11b4
330
1004
100
AcDbEntity
8
0
62
252
100
AcDbFace
10
-4.000000
20
510.000000
30
260.000000
11
-4.000000
21
511.000000
31
261.000000
12
-4.000000
22
511.000000
32
-261.000000
13
-4.000000
23
511.000000
33
-261.000000
70
15
0
3DFACE
5
11b5
330
1004
100
AcDbEntity
8
0
62
252
100
AcDbFace
10
-4.000000
20
510.000000
30
-260.000000
11
-4.000000
21
510.000000
31
260.000000
12
-4.000000
22
511.000000
32
-261.000000
13
-4.000000
23
511.000000
33
-261.000000
70
15
0
3DFACE
5
11b6
330
1004
100
AcDbEntity
8
0
62
252
100
AcDbFace
10
-4.000000
20
510.000000
30
-260.000000
11
-4.000000
21
511.000000
31
-261.000000
12
-4.000000
22
-511.000000
32
-261.000000
13
-4.000000
23
-511.000000
33
-261.000000
70
15
0
3DFACE
5
11b7
330
1004
100
AcDbEntity
8
0
62
252
100
AcDbFace
10
-4.000000
20
-511.000000
30
-261.000000
11
-4.000000
21
-509.042146
31
-260.000000
12
-4.000000
22
510.000000
32
-260.000000
13
-4.000000
23
510.000000
33
-260.000000
70
15
0
3DFACE
5
11b8
330
1004
100
AcDbEntity
8
0
62
252
100
AcDbFace
10
18.500000
20
511.000000
30
-277.299999
11
16.500000
21
511.000000
31
-277.299999
12
16.500000
22
511.000000
32
-261.000000
13
18.500000
23
511.000000
33
-261.000000
70
1
0
3DFACE
5
11b9
330
1004
100
AcDbEntity
8
0
62
252
100
AcDbFace
10
18.500000
20
-511.000000
30
-277.299999
11
16.500000
21
-511.000000
31
-277.299999
12
16.500000
22
511.000000
32
-277.299999
13
18.500000
23
511.000000
33
-277.299999
70
1
0
3DFACE
5
11ba
330
1004
100
AcDbEntity
8
0
62
252
100
AcDbFace
10
18.500000
20
-511.000000
30
-261.000000
11
16.500000
21
-511.000000
31
-261.000000
12
16.500000
22
-511.000000
32
-277.299999
13
18.500000
23
-511.000000
33
-277.299999
70
1
0
3DFACE
5
11bb
330
1004
100
AcDbEntity
8
0
62
252
100
AcDbFace
10
18.500000
20
511.000000
30
-261.000000
11
16.500000
21
511.000000
31
-261.000000
12
16.500000
22
-511.000000
32
-261.000000
13
18.500000
23
-511.000000
33
-261.000000
70
1
0
3DFACE
5
11bc
330
1004
100
AcDbEntity
8
0
62
252
100
AcDbFace
10
18.500000
20
511.000000
30
-261.000000
11
18.500000
21
511.000000
31
-277.299999
12
18.500000
22
-511.000000
32
-277.299999
13
18.500000
23
-511.000000
33
-261.000000
70
15
0
3DFACE
5
11bd
330
1004
100
AcDbEntity
8
0
62
252
100
AcDbFace
10
16.500000
20
511.000000
30
-261.000000
11
16.500000
21
511.000000
31
-277.299999
12
16.500000
22
-511.000000
32
-277.299999
13
16.500000
23
-511.000000
33
-261.000000
70
15
0
3DFACE
5
11be
330
1004
100
AcDbEntity
8
0
62
252
100
AcDbFace
10
18.500000
20
511.000000
30
261.000000
11
16.500000
21
511.000000
31
261.000000
12
16.500000
22
511.000000
32
277.299999
13
18.500000
23
511.000000
33
277.299999
70
1
0
3DFACE
5
11bf
330
1004
100
AcDbEntity
8
0
62
252
100
AcDbFace
10
18.500000
20
-511.000000
30
261.000000
11
16.500000
21
-511.000000
31
261.000000
12
16.500000
22
511.000000
32
261.000000
13
18.500000
23
511.000000
33
261.000000
70
1
0
3DFACE
5
11c0
330
1004
100
AcDbEntity
8
0
62
252
100
AcDbFace
10
18.500000
20
-511.000000
30
277.299999
11
16.500000
21
-511.000000
31
277.299999
12
16.500000
22
-511.000000
32
261.000000
13
18.500000
23
-511.000000
33
261.000000
70
1
0
3DFACE
5
11c1
330
1004
100
AcDbEntity
8
0
62
252
100
AcDbFace
10
18.500000
20
511.000000
30
277.299999
11
16.500000
21
511.000000
31
277.299999
12
16.500000
22
-511.000000
32
277.299999
13
18.500000
23
-511.000000
33
277.299999
70
1
0
3DFACE
5
11c2
330
1004
100
AcDbEntity
8
0
62
252
100
AcDbFace
10
18.500000
20
511.000000
30
277.299999
11
18.500000
21
511.000000
31
261.000000
12
18.500000
22
-511.000000
32
261.000000
13
18.500000
23
-511.000000
33
277.299999
70
15
0
3DFACE
5
11c3
330
1004
100
AcDbEntity
8
0
62
252
100
AcDbFace
10
16.500000
20
511.000000
30
277.299999
11
16.500000
21
511.000000
31
261.000000
12
16.500000
22
-511.000000
32
261.000000
13
16.500000
23
-511.000000
33
277.299999
70
15
0
3DFACE
5
11c4
330
1004
100
AcDbEntity
8
0
62
252
100
AcDbFace
10
18.500000
20
511.000000
30
261.000000
11
16.500000
21
511.000000
31
261.000000
12
16.500000
22
511.000000
32
-261.000000
13
18.500000
23
511.000000
33
-261.000000
70
1
0
3DFACE
5
11c5
330
1004
100
AcDbEntity
8
0
62
252
100
AcDbFace
10
18.500000
20
527.299999
30
261.000000
11
16.500000
21
527.299999
31
261.000000
12
16.500000
22
511.000000
32
261.000000
13
18.500000
23
511.000000
33
261.000000
70
1
0
3DFACE
5
11c6
330
1004
100
AcDbEntity
8
0
62
252
100
AcDbFace
10
18.500000
20
527.299999
30
-261.000000
11
16.500000
21
527.299999
31
-261.000000
12
16.500000
22
527.299999
32
261.000000
13
18.500000
23
527.299999
33
261.000000
70
1
0
3DFACE
5
11c7
330
1004
100
AcDbEntity
8
0
62
252
100
AcDbFace
10
18.500000
20
511.000000
30
-261.000000
11
16.500000
21
511.000000
31
-261.000000
12
16.500000
22
527.299999
32
-261.000000
13
18.500000
23
527.299999
33
-261.000000
70
1
0
3DFACE
5
11c8
330
1004
100
AcDbEntity
8
0
62
252
100
AcDbFace
10
18.500000
20
511.000000
30
-261.000000
11
18.500000
21
511.000000
31
261.000000
12
18.500000
22
527.299999
32
261.000000
13
18.500000
23
527.299999
33
-261.000000
70
15
0
3DFACE
5
11c9
330
1004
100
AcDbEntity
8
0
62
252
100
AcDbFace
10
16.500000
20
511.000000
30
-261.000000
11
16.500000
21
511.000000
31
261.000000
12
16.500000
22
527.299999
32
261.000000
13
16.500000
23
527.299999
33
-261.000000
70
15
0
3DFACE
5
11ca
330
1004
100
AcDbEntity
8
0
62
252
100
AcDbFace
10
18.500000
20
-527.299999
30
261.000000
11
16.500000
21
-527.299999
31
261.000000
12
16.500000
22
-527.299999
32
-261.000000
13
18.500000
23
-527.299999
33
-261.000000
70
1
0
3DFACE
5
11cb
330
1004
100
AcDbEntity
8
0
62
252
100
AcDbFace
10
18.500000
20
-511.000000
30
261.000000
11
16.500000
21
-511.000000
31
261.000000
12
16.500000
22
-527.299999
32
261.000000
13
18.500000
23
-527.299999
33
261.000000
70
1
0
3DFACE
5
11cc
330
1004
100
AcDbEntity
8
0
62
252
100
AcDbFace
10
18.500000
20
-511.000000
30
-261.000000
11
16.500000
21
-511.000000
31
-261.000000
12
16.500000
22
-511.000000
32
261.000000
13
18.500000
23
-511.000000
33
261.000000
70
1
0
3DFACE
5
11cd
330
1004
100
AcDbEntity
8
0
62
252
100
AcDbFace
10
18.500000
20
-527.299999
30
-261.000000
11
16.500000
21
-527.299999
31
-261.000000
12
16.500000
22
-511.000000
32
-261.000000
13
18.500000
23
-511.000000
33
-261.000000
70
1
0
3DFACE
5
11ce
330
1004
100
AcDbEntity
8
0
62
252
100
AcDbFace
10
18.500000
20
-527.299999
30
-261.000000
11
18.500000
21
-527.299999
31
261.000000
12
18.500000
22
-511.000000
32
261.000000
13
18.500000
23
-511.000000
33
-261.000000
70
15
0
3DFACE
5
11cf
330
1004
100
AcDbEntity
8
0
62
252
100
AcDbFace
10
16.500000
20
-527.299999
30
-261.000000
11
16.500000
21
-527.299999
31
261.000000
12
16.500000
22
-511.000000
32
261.000000
13
16.500000
23
-511.000000
33
-261.000000
70
15
0
3DFACE
5
11d0
330
1004
100
AcDbEntity
8
0
62
8
100
AcDbFace
10
5.116913
20
0.000000
30
-259.647638
11
0.287284
21
0.000000
31
-260.682914
12
0.287284
22
-10.000000
32
-260.682914
13
5.116913
23
-10.000000
33
-259.647638
70
0
0
3DFACE
5
11d1
330
1004
100
AcDbEntity
8
0
62
8
100
AcDbFace
10
0.287284
20
0.000000
30
-260.682914
11
-12.000000
21
0.000000
31
-253.800000
12
-12.000000
22
-10.000000
32
-253.800000
13
0.287284
23
-10.000000
33
-260.682914
70
0
0
3DFACE
5
11d2
330
1004
100
AcDbEntity
8
0
62
8
100
AcDbFace
10
-9.170371
20
0.000000
30
-251.164724
11
-14.000000
21
0.000000
31
-252.200000
12
-14.000000
22
-10.000000
32
-252.200000
13
-9.170371
23
-10.000000
33
-251.164724
70
0
0
3DFACE
5
11d3
330
1004
100
AcDbEntity
8
0
62
8
100
AcDbFace
10
-12.000000
20
0.000000
30
-253.800000
11
-22.000000
21
-0.000000
31
-253.800000
12
-22.000000
22
-10.000000
32
-253.800000
13
-12.000000
23
-10.000000
33
-253.800000
70
0
0
3DFACE
5
11d4
330
1004
100
AcDbEntity
8
0
62
8
100
AcDbFace
10
-14.000000
20
0.000000
30
-252.200000
11
-22.000000
21
-0.000000
31
-252.200000
12
-22.000000
22
-10.000000
32
-252.200000
13
-14.000000
23
-10.000000
33
-252.200000
70
0
0
POLYLINE
5
11d5
330
1004
100
AcDbEntity
8
0
62
8
100
AcDbPolygonMesh
66
1
10
0.0
20
0.0
30
0.0
70
16
71
17
72
2
0
VERTEX
5
11d6
330
11d5
100
AcDbEntity
8
0
62
8
100
AcDbVertex
100
AcDbPolygonMeshVertex
10
-22.000000
20
-10.000000
30
-252.200000
70
64
0
VERTEX
5
11d7
330
11d5
100
AcDbEntity
8
0
62
8
100
AcDbVertex
100
AcDbPolygonMeshVertex
10
-22.000000
20
0.000000
30
-252.200000
70
64
0
VERTEX
5
11d8
330
11d5
100
AcDbEntity
8
0
62
8
100
AcDbVertex
100
AcDbPolygonMeshVertex
10
-22.156072
20
-10.000000
30
-252.215372
70
64
0
VERTEX
5
11d9
330
11d5
100
AcDbEntity
8
0
62
8
100
AcDbVertex
100
AcDbPolygonMeshVertex
10
-22.156072
20
0.000000
30
-252.215372
70
64
0
VERTEX
5
11da
330
11d5
100
AcDbEntity
8
0
62
8
100
AcDbVertex
100
AcDbPolygonMeshVertex
10
-22.306147
20
-10.000000
30
-252.260896
70
64
0
VERTEX
5
11db
330
11d5
100
AcDbEntity
8
0
62
8
100
AcDbVertex
100
AcDbPolygonMeshVertex
10
-22.306147
20
0.000000
30
-252.260896
70
64
0
VERTEX
5
11dc
330
11d5
100
AcDbEntity
8
0
62
8
100
AcDbVertex
100
AcDbPolygonMeshVertex
10
-22.444456
20
-10.000000
30
-252.334824
70
64
0
VERTEX
5
11dd
330
11d5
100
AcDbEntity
8
0
62
8
100
AcDbVertex
100
AcDbPolygonMeshVertex
10
-22.444456
20
0.000000
30
-252.334824
70
64
0
VERTEX
5
11de
330
11d5
100
AcDbEntity
8
0
62
8
100
AcDbVertex
100
AcDbPolygonMeshVertex
10
-22.565685
20
-10.000000
30
-252.434315
70
64
0
VERTEX
5
11df
330
11d5
100
AcDbEntity
8
0
62
8
100
AcDbVertex
100
AcDbPolygonMeshVertex
10
-22.565685
20
0.000000
30
-252.434315
70
64
0
VERTEX
5
11e0
330
11d5
100
AcDbEntity
8
0
62
8
100
AcDbVertex
100
AcDbPolygonMeshVertex
10
-22.665176
20
-10.000000
30
-252.555544
70
64
0
VERTEX
5
11e1
330
11d5
100
AcDbEntity
8
0
62
8
100
AcDbVertex
100
AcDbPolygonMeshVertex
10
-22.665176
20
0.000000
30
-252.555544
70
64
0
VERTEX
5
11e2
330
11d5
100
AcDbEntity
8
0
62
8
100
AcDbVertex
100
AcDbPolygonMeshVertex
10
-22.739104
20
-10.000000
30
-252.693853
70
64
0
VERTEX
5
11e3
330
11d5
100
AcDbEntity
8
0
62
8
100
AcDbVertex
100
AcDbPolygonMeshVertex
10
-22.739104
20
0.000000
30
-252.693853
70
64
0
VERTEX
5
11e4
330
11d5
100
AcDbEntity
8
0
62
8
100
AcDbVertex
100
AcDbPolygonMeshVertex
10
-22.784628
20
-10.000000
30
-252.843928
70
64
0
VERTEX
5
11e5
330
11d5
100
AcDbEntity
8
0
62
8
100
AcDbVertex
100
AcDbPolygonMeshVertex
10
-22.784628
20
0.000000
30
-252.843928
70
64
0
VERTEX
5
11e6
330
11d5
100
AcDbEntity
8
0
62
8
100
AcDbVertex
100
AcDbPolygonMeshVertex
10
-22.800000
20
-10.000000
30
-253.000000
70
64
0
VERTEX
5
11e7
330
11d5
100
AcDbEntity
8
0
62
8
100
AcDbVertex
100
AcDbPolygonMeshVertex
10
-22.800000
20
0.000000
30
-253.000000
70
64
0
VERTEX
5
11e8
330
11d5
100
AcDbEntity
8
0
62
8
100
AcDbVertex
100
AcDbPolygonMeshVertex
10
-22.784628
20
-10.000000
30
-253.156072
70
64
0
VERTEX
5
11e9
330
11d5
100
AcDbEntity
8
0
62
8
100
AcDbVertex
100
AcDbPolygonMeshVertex
10
-22.784628
20
0.000000
30
-253.156072
70
64
0
VERTEX
5
11ea
330
11d5
100
AcDbEntity
8
0
62
8
100
AcDbVertex
100
AcDbPolygonMeshVertex
10
-22.739104
20
-10.000000
30
-253.306147
70
64
0
VERTEX
5
11eb
330
11d5
100
AcDbEntity
8
0
62
8
100
AcDbVertex
100
AcDbPolygonMeshVertex
10
-22.739104
20
0.000000
30
-253.306147
70
64
0
VERTEX
5
11ec
330
11d5
100
AcDbEntity
8
0
62
8
100
AcDbVertex
100
AcDbPolygonMeshVertex
10
-22.665176
20
-10.000000
30
-253.444456
70
64
0
VERTEX
5
11ed
330
11d5
100
AcDbEntity
8
0
62
8
100
AcDbVertex
100
AcDbPolygonMeshVertex
10
-22.665176
20
0.000000
30
-253.444456
70
64
0
VERTEX
5
11ee
330
11d5
100
AcDbEntity
8
0
62
8
100
AcDbVertex
100
AcDbPolygonMeshVertex
10
-22.565685
20
-10.000000
30
-253.565685
70
64
0
VERTEX
5
11ef
330
11d5
100
AcDbEntity
8
0
62
8
100
AcDbVertex
100
AcDbPolygonMeshVertex
10
-22.565685
20
0.000000
30
-253.565685
70
64
0
VERTEX
5
11f0
330
11d5
100
AcDbEntity
8
0
62
8
100
AcDbVertex
100
AcDbPolygonMeshVertex
10
-22.444456
20
-10.000000
30
-253.665176
70
64
0
VERTEX
5
11f1
330
11d5
100
AcDbEntity
8
0
62
8
100
AcDbVertex
100
AcDbPolygonMeshVertex
10
-22.444456
20
0.000000
30
-253.665176
70
64
0
VERTEX
5
11f2
330
11d5
100
AcDbEntity
8
0
62
8
100
AcDbVertex
100
AcDbPolygonMeshVertex
10
-22.306147
20
-10.000000
30
-253.739104
70
64
0
VERTEX
5
11f3
330
11d5
100
AcDbEntity
8
0
62
8
100
AcDbVertex
100
AcDbPolygonMeshVertex
10
-22.306147
20
0.000000
30
-253.739104
70
64
0
VERTEX
5
11f4
330
11d5
100
AcDbEntity
8
0
62
8
100
AcDbVertex
100
AcDbPolygonMeshVertex
10
-22.156072
20
-10.000000
30
-253.784628
70
64
0
VERTEX
5
11f5
330
11d5
100
AcDbEntity
8
0
62
8
100
AcDbVertex
100
AcDbPolygonMeshVertex
10
-22.156072
20
0.000000
30
-253.784628
70
64
0
VERTEX
5
11f6
330
11d5
100
AcDbEntity
8
0
62
8
100
AcDbVertex
100
AcDbPolygonMeshVertex
10
-22.000000
20
-10.000000
30
-253.800000
70
64
0
VERTEX
5
11f7
330
11d5
100
AcDbEntity
8
0
62
8
100
AcDbVertex
100
AcDbPolygonMeshVertex
10
-22.000000
20
0.000000
30
-253.800000
70
64
0
SEQEND
5
11f8
330
11d5
100
AcDbEntity
8
0
62
8
0
3DFACE
5
11f9
330
1004
100
AcDbEntity
8
0
62
8
100
AcDbFace
10
5.116913
20
-0.000000
30
259.647638
11
0.287284
21
-0.000000
31
260.682914
12
0.287284
22
10.000000
32
260.682914
13
5.116913
23
10.000000
33
259.647638
70
0
0
3DFACE
5
11fa
330
1004
100
AcDbEntity
8
0
62
8
100
AcDbFace
10
0.287284
20
-0.000000
30
260.682914
11
-12.000000
21
-0.000000
31
253.800000
12
-12.000000
22
10.000000
32
253.800000
13
0.287284
23
10.000000
33
260.682914
70
0
0
3DFACE
5
11fb
330
1004
100
AcDbEntity
8
0
62
8
100
AcDbFace
10
-9.170371
20
-0.000000
30
251.164724
11
-14.000000
21
-0.000000
31
252.200000
12
-14.000000
22
10.000000
32
252.200000
13
-9.170371
23
10.000000
33
251.164724
70
0
0
3DFACE
5
11fc
330
1004
100
AcDbEntity
8
0
62
8
100
AcDbFace
10
-12.000000
20
-0.000000
30
253.800000
11
-22.000000
21
0.000000
31
253.800000
12
-22.000000
22
10.000000
32
253.800000
13
-12.000000
23
10.000000
33
253.800000
70
0
0
3DFACE
5
11fd
330
1004
100
AcDbEntity
8
0
62
8
100
AcDbFace
10
-14.000000
20
-0.000000
30
252.200000
11
-22.000000
21
0.000000
31
252.200000
12
-22.000000
22
10.000000
32
252.200000
13
-14.000000
23
10.000000
33
252.200000
70
0
0
POLYLINE
5
11fe
330
1004
100
AcDbEntity
8
0
62
8
100
AcDbPolygonMesh
66
1
10
0.0
20
0.0
30
0.0
70
16
71
17
72
2
0
VERTEX
5
11ff
330
11fe
100
AcDbEntity
8
0
62
8
100
AcDbVertex
100
AcDbPolygonMeshVertex
10
-22.000000
20
10.000000
30
252.200000
70
64
0
VERTEX
5
1200
330
11fe
100
AcDbEntity
8
0
62
8
100
AcDbVertex
100
AcDbPolygonMeshVertex
10
-22.000000
20
0.000000
30
252.200000
70
64
0
VERTEX
5
1201
330
11fe
100
AcDbEntity
8
0
62
8
100
AcDbVertex
100
AcDbPolygonMeshVertex
10
-22.156072
20
10.000000
30
252.215372
70
64
0
VERTEX
5
1202
330
11fe
100
AcDbEntity
8
0
62
8
100
AcDbVertex
100
AcDbPolygonMeshVertex
10
-22.156072
20
0.000000
30
252.215372
70
64
0
VERTEX
5
1203
330
11fe
100
AcDbEntity
8
0
62
8
100
AcDbVertex
100
AcDbPolygonMeshVertex
10
-22.306147
20
10.000000
30
252.260896
70
64
0
VERTEX
5
1204
330
11fe
100
AcDbEntity
8
0
62
8
100
AcDbVertex
100
AcDbPolygonMeshVertex
10
-22.306147
20
0.000000
30
252.260896
70
64
0
VERTEX
5
1205
330
11fe
100
AcDbEntity
8
0
62
8
100
AcDbVertex
100
AcDbPolygonMeshVertex
10
-22.444456
20
10.000000
30
252.334824
70
64
0
VERTEX
5
1206
330
11fe
100
AcDbEntity
8
0
62
8
100
AcDbVertex
100
AcDbPolygonMeshVertex
10
-22.444456
20
0.000000
30
252.334824
70
64
0
VERTEX
5
1207
330
11fe
100
AcDbEntity
8
0
62
8
100
AcDbVertex
100
AcDbPolygonMeshVertex
10
-22.565685
20
10.000000
30
252.434315
70
64
0
VERTEX
5
1208
330
11fe
100
AcDbEntity
8
0
62
8
100
AcDbVertex
100
AcDbPolygonMeshVertex
10
-22.565685
20
0.000000
30
252.434315
70
64
0
VERTEX
5
1209
330
11fe
100
AcDbEntity
8
0
62
8
100
AcDbVertex
100
AcDbPolygonMeshVertex
10
-22.665176
20
10.000000
30
252.555544
70
64
0
VERTEX
5
120a
330
11fe
100
AcDbEntity
8
0
62
8
100
AcDbVertex
100
AcDbPolygonMeshVertex
10
-22.665176
20
0.000000
30
252.555544
70
64
0
VERTEX
5
120b
330
11fe
100
AcDbEntity
8
0
62
8
100
AcDbVertex
100
AcDbPolygonMeshVertex
10
-22.739104
20
10.000000
30
252.693853
70
64
0
VERTEX
5
120c
330
11fe
100
AcDbEntity
8
0
62
8
100
AcDbVertex
100
AcDbPolygonMeshVertex
10
-22.739104
20
0.000000
30
252.693853
70
64
0
VERTEX
5
120d
330
11fe
100
AcDbEntity
8
0
62
8
100
AcDbVertex
100
AcDbPolygonMeshVertex
10
-22.784628
20
10.000000
30
252.843928
70
64
0
VERTEX
5
120e
330
11fe
100
AcDbEntity
8
0
62
8
100
AcDbVertex
100
AcDbPolygonMeshVertex
10
-22.784628
20
0.000000
30
252.843928
70
64
0
VERTEX
5
120f
330
11fe
100
AcDbEntity
8
0
62
8
100
AcDbVertex
100
AcDbPolygonMeshVertex
10
-22.800000
20
10.000000
30
253.000000
70
64
0
VERTEX
5
1210
330
11fe
100
AcDbEntity
8
0
62
8
100
AcDbVertex
100
AcDbPolygonMeshVertex
10
-22.800000
20
0.000000
30
253.000000
70
64
0
VERTEX
5
1211
330
11fe
100
AcDbEntity
8
0
62
8
100
AcDbVertex
100
AcDbPolygonMeshVertex
10
-22.784628
20
10.000000
30
253.156072
70
64
0
VERTEX
5
1212
330
11fe
100
AcDbEntity
8
0
62
8
100
AcDbVertex
100
AcDbPolygonMeshVertex
10
-22.784628
20
0.000000
30
253.156072
70
64
0
VERTEX
5
1213
330
11fe
100
AcDbEntity
8
0
62
8
100
AcDbVertex
100
AcDbPolygonMeshVertex
10
-22.739104
20
10.000000
30
253.306147
70
64
0
VERTEX
5
1214
330
11fe
100
AcDbEntity
8
0
62
8
100
AcDbVertex
100
AcDbPolygonMeshVertex
10
-22.739104
20
0.000000
30
253.306147
70
64
0
VERTEX
5
1215
330
11fe
100
AcDbEntity
8
0
62
8
100
AcDbVertex
100
AcDbPolygonMeshVertex
10
-22.665176
20
10.000000
30
253.444456
70
64
0
VERTEX
5
1216
330
11fe
100
AcDbEntity
8
0
62
8
100
AcDbVertex
100
AcDbPolygonMeshVertex
10
-22.665176
20
0.000000
30
253.444456
70
64
0
VERTEX
5
1217
330
11fe
100
AcDbEntity
8
0
62
8
100
AcDbVertex
100
AcDbPolygonMeshVertex
10
-22.565685
20
10.000000
30
253.565685
70
64
0
VERTEX
5
1218
330
11fe
100
AcDbEntity
8
0
62
8
100
AcDbVertex
100
AcDbPolygonMeshVertex
10
-22.565685
20
0.000000
30
253.565685
70
64
0
VERTEX
5
1219
330
11fe
100
AcDbEntity
8
0
62
8
100
AcDbVertex
100
AcDbPolygonMeshVertex
10
-22.444456
20
10.000000
30
253.665176
70
64
0
VERTEX
5
121a
330
11fe
100
AcDbEntity
8
0
62
8
100
AcDbVertex
100
AcDbPolygonMeshVertex
10
-22.444456
20
0.000000
30
253.665176
70
64
0
VERTEX
5
121b
330
11fe
100
AcDbEntity
8
0
62
8
100
AcDbVertex
100
AcDbPolygonMeshVertex
10
-22.306147
20
10.000000
30
253.739104
70
64
0
VERTEX
5
121c
330
11fe
100
AcDbEntity
8
0
62
8
100
AcDbVertex
100
AcDbPolygonMeshVertex
10
-22.306147
20
0.000000
30
253.739104
70
64
0
VERTEX
5
121d
330
11fe
100
AcDbEntity
8
0
62
8
100
AcDbVertex
100
AcDbPolygonMeshVertex
10
-22.156072
20
10.000000
30
253.784628
70
64
0
VERTEX
5
121e
330
11fe
100
AcDbEntity
8
0
62
8
100
AcDbVertex
100
AcDbPolygonMeshVertex
10
-22.156072
20
0.000000
30
253.784628
70
64
0
VERTEX
5
121f
330
11fe
100
AcDbEntity
8
0
62
8
100
AcDbVertex
100
AcDbPolygonMeshVertex
10
-22.000000
20
10.000000
30
253.800000
70
64
0
VERTEX
5
1220
330
11fe
100
AcDbEntity
8
0
62
8
100
AcDbVertex
100
AcDbPolygonMeshVertex
10
-22.000000
20
0.000000
30
253.800000
70
64
0
SEQEND
5
1221
330
11fe
100
AcDbEntity
8
0
62
8
0
3DFACE
5
1222
330
1004
100
AcDbEntity
8
0
62
8
100
AcDbFace
10
5.116913
20
-456.000000
30
-259.647638
11
0.287284
21
-456.000000
31
-260.682914
12
0.287284
22
-466.000000
32
-260.682914
13
5.116913
23
-466.000000
33
-259.647638
70
0
0
3DFACE
5
1223
330
1004
100
AcDbEntity
8
0
62
8
100
AcDbFace
10
0.287284
20
-456.000000
30
-260.682914
11
-12.000000
21
-456.000000
31
-253.800000
12
-12.000000
22
-466.000000
32
-253.800000
13
0.287284
23
-466.000000
33
-260.682914
70
0
0
3DFACE
5
1224
330
1004
100
AcDbEntity
8
0
62
8
100
AcDbFace
10
-9.170371
20
-456.000000
30
-251.164724
11
-14.000000
21
-456.000000
31
-252.200000
12
-14.000000
22
-466.000000
32
-252.200000
13
-9.170371
23
-466.000000
33
-251.164724
70
0
0
3DFACE
5
1225
330
1004
100
AcDbEntity
8
0
62
8
100
AcDbFace
10
-12.000000
20
-456.000000
30
-253.800000
11
-22.000000
21
-456.000000
31
-253.800000
12
-22.000000
22
-466.000000
32
-253.800000
13
-12.000000
23
-466.000000
33
-253.800000
70
0
0
3DFACE
5
1226
330
1004
100
AcDbEntity
8
0
62
8
100
AcDbFace
10
-14.000000
20
-456.000000
30
-252.200000
11
-22.000000
21
-456.000000
31
-252.200000
12
-22.000000
22
-466.000000
32
-252.200000
13
-14.000000
23
-466.000000
33
-252.200000
70
0
0
POLYLINE
5
1227
330
1004
100
AcDbEntity
8
0
62
8
100
AcDbPolygonMesh
66
1
10
0.0
20
0.0
30
0.0
70
16
71
17
72
2
0
VERTEX
5
1228
330
1227
100
AcDbEntity
8
0
62
8
100
AcDbVertex
100
AcDbPolygonMeshVertex
10
-22.000000
20
-466.000000
30
-252.200000
70
64
0
VERTEX
5
1229
330
1227
100
AcDbEntity
8
0
62
8
100
AcDbVertex
100
AcDbPolygonMeshVertex
10
-22.000000
20
-456.000000
30
-252.200000
70
64
0
VERTEX
5
122a
330
1227
100
AcDbEntity
8
0
62
8
100
AcDbVertex
100
AcDbPolygonMeshVertex
10
-22.156072
20
-466.000000
30
-252.215372
70
64
0
VERTEX
5
122b
330
1227
100
AcDbEntity
8
0
62
8
100
AcDbVertex
100
AcDbPolygonMeshVertex
10
-22.156072
20
-456.000000
30
-252.215372
70
64
0
VERTEX
5
122c
330
1227
100
AcDbEntity
8
0
62
8
100
AcDbVertex
100
AcDbPolygonMeshVertex
10
-22.306147
20
-466.000000
30
-252.260896
70
64
0
VERTEX
5
122d
330
1227
100
AcDbEntity
8
0
62
8
100
AcDbVertex
100
AcDbPolygonMeshVertex
10
-22.306147
20
-456.000000
30
-252.260896
70
64
0
VERTEX
5
122e
330
1227
100
AcDbEntity
8
0
62
8
100
AcDbVertex
100
AcDbPolygonMeshVertex
10
-22.444456
20
-466.000000
30
-252.334824
70
64
0
VERTEX
5
122f
330
1227
100
AcDbEntity
8
0
62
8
100
AcDbVertex
100
AcDbPolygonMeshVertex
10
-22.444456
20
-456.000000
30
-252.334824
70
64
0
VERTEX
5
1230
330
1227
100
AcDbEntity
8
0
62
8
100
AcDbVertex
100
AcDbPolygonMeshVertex
10
-22.565685
20
-466.000000
30
-252.434315
70
64
0
VERTEX
5
1231
330
1227
100
AcDbEntity
8
0
62
8
100
AcDbVertex
100
AcDbPolygonMeshVertex
10
-22.565685
20
-456.000000
30
-252.434315
70
64
0
VERTEX
5
1232
330
1227
100
AcDbEntity
8
0
62
8
100
AcDbVertex
100
AcDbPolygonMeshVertex
10
-22.665176
20
-466.000000
30
-252.555544
70
64
0
VERTEX
5
1233
330
1227
100
AcDbEntity
8
0
62
8
100
AcDbVertex
100
AcDbPolygonMeshVertex
10
-22.665176
20
-456.000000
30
-252.555544
70
64
0
VERTEX
5
1234
330
1227
100
AcDbEntity
8
0
62
8
100
AcDbVertex
100
AcDbPolygonMeshVertex
10
-22.739104
20
-466.000000
30
-252.693853
70
64
0
VERTEX
5
1235
330
1227
100
AcDbEntity
8
0
62
8
100
AcDbVertex
100
AcDbPolygonMeshVertex
10
-22.739104
20
-456.000000
30
-252.693853
70
64
0
VERTEX
5
1236
330
1227
100
AcDbEntity
8
0
62
8
100
AcDbVertex
100
AcDbPolygonMeshVertex
10
-22.784628
20
-466.000000
30
-252.843928
70
64
0
VERTEX
5
1237
330
1227
100
AcDbEntity
8
0
62
8
100
AcDbVertex
100
AcDbPolygonMeshVertex
10
-22.784628
20
-456.000000
30
-252.843928
70
64
0
VERTEX
5
1238
330
1227
100
AcDbEntity
8
0
62
8
100
AcDbVertex
100
AcDbPolygonMeshVertex
10
-22.800000
20
-466.000000
30
-253.000000
70
64
0
VERTEX
5
1239
330
1227
100
AcDbEntity
8
0
62
8
100
AcDbVertex
100
AcDbPolygonMeshVertex
10
-22.800000
20
-456.000000
30
-253.000000
70
64
0
VERTEX
5
123a
330
1227
100
AcDbEntity
8
0
62
8
100
AcDbVertex
100
AcDbPolygonMeshVertex
10
-22.784628
20
-466.000000
30
-253.156072
70
64
0
VERTEX
5
123b
330
1227
100
AcDbEntity
8
0
62
8
100
AcDbVertex
100
AcDbPolygonMeshVertex
10
-22.784628
20
-456.000000
30
-253.156072
70
64
0
VERTEX
5
123c
330
1227
100
AcDbEntity
8
0
62
8
100
AcDbVertex
100
AcDbPolygonMeshVertex
10
-22.739104
20
-466.000000
30
-253.306147
70
64
0
VERTEX
5
123d
330
1227
100
AcDbEntity
8
0
62
8
100
AcDbVertex
100
AcDbPolygonMeshVertex
10
-22.739104
20
-456.000000
30
-253.306147
70
64
0
VERTEX
5
123e
330
1227
100
AcDbEntity
8
0
62
8
100
AcDbVertex
100
AcDbPolygonMeshVertex
10
-22.665176
20
-466.000000
30
-253.444456
70
64
0
VERTEX
5
123f
330
1227
100
AcDbEntity
8
0
62
8
100
AcDbVertex
100
AcDbPolygonMeshVertex
10
-22.665176
20
-456.000000
30
-253.444456
70
64
0
VERTEX
5
1240
330
1227
100
AcDbEntity
8
0
62
8
100
AcDbVertex
100
AcDbPolygonMeshVertex
10
-22.565685
20
-466.000000
30
-253.565685
70
64
0
VERTEX
5
1241
330
1227
100
AcDbEntity
8
0
62
8
100
AcDbVertex
100
AcDbPolygonMeshVertex
10
-22.565685
20
-456.000000
30
-253.565685
70
64
0
VERTEX
5
1242
330
1227
100
AcDbEntity
8
0
62
8
100
AcDbVertex
100
AcDbPolygonMeshVertex
10
-22.444456
20
-466.000000
30
-253.665176
70
64
0
VERTEX
5
1243
330
1227
100
AcDbEntity
8
0
62
8
100
AcDbVertex
100
AcDbPolygonMeshVertex
10
-22.444456
20
-456.000000
30
-253.665176
70
64
0
VERTEX
5
1244
330
1227
100
AcDbEntity
8
0
62
8
100
AcDbVertex
100
AcDbPolygonMeshVertex
10
-22.306147
20
-466.000000
30
-253.739104
70
64
0
VERTEX
5
1245
330
1227
100
AcDbEntity
8
0
62
8
100
AcDbVertex
100
AcDbPolygonMeshVertex
10
-22.306147
20
-456.000000
30
-253.739104
70
64
0
VERTEX
5
1246
330
1227
100
AcDbEntity
8
0
62
8
100
AcDbVertex
100
AcDbPolygonMeshVertex
10
-22.156072
20
-466.000000
30
-253.784628
70
64
0
VERTEX
5
1247
330
1227
100
AcDbEntity
8
0
62
8
100
AcDbVertex
100
AcDbPolygonMeshVertex
10
-22.156072
20
-456.000000
30
-253.784628
70
64
0
VERTEX
5
1248
330
1227
100
AcDbEntity
8
0
62
8
100
AcDbVertex
100
AcDbPolygonMeshVertex
10
-22.000000
20
-466.000000
30
-253.800000
70
64
0
VERTEX
5
1249
330
1227
100
AcDbEntity
8
0
62
8
100
AcDbVertex
100
AcDbPolygonMeshVertex
10
-22.000000
20
-456.000000
30
-253.800000
70
64
0
SEQEND
5
124a
330
1227
100
AcDbEntity
8
0
62
8
0
3DFACE
5
124b
330
1004
100
AcDbEntity
8
0
62
8
100
AcDbFace
10
5.116913
20
456.000000
30
-259.647638
11
0.287284
21
456.000000
31
-260.682914
12
0.287284
22
446.000000
32
-260.682914
13
5.116913
23
446.000000
33
-259.647638
70
0
0
3DFACE
5
124c
330
1004
100
AcDbEntity
8
0
62
8
100
AcDbFace
10
0.287284
20
456.000000
30
-260.682914
11
-12.000000
21
456.000000
31
-253.800000
12
-12.000000
22
446.000000
32
-253.800000
13
0.287284
23
446.000000
33
-260.682914
70
0
0
3DFACE
5
124d
330
1004
100
AcDbEntity
8
0
62
8
100
AcDbFace
10
-9.170371
20
456.000000
30
-251.164724
11
-14.000000
21
456.000000
31
-252.200000
12
-14.000000
22
446.000000
32
-252.200000
13
-9.170371
23
446.000000
33
-251.164724
70
0
0
3DFACE
5
124e
330
1004
100
AcDbEntity
8
0
62
8
100
AcDbFace
10
-12.000000
20
456.000000
30
-253.800000
11
-22.000000
21
456.000000
31
-253.800000
12
-22.000000
22
446.000000
32
-253.800000
13
-12.000000
23
446.000000
33
-253.800000
70
0
0
3DFACE
5
124f
330
1004
100
AcDbEntity
8
0
62
8
100
AcDbFace
10
-14.000000
20
456.000000
30
-252.200000
11
-22.000000
21
456.000000
31
-252.200000
12
-22.000000
22
446.000000
32
-252.200000
13
-14.000000
23
446.000000
33
-252.200000
70
0
0
POLYLINE
5
1250
330
1004
100
AcDbEntity
8
0
62
8
100
AcDbPolygonMesh
66
1
10
0.0
20
0.0
30
0.0
70
16
71
17
72
2
0
VERTEX
5
1251
330
1250
100
AcDbEntity
8
0
62
8
100
AcDbVertex
100
AcDbPolygonMeshVertex
10
-22.000000
20
446.000000
30
-252.200000
70
64
0
VERTEX
5
1252
330
1250
100
AcDbEntity
8
0
62
8
100
AcDbVertex
100
AcDbPolygonMeshVertex
10
-22.000000
20
456.000000
30
-252.200000
70
64
0
VERTEX
5
1253
330
1250
100
AcDbEntity
8
0
62
8
100
AcDbVertex
100
AcDbPolygonMeshVertex
10
-22.156072
20
446.000000
30
-252.215372
70
64
0
VERTEX
5
1254
330
1250
100
AcDbEntity
8
0
62
8
100
AcDbVertex
100
AcDbPolygonMeshVertex
10
-22.156072
20
456.000000
30
-252.215372
70
64
0
VERTEX
5
1255
330
1250
100
AcDbEntity
8
0
62
8
100
AcDbVertex
100
AcDbPolygonMeshVertex
10
-22.306147
20
446.000000
30
-252.260896
70
64
0
VERTEX
5
1256
330
1250
100
AcDbEntity
8
0
62
8
100
AcDbVertex
100
AcDbPolygonMeshVertex
10
-22.306147
20
456.000000
30
-252.260896
70
64
0
VERTEX
5
1257
330
1250
100
AcDbEntity
8
0
62
8
100
AcDbVertex
100
AcDbPolygonMeshVertex
10
-22.444456
20
446.000000
30
-252.334824
70
64
0
VERTEX
5
1258
330
1250
100
AcDbEntity
8
0
62
8
100
AcDbVertex
100
AcDbPolygonMeshVertex
10
-22.444456
20
456.000000
30
-252.334824
70
64
0
VERTEX
5
1259
330
1250
100
AcDbEntity
8
0
62
8
100
AcDbVertex
100
AcDbPolygonMeshVertex
10
-22.565685
20
446.000000
30
-252.434315
70
64
0
VERTEX
5
125a
330
1250
100
AcDbEntity
8
0
62
8
100
AcDbVertex
100
AcDbPolygonMeshVertex
10
-22.565685
20
456.000000
30
-252.434315
70
64
0
VERTEX
5
125b
330
1250
100
AcDbEntity
8
0
62
8
100
AcDbVertex
100
AcDbPolygonMeshVertex
10
-22.665176
20
446.000000
30
-252.555544
70
64
0
VERTEX
5
125c
330
1250
100
AcDbEntity
8
0
62
8
100
AcDbVertex
100
AcDbPolygonMeshVertex
10
-22.665176
20
456.000000
30
-252.555544
70
64
0
VERTEX
5
125d
330
1250
100
AcDbEntity
8
0
62
8
100
AcDbVertex
100
AcDbPolygonMeshVertex
10
-22.739104
20
446.000000
30
-252.693853
70
64
0
VERTEX
5
125e
330
1250
100
AcDbEntity
8
0
62
8
100
AcDbVertex
100
AcDbPolygonMeshVertex
10
-22.739104
20
456.000000
30
-252.693853
70
64
0
VERTEX
5
125f
330
1250
100
AcDbEntity
8
0
62
8
100
AcDbVertex
100
AcDbPolygonMeshVertex
10
-22.784628
20
446.000000
30
-252.843928
70
64
0
VERTEX
5
1260
330
1250
100
AcDbEntity
8
0
62
8
100
AcDbVertex
100
AcDbPolygonMeshVertex
10
-22.784628
20
456.000000
30
-252.843928
70
64
0
VERTEX
5
1261
330
1250
100
AcDbEntity
8
0
62
8
100
AcDbVertex
100
AcDbPolygonMeshVertex
10
-22.800000
20
446.000000
30
-253.000000
70
64
0
VERTEX
5
1262
330
1250
100
AcDbEntity
8
0
62
8
100
AcDbVertex
100
AcDbPolygonMeshVertex
10
-22.800000
20
456.000000
30
-253.000000
70
64
0
VERTEX
5
1263
330
1250
100
AcDbEntity
8
0
62
8
100
AcDbVertex
100
AcDbPolygonMeshVertex
10
-22.784628
20
446.000000
30
-253.156072
70
64
0
VERTEX
5
1264
330
1250
100
AcDbEntity
8
0
62
8
100
AcDbVertex
100
AcDbPolygonMeshVertex
10
-22.784628
20
456.000000
30
-253.156072
70
64
0
VERTEX
5
1265
330
1250
100
AcDbEntity
8
0
62
8
100
AcDbVertex
100
AcDbPolygonMeshVertex
10
-22.739104
20
446.000000
30
-253.306147
70
64
0
VERTEX
5
1266
330
1250
100
AcDbEntity
8
0
62
8
100
AcDbVertex
100
AcDbPolygonMeshVertex
10
-22.739104
20
456.000000
30
-253.306147
70
64
0
VERTEX
5
1267
330
1250
100
AcDbEntity
8
0
62
8
100
AcDbVertex
100
AcDbPolygonMeshVertex
10
-22.665176
20
446.000000
30
-253.444456
70
64
0
VERTEX
5
1268
330
1250
100
AcDbEntity
8
0
62
8
100
AcDbVertex
100
AcDbPolygonMeshVertex
10
-22.665176
20
456.000000
30
-253.444456
70
64
0
VERTEX
5
1269
330
1250
100
AcDbEntity
8
0
62
8
100
AcDbVertex
100
AcDbPolygonMeshVertex
10
-22.565685
20
446.000000
30
-253.565685
70
64
0
VERTEX
5
126a
330
1250
100
AcDbEntity
8
0
62
8
100
AcDbVertex
100
AcDbPolygonMeshVertex
10
-22.565685
20
456.000000
30
-253.565685
70
64
0
VERTEX
5
126b
330
1250
100
AcDbEntity
8
0
62
8
100
AcDbVertex
100
AcDbPolygonMeshVertex
10
-22.444456
20
446.000000
30
-253.665176
70
64
0
VERTEX
5
126c
330
1250
100
AcDbEntity
8
0
62
8
100
AcDbVertex
100
AcDbPolygonMeshVertex
10
-22.444456
20
456.000000
30
-253.665176
70
64
0
VERTEX
5
126d
330
1250
100
AcDbEntity
8
0
62
8
100
AcDbVertex
100
AcDbPolygonMeshVertex
10
-22.306147
20
446.000000
30
-253.739104
70
64
0
VERTEX
5
126e
330
1250
100
AcDbEntity
8
0
62
8
100
AcDbVertex
100
AcDbPolygonMeshVertex
10
-22.306147
20
456.000000
30
-253.739104
70
64
0
VERTEX
5
126f
330
1250
100
AcDbEntity
8
0
62
8
100
AcDbVertex
100
AcDbPolygonMeshVertex
10
-22.156072
20
446.000000
30
-253.784628
70
64
0
VERTEX
5
1270
330
1250
100
AcDbEntity
8
0
62
8
100
AcDbVertex
100
AcDbPolygonMeshVertex
10
-22.156072
20
456.000000
30
-253.784628
70
64
0
VERTEX
5
1271
330
1250
100
AcDbEntity
8
0
62
8
100
AcDbVertex
100
AcDbPolygonMeshVertex
10
-22.000000
20
446.000000
30
-253.800000
70
64
0
VERTEX
5
1272
330
1250
100
AcDbEntity
8
0
62
8
100
AcDbVertex
100
AcDbPolygonMeshVertex
10
-22.000000
20
456.000000
30
-253.800000
70
64
0
SEQEND
5
1273
330
1250
100
AcDbEntity
8
0
62
8
0
3DFACE
5
1274
330
1004
100
AcDbEntity
8
0
62
8
100
AcDbFace
10
5.116913
20
456.000000
30
259.647638
11
0.287284
21
456.000000
31
260.682914
12
0.287284
22
466.000000
32
260.682914
13
5.116913
23
466.000000
33
259.647638
70
0
0
3DFACE
5
1275
330
1004
100
AcDbEntity
8
0
62
8
100
AcDbFace
10
0.287284
20
456.000000
30
260.682914
11
-12.000000
21
456.000000
31
253.800000
12
-12.000000
22
466.000000
32
253.800000
13
0.287284
23
466.000000
33
260.682914
70
0
0
3DFACE
5
1276
330
1004
100
AcDbEntity
8
0
62
8
100
AcDbFace
10
-9.170371
20
456.000000
30
251.164724
11
-14.000000
21
456.000000
31
252.200000
12
-14.000000
22
466.000000
32
252.200000
13
-9.170371
23
466.000000
33
251.164724
70
0
0
3DFACE
5
1277
330
1004
100
AcDbEntity
8
0
62
8
100
AcDbFace
10
-12.000000
20
456.000000
30
253.800000
11
-22.000000
21
456.000000
31
253.800000
12
-22.000000
22
466.000000
32
253.800000
13
-12.000000
23
466.000000
33
253.800000
70
0
0
3DFACE
5
1278
330
1004
100
AcDbEntity
8
0
62
8
100
AcDbFace
10
-14.000000
20
456.000000
30
252.200000
11
-22.000000
21
456.000000
31
252.200000
12
-22.000000
22
466.000000
32
252.200000
13
-14.000000
23
466.000000
33
252.200000
70
0
0
POLYLINE
5
1279
330
1004
100
AcDbEntity
8
0
62
8
100
AcDbPolygonMesh
66
1
10
0.0
20
0.0
30
0.0
70
16
71
17
72
2
0
VERTEX
5
127a
330
1279
100
AcDbEntity
8
0
62
8
100
AcDbVertex
100
AcDbPolygonMeshVertex
10
-22.000000
20
466.000000
30
252.200000
70
64
0
VERTEX
5
127b
330
1279
100
AcDbEntity
8
0
62
8
100
AcDbVertex
100
AcDbPolygonMeshVertex
10
-22.000000
20
456.000000
30
252.200000
70
64
0
VERTEX
5
127c
330
1279
100
AcDbEntity
8
0
62
8
100
AcDbVertex
100
AcDbPolygonMeshVertex
10
-22.156072
20
466.000000
30
252.215372
70
64
0
VERTEX
5
127d
330
1279
100
AcDbEntity
8
0
62
8
100
AcDbVertex
100
AcDbPolygonMeshVertex
10
-22.156072
20
456.000000
30
252.215372
70
64
0
VERTEX
5
127e
330
1279
100
AcDbEntity
8
0
62
8
100
AcDbVertex
100
AcDbPolygonMeshVertex
10
-22.306147
20
466.000000
30
252.260896
70
64
0
VERTEX
5
127f
330
1279
100
AcDbEntity
8
0
62
8
100
AcDbVertex
100
AcDbPolygonMeshVertex
10
-22.306147
20
456.000000
30
252.260896
70
64
0
VERTEX
5
1280
330
1279
100
AcDbEntity
8
0
62
8
100
AcDbVertex
100
AcDbPolygonMeshVertex
10
-22.444456
20
466.000000
30
252.334824
70
64
0
VERTEX
5
1281
330
1279
100
AcDbEntity
8
0
62
8
100
AcDbVertex
100
AcDbPolygonMeshVertex
10
-22.444456
20
456.000000
30
252.334824
70
64
0
VERTEX
5
1282
330
1279
100
AcDbEntity
8
0
62
8
100
AcDbVertex
100
AcDbPolygonMeshVertex
10
-22.565685
20
466.000000
30
252.434315
70
64
0
VERTEX
5
1283
330
1279
100
AcDbEntity
8
0
62
8
100
AcDbVertex
100
AcDbPolygonMeshVertex
10
-22.565685
20
456.000000
30
252.434315
70
64
0
VERTEX
5
1284
330
1279
100
AcDbEntity
8
0
62
8
100
AcDbVertex
100
AcDbPolygonMeshVertex
10
-22.665176
20
466.000000
30
252.555544
70
64
0
VERTEX
5
1285
330
1279
100
AcDbEntity
8
0
62
8
100
AcDbVertex
100
AcDbPolygonMeshVertex
10
-22.665176
20
456.000000
30
252.555544
70
64
0
VERTEX
5
1286
330
1279
100
AcDbEntity
8
0
62
8
100
AcDbVertex
100
AcDbPolygonMeshVertex
10
-22.739104
20
466.000000
30
252.693853
70
64
0
VERTEX
5
1287
330
1279
100
AcDbEntity
8
0
62
8
100
AcDbVertex
100
AcDbPolygonMeshVertex
10
-22.739104
20
456.000000
30
252.693853
70
64
0
VERTEX
5
1288
330
1279
100
AcDbEntity
8
0
62
8
100
AcDbVertex
100
AcDbPolygonMeshVertex
10
-22.784628
20
466.000000
30
252.843928
70
64
0
VERTEX
5
1289
330
1279
100
AcDbEntity
8
0
62
8
100
AcDbVertex
100
AcDbPolygonMeshVertex
10
-22.784628
20
456.000000
30
252.843928
70
64
0
VERTEX
5
128a
330
1279
100
AcDbEntity
8
0
62
8
100
AcDbVertex
100
AcDbPolygonMeshVertex
10
-22.800000
20
466.000000
30
253.000000
70
64
0
VERTEX
5
128b
330
1279
100
AcDbEntity
8
0
62
8
100
AcDbVertex
100
AcDbPolygonMeshVertex
10
-22.800000
20
456.000000
30
253.000000
70
64
0
VERTEX
5
128c
330
1279
100
AcDbEntity
8
0
62
8
100
AcDbVertex
100
AcDbPolygonMeshVertex
10
-22.784628
20
466.000000
30
253.156072
70
64
0
VERTEX
5
128d
330
1279
100
AcDbEntity
8
0
62
8
100
AcDbVertex
100
AcDbPolygonMeshVertex
10
-22.784628
20
456.000000
30
253.156072
70
64
0
VERTEX
5
128e
330
1279
100
AcDbEntity
8
0
62
8
100
AcDbVertex
100
AcDbPolygonMeshVertex
10
-22.739104
20
466.000000
30
253.306147
70
64
0
VERTEX
5
128f
330
1279
100
AcDbEntity
8
0
62
8
100
AcDbVertex
100
AcDbPolygonMeshVertex
10
-22.739104
20
456.000000
30
253.306147
70
64
0
VERTEX
5
1290
330
1279
100
AcDbEntity
8
0
62
8
100
AcDbVertex
100
AcDbPolygonMeshVertex
10
-22.665176
20
466.000000
30
253.444456
70
64
0
VERTEX
5
1291
330
1279
100
AcDbEntity
8
0
62
8
100
AcDbVertex
100
AcDbPolygonMeshVertex
10
-22.665176
20
456.000000
30
253.444456
70
64
0
VERTEX
5
1292
330
1279
100
AcDbEntity
8
0
62
8
100
AcDbVertex
100
AcDbPolygonMeshVertex
10
-22.565685
20
466.000000
30
253.565685
70
64
0
VERTEX
5
1293
330
1279
100
AcDbEntity
8
0
62
8
100
AcDbVertex
100
AcDbPolygonMeshVertex
10
-22.565685
20
456.000000
30
253.565685
70
64
0
VERTEX
5
1294
330
1279
100
AcDbEntity
8
0
62
8
100
AcDbVertex
100
AcDbPolygonMeshVertex
10
-22.444456
20
466.000000
30
253.665176
70
64
0
VERTEX
5
1295
330
1279
100
AcDbEntity
8
0
62
8
100
AcDbVertex
100
AcDbPolygonMeshVertex
10
-22.444456
20
456.000000
30
253.665176
70
64
0
VERTEX
5
1296
330
1279
100
AcDbEntity
8
0
62
8
100
AcDbVertex
100
AcDbPolygonMeshVertex
10
-22.306147
20
466.000000
30
253.739104
70
64
0
VERTEX
5
1297
330
1279
100
AcDbEntity
8
0
62
8
100
AcDbVertex
100
AcDbPolygonMeshVertex
10
-22.306147
20
456.000000
30
253.739104
70
64
0
VERTEX
5
1298
330
1279
100
AcDbEntity
8
0
62
8
100
AcDbVertex
100
AcDbPolygonMeshVertex
10
-22.156072
20
466.000000
30
253.784628
70
64
0
VERTEX
5
1299
330
1279
100
AcDbEntity
8
0
62
8
100
AcDbVertex
100
AcDbPolygonMeshVertex
10
-22.156072
20
456.000000
30
253.784628
70
64
0
VERTEX
5
129a
330
1279
100
AcDbEntity
8
0
62
8
100
AcDbVertex
100
AcDbPolygonMeshVertex
10
-22.000000
20
466.000000
30
253.800000
70
64
0
VERTEX
5
129b
330
1279
100
AcDbEntity
8
0
62
8
100
AcDbVertex
100
AcDbPolygonMeshVertex
10
-22.000000
20
456.000000
30
253.800000
70
64
0
SEQEND
5
129c
330
1279
100
AcDbEntity
8
0
62
8
0
3DFACE
5
129d
330
1004
100
AcDbEntity
8
0
62
8
100
AcDbFace
10
5.116913
20
-456.000000
30
259.647638
11
0.287284
21
-456.000000
31
260.682914
12
0.287284
22
-446.000000
32
260.682914
13
5.116913
23
-446.000000
33
259.647638
70
0
0
3DFACE
5
129e
330
1004
100
AcDbEntity
8
0
62
8
100
AcDbFace
10
0.287284
20
-456.000000
30
260.682914
11
-12.000000
21
-456.000000
31
253.800000
12
-12.000000
22
-446.000000
32
253.800000
13
0.287284
23
-446.000000
33
260.682914
70
0
0
3DFACE
5
129f
330
1004
100
AcDbEntity
8
0
62
8
100
AcDbFace
10
-9.170371
20
-456.000000
30
251.164724
11
-14.000000
21
-456.000000
31
252.200000
12
-14.000000
22
-446.000000
32
252.200000
13
-9.170371
23
-446.000000
33
251.164724
70
0
0
3DFACE
5
12a0
330
1004
100
AcDbEntity
8
0
62
8
100
AcDbFace
10
-12.000000
20
-456.000000
30
253.800000
11
-22.000000
21
-456.000000
31
253.800000
12
-22.000000
22
-446.000000
32
253.800000
13
-12.000000
23
-446.000000
33
253.800000
70
0
0
3DFACE
5
12a1
330
1004
100
AcDbEntity
8
0
62
8
100
AcDbFace
10
-14.000000
20
-456.000000
30
252.200000
11
-22.000000
21
-456.000000
31
252.200000
12
-22.000000
22
-446.000000
32
252.200000
13
-14.000000
23
-446.000000
33
252.200000
70
0
0
POLYLINE
5
12a2
330
1004
100
AcDbEntity
8
0
62
8
100
AcDbPolygonMesh
66
1
10
0.0
20
0.0
30
0.0
70
16
71
17
72
2
0
VERTEX
5
12a3
330
12a2
100
AcDbEntity
8
0
62
8
100
AcDbVertex
100
AcDbPolygonMeshVertex
10
-22.000000
20
-446.000000
30
252.200000
70
64
0
VERTEX
5
12a4
330
12a2
100
AcDbEntity
8
0
62
8
100
AcDbVertex
100
AcDbPolygonMeshVertex
10
-22.000000
20
-456.000000
30
252.200000
70
64
0
VERTEX
5
12a5
330
12a2
100
AcDbEntity
8
0
62
8
100
AcDbVertex
100
AcDbPolygonMeshVertex
10
-22.156072
20
-446.000000
30
252.215372
70
64
0
VERTEX
5
12a6
330
12a2
100
AcDbEntity
8
0
62
8
100
AcDbVertex
100
AcDbPolygonMeshVertex
10
-22.156072
20
-456.000000
30
252.215372
70
64
0
VERTEX
5
12a7
330
12a2
100
AcDbEntity
8
0
62
8
100
AcDbVertex
100
AcDbPolygonMeshVertex
10
-22.306147
20
-446.000000
30
252.260896
70
64
0
VERTEX
5
12a8
330
12a2
100
AcDbEntity
8
0
62
8
100
AcDbVertex
100
AcDbPolygonMeshVertex
10
-22.306147
20
-456.000000
30
252.260896
70
64
0
VERTEX
5
12a9
330
12a2
100
AcDbEntity
8
0
62
8
100
AcDbVertex
100
AcDbPolygonMeshVertex
10
-22.444456
20
-446.000000
30
252.334824
70
64
0
VERTEX
5
12aa
330
12a2
100
AcDbEntity
8
0
62
8
100
AcDbVertex
100
AcDbPolygonMeshVertex
10
-22.444456
20
-456.000000
30
252.334824
70
64
0
VERTEX
5
12ab
330
12a2
100
AcDbEntity
8
0
62
8
100
AcDbVertex
100
AcDbPolygonMeshVertex
10
-22.565685
20
-446.000000
30
252.434315
70
64
0
VERTEX
5
12ac
330
12a2
100
AcDbEntity
8
0
62
8
100
AcDbVertex
100
AcDbPolygonMeshVertex
10
-22.565685
20
-456.000000
30
252.434315
70
64
0
VERTEX
5
12ad
330
12a2
100
AcDbEntity
8
0
62
8
100
AcDbVertex
100
AcDbPolygonMeshVertex
10
-22.665176
20
-446.000000
30
252.555544
70
64
0
VERTEX
5
12ae
330
12a2
100
AcDbEntity
8
0
62
8
100
AcDbVertex
100
AcDbPolygonMeshVertex
10
-22.665176
20
-456.000000
30
252.555544
70
64
0
VERTEX
5
12af
330
12a2
100
AcDbEntity
8
0
62
8
100
AcDbVertex
100
AcDbPolygonMeshVertex
10
-22.739104
20
-446.000000
30
252.693853
70
64
0
VERTEX
5
12b0
330
12a2
100
AcDbEntity
8
0
62
8
100
AcDbVertex
100
AcDbPolygonMeshVertex
10
-22.739104
20
-456.000000
30
252.693853
70
64
0
VERTEX
5
12b1
330
12a2
100
AcDbEntity
8
0
62
8
100
AcDbVertex
100
AcDbPolygonMeshVertex
10
-22.784628
20
-446.000000
30
252.843928
70
64
0
VERTEX
5
12b2
330
12a2
100
AcDbEntity
8
0
62
8
100
AcDbVertex
100
AcDbPolygonMeshVertex
10
-22.784628
20
-456.000000
30
252.843928
70
64
0
VERTEX
5
12b3
330
12a2
100
AcDbEntity
8
0
62
8
100
AcDbVertex
100
AcDbPolygonMeshVertex
10
-22.800000
20
-446.000000
30
253.000000
70
64
0
VERTEX
5
12b4
330
12a2
100
AcDbEntity
8
0
62
8
100
AcDbVertex
100
AcDbPolygonMeshVertex
10
-22.800000
20
-456.000000
30
253.000000
70
64
0
VERTEX
5
12b5
330
12a2
100
AcDbEntity
8
0
62
8
100
AcDbVertex
100
AcDbPolygonMeshVertex
10
-22.784628
20
-446.000000
30
253.156072
70
64
0
VERTEX
5
12b6
330
12a2
100
AcDbEntity
8
0
62
8
100
AcDbVertex
100
AcDbPolygonMeshVertex
10
-22.784628
20
-456.000000
30
253.156072
70
64
0
VERTEX
5
12b7
330
12a2
100
AcDbEntity
8
0
62
8
100
AcDbVertex
100
AcDbPolygonMeshVertex
10
-22.739104
20
-446.000000
30
253.306147
70
64
0
VERTEX
5
12b8
330
12a2
100
AcDbEntity
8
0
62
8
100
AcDbVertex
100
AcDbPolygonMeshVertex
10
-22.739104
20
-456.000000
30
253.306147
70
64
0
VERTEX
5
12b9
330
12a2
100
AcDbEntity
8
0
62
8
100
AcDbVertex
100
AcDbPolygonMeshVertex
10
-22.665176
20
-446.000000
30
253.444456
70
64
0
VERTEX
5
12ba
330
12a2
100
AcDbEntity
8
0
62
8
100
AcDbVertex
100
AcDbPolygonMeshVertex
10
-22.665176
20
-456.000000
30
253.444456
70
64
0
VERTEX
5
12bb
330
12a2
100
AcDbEntity
8
0
62
8
100
AcDbVertex
100
AcDbPolygonMeshVertex
10
-22.565685
20
-446.000000
30
253.565685
70
64
0
VERTEX
5
12bc
330
12a2
100
AcDbEntity
8
0
62
8
100
AcDbVertex
100
AcDbPolygonMeshVertex
10
-22.565685
20
-456.000000
30
253.565685
70
64
0
VERTEX
5
12bd
330
12a2
100
AcDbEntity
8
0
62
8
100
AcDbVertex
100
AcDbPolygonMeshVertex
10
-22.444456
20
-446.000000
30
253.665176
70
64
0
VERTEX
5
12be
330
12a2
100
AcDbEntity
8
0
62
8
100
AcDbVertex
100
AcDbPolygonMeshVertex
10
-22.444456
20
-456.000000
30
253.665176
70
64
0
VERTEX
5
12bf
330
12a2
100
AcDbEntity
8
0
62
8
100
AcDbVertex
100
AcDbPolygonMeshVertex
10
-22.306147
20
-446.000000
30
253.739104
70
64
0
VERTEX
5
12c0
330
12a2
100
AcDbEntity
8
0
62
8
100
AcDbVertex
100
AcDbPolygonMeshVertex
10
-22.306147
20
-456.000000
30
253.739104
70
64
0
VERTEX
5
12c1
330
12a2
100
AcDbEntity
8
0
62
8
100
AcDbVertex
100
AcDbPolygonMeshVertex
10
-22.156072
20
-446.000000
30
253.784628
70
64
0
VERTEX
5
12c2
330
12a2
100
AcDbEntity
8
0
62
8
100
AcDbVertex
100
AcDbPolygonMeshVertex
10
-22.156072
20
-456.000000
30
253.784628
70
64
0
VERTEX
5
12c3
330
12a2
100
AcDbEntity
8
0
62
8
100
AcDbVertex
100
AcDbPolygonMeshVertex
10
-22.000000
20
-446.000000
30
253.800000
70
64
0
VERTEX
5
12c4
330
12a2
100
AcDbEntity
8
0
62
8
100
AcDbVertex
100
AcDbPolygonMeshVertex
10
-22.000000
20
-456.000000
30
253.800000
70
64
0
SEQEND
5
12c5
330
12a2
100
AcDbEntity
8
0
62
8
0
3DFACE
5
12c6
330
1004
100
AcDbEntity
8
0
62
7
100
AcDbFace
10
16.400000
20
5.000000
30
-271.299999
11
16.400000
21
5.000000
31
-267.299999
12
16.400000
22
-5.000000
32
-267.299999
13
16.400000
23
-5.000000
33
-271.299999
70
0
0
3DFACE
5
12c7
330
1004
100
AcDbEntity
8
0
62
7
100
AcDbFace
10
16.400000
20
-456.000000
30
-271.299999
11
16.400000
21
-456.000000
31
-267.299999
12
16.400000
22
-466.000000
32
-267.299999
13
16.400000
23
-466.000000
33
-271.299999
70
0
0
3DFACE
5
12c8
330
1004
100
AcDbEntity
8
0
62
7
100
AcDbFace
10
16.400000
20
466.000000
30
-271.299999
11
16.400000
21
466.000000
31
-267.299999
12
16.400000
22
456.000000
32
-267.299999
13
16.400000
23
456.000000
33
-271.299999
70
0
0
3DFACE
5
12c9
330
1004
100
AcDbEntity
8
0
62
7
100
AcDbFace
10
16.400000
20
5.000000
30
267.299999
11
16.400000
21
5.000000
31
271.299999
12
16.400000
22
-5.000000
32
271.299999
13
16.400000
23
-5.000000
33
267.299999
70
0
0
3DFACE
5
12ca
330
1004
100
AcDbEntity
8
0
62
7
100
AcDbFace
10
16.400000
20
-456.000000
30
267.299999
11
16.400000
21
-456.000000
31
271.299999
12
16.400000
22
-466.000000
32
271.299999
13
16.400000
23
-466.000000
33
267.299999
70
0
0
3DFACE
5
12cb
330
1004
100
AcDbEntity
8
0
62
7
100
AcDbFace
10
16.400000
20
466.000000
30
267.299999
11
16.400000
21
466.000000
31
271.299999
12
16.400000
22
456.000000
32
271.299999
13
16.400000
23
456.000000
33
267.299999
70
0
0
3DFACE
5
12cc
330
1004
100
AcDbEntity
8
0
62
7
100
AcDbFace
10
16.400000
20
521.299999
30
-206.000000
11
16.400000
21
517.299999
31
-206.000000
12
16.400000
22
517.299999
32
-216.000000
13
16.400000
23
521.299999
33
-216.000000
70
0
0
3DFACE
5
12cd
330
1004
100
AcDbEntity
8
0
62
7
100
AcDbFace
10
16.400000
20
521.299999
30
216.000000
11
16.400000
21
517.299999
31
216.000000
12
16.400000
22
517.299999
32
206.000000
13
16.400000
23
521.299999
33
206.000000
70
0
0
3DFACE
5
12ce
330
1004
100
AcDbEntity
8
0
62
7
100
AcDbFace
10
16.400000
20
-517.299999
30
-206.000000
11
16.400000
21
-521.299999
31
-206.000000
12
16.400000
22
-521.299999
32
-216.000000
13
16.400000
23
-517.299999
33
-216.000000
70
0
0
3DFACE
5
12cf
330
1004
100
AcDbEntity
8
0
62
7
100
AcDbFace
10
16.400000
20
-517.299999
30
216.000000
11
16.400000
21
-521.299999
31
216.000000
12
16.400000
22
-521.299999
32
206.000000
13
16.400000
23
-517.299999
33
206.000000
70
0
0
ENDBLK
5
12d0
330
1004
100
AcDbEntity
8
0
100
AcDbBlockEnd
0
ENDSEC
0
SECTION
2
ENTITIES
0
INSERT
5
12d1
330
1f
100
AcDbEntity
8
S_NOVA_R_301
100
AcDbBlockReference
2
QMODEL_ad87eaaa_6916_47e8_bd01_28f392ae0049
10
0.000000
20
0.000000
30
0.000000
210
0.000000000000
220
0.000000000000
230
1.000000000000
50
0.000000
0
ENDSEC
0
SECTION
2
OBJECTS
0
DICTIONARY
5
C
330
0
100
AcDbDictionary
3
ACAD_GROUP
350
D
3
ACAD_LAYOUT
350
1A
3
ACAD_MLINESTYLE
350
17
3
ACAD_PLOTSETTINGS
350
19
1001
ACAD
1000
TREAT_AS_HARD
1070
0
0
DICTIONARY
5
43
330
1F
100
AcDbDictionary
3
ACAD_LAYOUTSELFREF
350
44
0
DICTIONARY
5
41
330
1B
100
AcDbDictionary
3
ACAD_LAYOUTSELFREF
350
42
0
DICTIONARY
5
D
102
{ACAD_REACTORS
330
C
102
}
330
C
100
AcDbDictionary
1001
ACAD
1000
TREAT_AS_HARD
1070
0
0
DICTIONARY
5
1A
102
{ACAD_REACTORS
330
C
102
}
330
C
100
AcDbDictionary
1001
ACAD
1000
TREAT_AS_HARD
1070
0
0
DICTIONARY
5
17
102
{ACAD_REACTORS
330
C
102
}
330
C
100
AcDbDictionary
3
STANDARD
350
18
1001
ACAD
1000
TREAT_AS_HARD
1070
0
0
DICTIONARY
5
19
102
{ACAD_REACTORS
330
C
102
}
330
C
100
AcDbDictionary
1001
ACAD
1000
TREAT_AS_HARD
1070
0
0
XRECORD
5
44
102
{ACAD_REACTORS
330
43
102
}
330
43
100
AcDbXrecord
340
1F
0
XRECORD
5
42
102
{ACAD_REACTORS
330
41
102
}
330
41
100
AcDbXrecord
340
1B
0
MLINESTYLE
5
18
102
{ACAD_REACTORS
330
17
102
}
330
17
100
AcDbMlineStyle
2
STANDARD
70
0
3

62
256
51
90.0
52
90.0
71
2
49
0.5
62
256
6
BYLAYER
49
-0.5
62
256
6
BYLAYER
0
ENDSEC
0
EOF
